<?xml version="1.0" encoding="UTF-8" standalone="no"?>
<svg
   xmlns:dc="http://purl.org/dc/elements/1.1/"
   xmlns:cc="http://creativecommons.org/ns#"
   xmlns:rdf="http://www.w3.org/1999/02/22-rdf-syntax-ns#"
   xmlns:svg="http://www.w3.org/2000/svg"
   xmlns="http://www.w3.org/2000/svg"
   xmlns:sodipodi="http://sodipodi.sourceforge.net/DTD/sodipodi-0.dtd"
   xmlns:inkscape="http://www.inkscape.org/namespaces/inkscape"
   width="210mm"
   height="297mm"
   viewBox="0 0 210 297"
   version="1.1"
   id="svg4513"
   inkscape:version="1.0.1 (3bc2e813f5, 2020-09-07)"
   sodipodi:docname="constellation-4.svg">
  <defs
     id="defs4507" />
  <sodipodi:namedview
     id="base"
     pagecolor="#ffffff"
     bordercolor="#666666"
     borderopacity="1.0"
     inkscape:pageopacity="0.0"
     inkscape:pageshadow="2"
     inkscape:zoom="0.35"
     inkscape:cx="301.42857"
     inkscape:cy="560"
     inkscape:document-units="mm"
     inkscape:current-layer="layer1"
     inkscape:document-rotation="0"
     showgrid="false"
     inkscape:window-width="3747"
     inkscape:window-height="2126"
     inkscape:window-x="82"
     inkscape:window-y="-11"
     inkscape:window-maximized="1" />
  <metadata
     id="metadata4510">
    <rdf:RDF>
      <cc:Work
         rdf:about="">
        <dc:format>image/svg+xml</dc:format>
        <dc:type
           rdf:resource="http://purl.org/dc/dcmitype/StillImage" />
        <dc:title></dc:title>
      </cc:Work>
    </rdf:RDF>
  </metadata>
  <g
     inkscape:label="Layer 1"
     inkscape:groupmode="layer"
     id="layer1">
    <path
       id="constelation4"
       style="fill:#000000;stroke-width:0.0203101"
       d="M 2.8806476,8.6666034e-4 C 2.4994576,0.05126666 1.9391276,-0.03533334 1.8800676,0.48547666 c -0.11659,0.34808 -0.35338,0.64837004 -0.32095,1.03771004 0.0399,0.51501 0.22513,1.03107 0.51166,1.46021 0.17139,0.27522 0.64814,0.35186 0.40571,0.6164 -0.002,0.0697 0.25089,-0.3987 0.16882,-0.008 -0.18113,0.37853 -0.27129,1.17467 -0.53252,1.28873 -0.10631,-0.24517 0.25795,-0.73831 0.10794,-0.78322 -0.25935,0.28038 0.011,0.8889 -0.47126,0.78752 -0.52338,0.0465 -1.11806002,0.13825 -1.43330002,0.61202 -0.4035,0.33517 -0.18814,0.8874 0.11376,1.20474 0.28755,0.31673 0.55898,0.7576 1.04403002,0.74956 0.73465,-0.0336 1.32782,-0.59708 1.66514,-1.21076 0.17618,-0.43528 -0.17466,-0.83926 -0.52847,-1.04377 -0.23961,-0.42534 0.13124,-0.89466 0.19845,-1.33325 -0.001,-0.57293 0.58648,-0.15779 0.92995,-0.17292 0.41519,0.0817 0.79181,-0.23351 0.88577,-0.62614 0.0925,-0.37189 0.51318,-0.62418 0.45193,-1.02935 -0.124,-0.42176 -0.3434,-0.8151 -0.55768,-1.19783004 -0.22499,-0.3408 -0.5719,-0.57085 -0.96535,-0.6743 -0.21197,-0.0971 -0.43697,-0.16898 -0.67305,-0.16240999966 z M 2.7343576,0.41801666 c 0.17515,0.0344 0.60372,0.0968 0.18822,0.13272 -0.34631,0.19022 -0.64634,0.54260004 -0.63541,0.95796004 -0.0658,0.6262 -0.36927,-0.44461 -0.15415,-0.67530004 0.0917,-0.24276 0.3487,-0.43437 0.60134,-0.41538 z m 0.73655,0.84784004 c 0.36436,0.0291 0.80874,0.22592 0.93574,0.58476 0.0189,0.59391 -0.69515,0.93662 -1.17735,0.61589 -0.38039,-0.20699 -0.49745,-0.80657 -0.21415,-1.13093 0.12999,-0.096 0.30555,-0.0553 0.45576,-0.0697 z m -0.39269,0.049 c -0.0398,0.0243 0.0397,0.0249 0,0 z m -0.87532,0.88366 c 0.16155,0.31448 0.4959,0.67033 0.5907,0.93869 -0.37331,-0.12995 -0.53355,-0.56854 -0.61069,-0.92252 z m 1.04391,0.74763 c 0.20531,0.006 0.77967,0.055 0.27394,0.17763 -0.0618,0.0659 -0.47664,-0.16646 -0.27394,-0.17763 z m 0.93508,0.035 c 0.0638,0.12658 -0.19305,0.0406 0,0 z m -1.74465,0.62867 c -0.0792,0.0527 0.11559,0.0373 0,0 z m 0.0885,0.0723 c -0.2582,-0.0507 -0.24531,0.55845 -0.10995,0.13871 l 0.059,-0.0661 z m -0.17857,0.0293 c -0.0403,0.0238 0.04,0.025 0,0 z m -0.0407,0.28425 c -0.0398,0.0248 0.0399,0.0242 0,0 z m 0.0185,0.0443 c -0.0424,0.0466 0.0434,0.0318 0,0 z m -0.0387,0.17912 c -0.0402,0.024 0.0399,0.0251 0,0 z m -0.10158,0.12196 c 0.0401,0.0249 -0.0402,0.0243 0,0 z m -0.0406,0.36547 c -0.0399,0.0242 0.0398,0.0248 0,0 z m -0.12182,0.0204 c -0.0402,0.0244 0.0401,0.0249 0,0 z m -0.22519,0.53953 c 0.174,0.1024 -0.19054,0.0231 0,0 z m -0.33498,0.003 c 0.17933,0.11287 -0.40648,0.27032 0.0222,0.26666 0.41424,0.1155 1.28832,0.022 1.13272,0.69347 -0.19665,0.42721 -0.69937,0.5935 -1.12449,0.69111 -0.39652,0.0257 -0.88551002,-0.29159 -0.78746002,-0.73777 -0.0709,-0.21788 0.14872,-0.70826 0.40663002,-0.48331 -0.18847002,-0.19167 0.14366,-0.28575 0.12584,-0.36686 0.0724,-0.0288 0.14776,-0.0499 0.22452,-0.0633 z m 0.45639,0.0159 c 0.1213,0.0751 -0.12074,0.0201 0,0 z m -0.75145,0.15259 c -0.0553,0.0734 0.0898,0.0732 0,0 z m -1.15548002,0.0204 c -0.04,0.0241 0.0399,0.0247 0,0 z m 1.50277002,1.15124 c -0.0397,0.0244 0.0397,0.0244 0,0 z" />
  </g>
</svg>
