<?xml version="1.0" encoding="UTF-8" standalone="no"?>
<svg
   xmlns:dc="http://purl.org/dc/elements/1.1/"
   xmlns:cc="http://creativecommons.org/ns#"
   xmlns:rdf="http://www.w3.org/1999/02/22-rdf-syntax-ns#"
   xmlns:svg="http://www.w3.org/2000/svg"
   xmlns="http://www.w3.org/2000/svg"
   xmlns:sodipodi="http://sodipodi.sourceforge.net/DTD/sodipodi-0.dtd"
   xmlns:inkscape="http://www.inkscape.org/namespaces/inkscape"
   width="210mm"
   height="297mm"
   viewBox="0 0 210 297"
   version="1.1"
   id="svg5097"
   inkscape:version="1.0.1 (3bc2e813f5, 2020-09-07)"
   sodipodi:docname="constellation-5.svg">
  <defs
     id="defs5091" />
  <sodipodi:namedview
     id="base"
     pagecolor="#ffffff"
     bordercolor="#666666"
     borderopacity="1.0"
     inkscape:pageopacity="0.0"
     inkscape:pageshadow="2"
     inkscape:zoom="0.35"
     inkscape:cx="301.42857"
     inkscape:cy="560"
     inkscape:document-units="mm"
     inkscape:current-layer="layer1"
     inkscape:document-rotation="0"
     showgrid="false"
     inkscape:window-width="3747"
     inkscape:window-height="2126"
     inkscape:window-x="82"
     inkscape:window-y="-11"
     inkscape:window-maximized="1" />
  <metadata
     id="metadata5094">
    <rdf:RDF>
      <cc:Work
         rdf:about="">
        <dc:format>image/svg+xml</dc:format>
        <dc:type
           rdf:resource="http://purl.org/dc/dcmitype/StillImage" />
        <dc:title></dc:title>
      </cc:Work>
    </rdf:RDF>
  </metadata>
  <g
     inkscape:label="Layer 1"
     inkscape:groupmode="layer"
     id="layer1">
    <path
       id="constelation1"
       style="fill:#000000;stroke-width:0.0203101"
       d="m 6.032905,1.7071097e-4 v 1.35e-4 c -0.0687,-0.001900001 -0.13419,0.004999999 -0.1906,0.022279999 -0.0782,0.02392 -0.29234,0.129085 -0.30517,0.149855 -0.007,0.01146 -0.0489,0.0392 -0.093,0.06166 -0.044,0.02246 -0.10517,0.06295 -0.13577,0.08997 -0.0306,0.02702 -0.083,0.07319 -0.11649,0.102682 -0.16032,0.141065 -0.23353,0.217334 -0.23353,0.243237 0,0.01558 -0.0116,0.03563 -0.0256,0.04457 -0.0744,0.0475 -0.21822,0.33205999 -0.21822,0.43178399 0,0.03122 -0.0137,0.06812 -0.0305,0.08204 -0.0168,0.01392 -0.0305,0.04539 -0.0305,0.06987 0,0.05049 -0.10816,0.164404 -0.13837,0.145751 -0.0109,-0.0067 -0.067,-0.0033 -0.12455,0.0076 -0.0576,0.01093 -0.16128,0.02421 -0.23053,0.02954 -0.0692,0.0053 -0.17619,0.02289 -0.23763,0.0391 -0.0614,0.01622 -0.15744,0.03609 -0.21329,0.04416 -0.0558,0.0081 -0.14621,0.03205 -0.20072,0.05332 -0.0545,0.02127 -0.10389,0.03379 -0.10979,0.02789 -0.006,-0.0059 -0.0207,-0.0027 -0.033,0.0071 -0.0122,0.0098 -0.0907,0.02875 -0.17446,0.04211 -0.1452,0.02315 -0.24589,0.04824 -0.33512,0.08327 -0.0223,0.0088 -0.0954,0.03129 -0.16244,0.05018 -0.067,0.01889 -0.16765,0.05504 -0.22354,0.08026 -0.20827,0.09392 -0.26739,0.0895 -0.31803,-0.0234 -0.0242,-0.05404 -0.045,-0.105381 -0.0458,-0.114165 -7.9e-4,-0.0088 -0.0154,-0.02543 -0.0321,-0.03705 -0.0226,-0.01564 -0.0239,-0.02373 -0.005,-0.03131 0.0316,-0.01289 -0.0782,-0.108697 -0.12456,-0.108697 -0.0179,0 -0.0325,-0.0091 -0.0325,-0.02024 0,-0.01119 -0.0134,-0.02037 -0.0298,-0.02037 -0.018,0 -0.0252,-0.01183 -0.0182,-0.03022 0.007,-0.01828 -0.003,-0.0358 -0.0261,-0.04416 -0.0207,-0.0076 -0.0895,-0.0534 -0.15286,-0.101727 -0.0634,-0.04833 -0.12778,-0.08791 -0.14315,-0.08791 -0.0154,0 -0.038,-0.0099 -0.0502,-0.02215 -0.0142,-0.01418 -0.1014,-0.01963 -0.24269,-0.01519 -0.27597998,0.0087 -0.52194998,0.116004 -0.73039998,0.318712 -0.1041,0.101232 -0.27209,0.340122 -0.27209,0.386937 0,0.0085 -0.0501,0.115123 -0.11143,0.237086 -0.0613,0.121957 -0.11171,0.240048 -0.11198,0.262379 -2.6e-4,0.02233 -0.008,0.05278 -0.0178,0.06768 v 1.37e-4 c -0.0225,0.03544 0.0302,0.285777 0.0692,0.328827 0.0165,0.01818 0.03,0.04153 0.0302,0.05182 2e-4,0.01029 0.0231,0.04028 0.0509,0.06658 0.0278,0.0263 0.0514,0.05832 0.0525,0.0711 0.005,0.05037 0.44988,0.418804 0.50657,0.419069 0.0173,1.05e-4 0.0422,0.0109 0.0554,0.02405 0.0331,0.03311 0.20895,0.06059 0.39048998,0.06112 0.23105,5.29e-4 0.24801,-0.0013 0.28344,-0.03336 0.0181,-0.01635 0.0754,-0.04863 0.12743,-0.07164 0.052,-0.02302 0.12192,-0.06902 0.15518,-0.102272 0.0333,-0.03326 0.0695,-0.06057 0.0807,-0.06057 0.0195,0 0.32814,-0.391954 0.32814,-0.416746 0,-0.0068 -0.009,-0.0066 -0.0202,2.65e-4 -0.0112,0.0069 -0.0204,0.0029 -0.0204,-0.0089 0,-0.01183 0.0177,-0.02159 0.0394,-0.02159 0.0457,0 0.0723,-0.03193 0.0421,-0.05059 -0.0113,-0.007 -0.0205,-0.02177 -0.0205,-0.03295 0,-0.0113 0.008,-0.0154 0.0179,-0.0093 0.01,0.0061 0.0287,-0.0016 0.0417,-0.01722 0.0263,-0.03164 -0.004,-0.06413 -0.0394,-0.04225 -0.0112,0.0069 -0.0202,0.0029 -0.0202,-0.0089 0,-0.01183 0.0183,-0.02159 0.0406,-0.02159 0.0241,0 0.0418,-0.01445 0.0433,-0.03555 0.006,-0.08103 -0.007,-0.19816 -0.0234,-0.208373 -0.0245,-0.01516 0.0113,-0.164179 0.0446,-0.185266 0.0148,-0.0094 0.0588,-0.02289 0.0979,-0.03008 0.0391,-0.0072 0.0804,-0.0205 0.0919,-0.02953 0.0115,-0.009 0.0892,-0.03169 0.17269,-0.05045 0.0835,-0.01876 0.1747,-0.04559 0.20263,-0.05961 0.0728,-0.03657 0.17819,-0.06668 0.28959,-0.08258 0.0532,-0.0076 0.10176,-0.02185 0.10788,-0.03172 0.006,-0.0099 0.0378,-0.01791 0.0704,-0.01791 0.0326,0 0.0938,-0.01347 0.13591,-0.02981 0.0421,-0.01633 0.15417,-0.03876 0.24911,-0.0499 0.49531,-0.05807 0.6754,-0.08479 0.75433,-0.11198 0.10729,-0.03697 0.0985,-0.04914 0.11225,0.153681 0.006,0.09349 0.0215,0.188227 0.0338,0.21056 0.0123,0.02233 0.0234,0.04528 0.0247,0.05086 0.0178,0.07614 0.0374,0.121825 0.0521,0.121825 0.01,0 0.0181,0.01445 0.0181,0.03213 0,0.02756 0.0603,0.111937 0.1828,0.255815 0.0168,0.01968 0.066,0.07032 0.10938,0.112527 0.0434,0.04221 0.1111,0.11111 0.15054,0.152998 0.0394,0.04189 0.0839,0.07616 0.0989,0.07616 0.0149,0 0.0628,0.03559 0.10637,0.07916 0.0436,0.04358 0.0984,0.08541 0.12182,0.09284 0.0234,0.0074 0.0427,0.02003 0.0427,0.02803 0,0.04889 0.23908,0.07653 0.47732,0.05524 0.0782,-0.007 0.18124,-0.01572 0.22901,-0.01942 0.0478,-0.0037 0.0927,-0.01254 0.0998,-0.01968 0.007,-0.0071 0.037,-0.01299 0.0665,-0.01299 0.0294,0 0.0621,-0.0082 0.0727,-0.01818 0.0106,-0.01 0.0743,-0.02186 0.14152,-0.02638 0.14302,-0.0096 0.35147,-0.09925 0.48497,-0.208647 0.0482,-0.03947 0.0964,-0.07178 0.10719,-0.07178 0.0301,0 0.24773,-0.240374 0.36971,-0.408268 0.16962,-0.23344 0.23124,-0.37264 0.21904,-0.495499 -0.006,-0.06225 -0.004,-0.08591 0.006,-0.06098 0.0309,0.07593 0.0486,-0.02283 0.0215,-0.119634 -0.0225,-0.08036 -0.0337,-0.146158 -0.0466,-0.272089 -0.003,-0.02556 -0.015,-0.05301 -0.0276,-0.06098 -0.0126,-0.008 -0.0291,-0.04303 -0.0366,-0.07794 -0.008,-0.0349 -0.0361,-0.08437 -0.0634,-0.110064 -0.0273,-0.02569 -0.0498,-0.05859 -0.0498,-0.07301 0,-0.01442 -0.0273,-0.0574 -0.0609,-0.09557 -0.0335,-0.03817 -0.061,-0.07547 -0.061,-0.08285 0,-0.01675 -0.13235,-0.162907 -0.21125,-0.233257 -0.0324,-0.02891 -0.10096,-0.09165 -0.15231,-0.139327 -0.0514,-0.04768 -0.11859,-0.102195 -0.14931,-0.121139 -0.0307,-0.01897 -0.0558,-0.04156 -0.0558,-0.05032 0,-0.0088 -0.0125,-0.01601 -0.0278,-0.01601 -0.0152,0 -0.0509,-0.01828 -0.0793,-0.04061 -0.0284,-0.02233 -0.07,-0.04061 -0.0924,-0.04061 -0.0224,0 -0.0636,-0.02713 -0.0915,-0.0603 -0.10318,-0.122624 -0.33763,-0.2076 -0.54362,-0.213293999029 z M 6.075705,0.19076871 c 0.11802,-0.0021 0.16695,0.0045 0.18787,0.02201 0.0137,0.01154 0.0502,0.03971 0.0809,0.06276 0.0307,0.02302 0.0558,0.05501 0.0558,0.07096 0,0.01595 0.0137,0.02899 0.0305,0.02899 0.0168,0 0.0305,0.01347 0.0305,0.02994 0,0.03171 -0.0457,0.02927 -0.2133,-0.01148 -0.20409,-0.04962 -0.69333,-0.0033 -0.78194,0.07397 -0.0168,0.01463 -0.0557,0.03605 -0.0864,0.04772 -0.1407,0.05349 -0.007,-0.09108 0.17774,-0.192924 0.20316,-0.111693 0.22816,-0.120192 0.37586,-0.127018 0.0562,-0.0026 0.10313,-0.0042 0.14247,-0.0049 z m 0.59873,0.103502 c 0.006,0 0.0103,0.0047 0.0103,0.01024 0,0.0056 -0.005,0.01011 -0.0103,0.01011 -0.006,0 -0.0101,-0.0045 -0.0101,-0.01011 0,-0.0056 0.005,-0.01024 0.0101,-0.01024 z m -0.29437,0.182804 c 0.0149,0 0.021,0.0061 0.0135,0.01355 h -1.4e-4 c -0.007,0.0074 -0.0196,0.0074 -0.0271,0 -0.007,-0.0075 -10e-4,-0.01355 0.0137,-0.01355 z m -0.31242,0.03172 c 0.0674,7.93e-4 0.12464,0.007 0.15997,0.02011 0.0223,0.0083 0.0714,0.02755 0.10911,0.04266 0.0377,0.01511 0.0808,0.02748 0.0958,0.02748 0.05,0 0.36264,0.198411 0.43739,0.277556 0.19767,0.20929299 0.28998,0.48045899 0.23736,0.69730899 -0.009,0.0391 -0.022,0.107633 -0.0277,0.152315 -0.0165,0.127503 -0.0467,0.203399 -0.10105,0.25445 -0.0276,0.02593 -0.0501,0.0569 -0.0503,0.06891 -5.3e-4,0.06729 -0.35741,0.398833 -0.392,0.364242 -0.006,-0.0058 -0.0321,0.0038 -0.0585,0.02106 -0.092,0.06031 -0.48546,0.07828 -0.53911,0.02461 -0.0147,-0.01471 0.12296,-0.07315 0.17227,-0.07315 0.0202,0 0.0565,-0.01394 0.0807,-0.0309 0.0242,-0.01699 0.0514,-0.02932 0.0604,-0.02721 0.009,0.0021 0.0421,-0.007 0.0736,-0.01995 0.0315,-0.01299 0.0659,-0.02352 0.0764,-0.02352 0.0106,0 0.0352,-0.0078 0.0546,-0.01736 0.0194,-0.0095 0.0713,-0.03459 0.1154,-0.05579 0.0825,-0.03964 0.22419,-0.178261 0.26347,-0.257731 0.13284,-0.268727 0.15172,-0.653399 0.0387,-0.787821 -0.0148,-0.01765 -0.0269,-0.04257 -0.0269,-0.05538 0,-0.01281 -0.0277,-0.03759 -0.0615,-0.0551 -0.0339,-0.01752 -0.0566,-0.03998 -0.0505,-0.04991 0.0143,-0.02318 -0.0688,-0.08176 -0.11595,-0.08176 -0.0198,0 -0.0361,-0.01373 -0.0361,-0.03049 0,-0.01894 -0.0191,-0.03036 -0.0507,-0.03036 -0.028,0 -0.0486,-0.01072 -0.0458,-0.02379 0.003,-0.01302 -0.0223,-0.03067 -0.0558,-0.03924 -0.084,-0.02151 -0.29593,-0.0952 -0.34523,-0.120046 -0.0233,-0.01175 -0.16814,-0.0182 -0.34032,-0.01519 -0.16477,0.003 -0.29958,0.0046 -0.29957,0.0035 1e-5,-0.0011 0.0267,-0.0254 0.0591,-0.05428 0.0671,-0.05982 0.36069,-0.107416 0.56291,-0.10528 z m 0.86904,0.114302 c 0.002,2.41e-4 0.003,0.0013 0.005,0.0031 0.007,0.0075 0.007,0.01961 0,0.02707 -0.007,0.0074 -0.0136,0.0013 -0.0136,-0.01355 0,-0.01114 0.003,-0.01741 0.008,-0.0167 z m 0.13385,0.118134 c 0.0112,0 0.0204,0.0092 0.0204,0.02037 0,0.01119 -0.009,0.02024 -0.0204,0.02024 -0.0112,0 -0.0204,-0.0091 -0.0204,-0.02024 0,-0.01119 0.009,-0.02037 0.0204,-0.02037 z m 0.17269,0 c 0.006,0 0.0101,0.0047 0.0101,0.01027 0,0.0056 -0.005,0.01011 -0.0101,0.01011 -0.006,0 -0.0103,-0.0045 -0.0103,-0.01011 0,-0.0056 0.005,-0.01027 0.0103,-0.01027 z m -2.24438,0.02037 c 0.0149,0 0.021,0.0061 0.0136,0.01355 -0.007,0.0074 -0.0196,0.0074 -0.0271,0 -0.007,-0.0075 -10e-4,-0.01355 0.0135,-0.01355 z m 2.10218,0.04074 c 0.006,0 0.0101,0.0045 0.0101,0.01011 0,0.0056 -0.005,0.01027 -0.0101,0.01027 -0.006,0 -0.0101,-0.0047 -0.0101,-0.01027 0,-0.0056 0.005,-0.01011 0.0101,-0.01011 z m 0.0979,0.05182 c 0.0123,-0.0039 0.025,0.0099 0.0387,0.04115 0.0313,0.07159 0.0912,0.16605999 0.14111,0.22286599 0.0612,0.06962 0.19396,0.342244 0.20796,0.426998 0.0428,0.259048 0.016,0.413568 -0.0974,0.562224 -0.0292,0.03835 -0.0534,0.07794 -0.0536,0.08805 -5.3e-4,0.03035 -0.11776,0.19563 -0.2003,0.282479 -0.0425,0.04468 -0.0934,0.106418 -0.11321,0.137137 -0.0198,0.03072 -0.0472,0.05579 -0.0608,0.05579 -0.0136,0 -0.0651,0.03107 -0.11444,0.06905 -0.0493,0.03798 -0.1537,0.08963 -0.23189,0.114712 -0.0782,0.02508 -0.16953,0.05719 -0.20304,0.07137 -0.0335,0.01421 -0.0942,0.032 -0.13481,0.03952 -0.041,0.0076 -0.0791,0.005 -0.0857,-0.0057 -0.0111,-0.01794 0.13206,-0.167081 0.16038,-0.167081 0.0524,0 0.62717,-0.567775 0.68323,-0.674886 0.13247,-0.253137 0.20188,-0.620244 0.16133,-0.853043 -0.0243,-0.139469 -0.0918,-0.29997899 -0.12619,-0.29997899 -0.0126,0 -0.0156,-0.01865 -0.007,-0.04567 0.0119,-0.03944 0.0238,-0.06102 0.0361,-0.06495 z M 5.872265,1.0171387 c 0.32495,-7.93e-4 0.39233,0.02461 0.52407,0.197708 0.1563,0.205382 0.17653,0.398039 0.0565,0.536927 -0.0653,0.07549 -0.13372,0.03733 -0.13372,-0.07465 0,-0.0449 -0.13979,-0.213815 -0.16011,-0.193469 -0.007,0.0067 -0.0121,0.10722 -0.0123,0.223274 -2.7e-4,0.290991 -0.0324,0.314388 -0.42194,0.307774 -0.2295,-0.0039 -0.22952,-0.004 -0.33553,-0.08012 -0.0583,-0.04189 -0.11292,-0.07658 -0.12128,-0.07684 -0.008,-5.29e-4 -0.0402,-0.0405 -0.071,-0.08901 -0.0702,-0.110906 -0.0686,-0.128815 0.0109,-0.115533 0.009,0.0016 0.0346,-0.0072 0.0572,-0.01929 0.0511,-0.02736 0.0436,-0.24037 -0.0104,-0.294374 -0.0462,-0.04623 -0.0426,-0.05543 0.0606,-0.150537 0.15828,-0.145905 0.24013,-0.171072 0.55703,-0.171866 z m 0.73285,0.02898 c 0.03,0 0.0213,0.03513 -0.0119,0.04785 -0.0168,0.0065 -0.0296,0.0096 -0.0289,0.0073 0.0148,-0.04098 0.0253,-0.0551 0.0407,-0.0551 z m -5.17991,0.525034 h 1.4e-4 c 0.12617,0.0021 0.2364,0.06156 0.38899,0.190323 0.10948,0.09239 0.16884,0.248417 0.12592,0.331155 -0.0361,0.06967 -0.036,0.10146 10e-4,0.158192 0.0436,0.06647 0.046,0.268536 0.004,0.315156 -0.0185,0.02043 -0.0335,0.05228 -0.0335,0.07083 0,0.01855 -0.013,0.04977 -0.0288,0.06946 -0.0158,0.01969 -0.0684,0.08534 -0.11677,0.145886 -0.11451,0.143182 -0.25139,0.242207 -0.33717,0.244059 -0.0755,0.0016 -0.0758,-0.04377 -10e-4,-0.177061 0.0205,-0.03664 0.0373,-0.07269 0.0373,-0.08012 0,-0.0298 -0.14716,0.130579 -0.17201,0.187454 -0.0634,0.145034 -0.15598,0.208796 -0.27892,0.192101 -0.0613,-0.0083 -0.13785998,-0.02855 -0.17035998,-0.04498 -0.0325,-0.01643 -0.072,-0.0254 -0.0878,-0.01982 -0.0196,0.007 -0.0247,-1.06e-4 -0.0161,-0.02241 0.007,-0.01794 0.002,-0.03881 -0.01,-0.04649 -0.0147,-0.0091 -0.0168,-0.0045 -0.006,0.01299 0.0122,0.01976 0.007,0.02326 -0.0187,0.01326 -0.0195,-0.0075 -0.0439,-0.01368 -0.0541,-0.01368 -0.0103,0 -0.0187,-0.01418 -0.0187,-0.03158 0,-0.01725 0.009,-0.02604 0.0204,-0.01916 0.0359,0.02217 0.0222,-0.0063 -0.0633,-0.13085 -0.0598,-0.08718 -0.0867,-0.149516 -0.0941,-0.218897 -0.006,-0.05338 -0.0171,-0.106146 -0.0253,-0.117314 -0.0152,-0.02077 -0.0125,-0.05895 0.0113,-0.157509 0.009,-0.03566 0.005,-0.05579 -0.009,-0.05579 -0.0125,0 -0.0227,-0.01373 -0.0227,-0.03049 0,-0.01675 0.0102,-0.02821 0.0227,-0.02543 0.0233,0.0052 0.0276,-0.0056 0.0495,-0.126883 0.007,-0.0391 0.0257,-0.07843 0.0414,-0.08737 0.0157,-0.0089 0.0286,-0.03866 0.0286,-0.06604 0,-0.03106 0.0116,-0.04977 0.0309,-0.04977 0.0181,0 0.0361,-0.02511 0.0432,-0.06057 0.007,-0.03333 0.0191,-0.05621 0.0278,-0.05086 0.009,0.0053 0.0693,-0.02973 0.13481,-0.07794 0.0655,-0.0482 0.13731,-0.09301 0.15956,-0.09967 0.0223,-0.0067 0.10334998,-0.03584 0.18033998,-0.06467 0.0998,-0.03736 0.18122,-0.05672 0.25692,-0.05551 z m 3.37949,0.126474 c 0.0175,-0.0011 0.0353,0.01685 0.0443,0.05442 0.007,0.03072 0.02,0.06499 0.0282,0.07615 0.008,0.01116 0.0261,0.05691 0.0398,0.101589 0.0289,0.0943 0.15799,0.317437 0.19757,0.341408 0.0149,0.009 0.0475,0.03797 0.0725,0.0644 0.0601,0.06352 0.23697,0.15558 0.28876,0.150262 0.0485,-0.005 0.2141,0.03909 0.24652,0.06563 0.0859,0.07032 0.3489,0.118203 0.53078,0.09667 0.0543,-0.0064 0.086,-0.0021 0.0854,0.01148 -10e-4,0.02513 -0.18008,0.167225 -0.23572,0.187042 -0.0207,0.0074 -0.0527,0.02638 -0.0711,0.04211 -0.0717,0.06134 -0.48443,0.04618 -0.48443,-0.01778 0,-0.0094 -0.0221,-0.01709 -0.0491,-0.01709 -0.0282,0 -0.0735,-0.02598 -0.10651,-0.06098 -0.0316,-0.03351 -0.0701,-0.06084 -0.0855,-0.06084 -0.0345,0 -0.38858,-0.363283 -0.38858,-0.398695 0,-0.01405 -0.0166,-0.03749 -0.0369,-0.05209 -0.0203,-0.01461 -0.0489,-0.07 -0.0636,-0.123055 -0.0147,-0.05306 -0.0334,-0.09639 -0.0417,-0.09639 -0.008,0 -0.0208,-0.03573 -0.0278,-0.07944 v -1.38e-4 c -0.007,-0.04371 -0.018,-0.09307 -0.0243,-0.109656 -0.006,-0.01659 -0.003,-0.03536 0.008,-0.04184 0.0105,-0.0065 0.0245,-0.0394 0.0313,-0.07315 0.008,-0.03863 0.025,-0.05891 0.0425,-0.06002 z m -0.0819,0.02257 c 0.002,2.38e-4 0.003,0.0013 0.005,0.0031 0.007,0.0075 0.007,0.01963 0,0.02707 -0.007,0.0074 -0.0135,0.0013 -0.0135,-0.01355 0,-0.01114 0.003,-0.01741 0.008,-0.01667 z m 3.00786,0.199623 c 0.006,0 0.0101,0.0045 0.0101,0.01011 0,0.0056 -0.005,0.01027 -0.0101,0.01027 -0.006,0 -0.0103,-0.0047 -0.0103,-0.01027 0,-0.0056 0.005,-0.01011 0.0103,-0.01011 z m -1.2073,0.06098 c 0.0118,0 0.0159,0.0092 0.009,0.02037 -0.007,0.01119 -0.0167,0.02037 -0.0216,0.02037 -0.005,0 -0.009,-0.0092 -0.009,-0.02037 0,-0.01119 0.01,-0.02037 0.0215,-0.02037 z m -4.28667,0.08122 c 0.0149,0 0.0211,0.0061 0.0137,0.01355 h -1.4e-4 c -0.007,0.0074 -0.0196,0.0074 -0.0271,0 -0.007,-0.0075 -0.001,-0.01355 0.0135,-0.01355 z m -1.86017998,0.08504 c 0.002,2.4e-4 0.003,0.0011 0.005,0.003 0.007,0.0075 0.007,0.01974 0,0.02721 -0.007,0.0074 -0.0136,0.0013 -0.0136,-0.01355 0,-0.01114 0.004,-0.01738 0.008,-0.01667 z M 2.206325,2.5699557 c 0.006,0 0.0101,0.0047 0.0101,0.01027 0,0.0056 -0.005,0.01011 -0.0101,0.01011 -0.006,0 -0.0103,-0.0045 -0.0103,-0.01011 0,-0.0056 0.005,-0.01027 0.0103,-0.01027 z m -0.14219,0.101452 c 0.006,0 0.0101,0.0045 0.0101,0.01011 0,0.0056 -0.005,0.01027 -0.0101,0.01027 -0.006,0 -0.0101,-0.0047 -0.0101,-0.01027 0,-0.0056 0.005,-0.01011 0.0101,-0.01011 z m -0.23244,0.182803 c 0.0118,0 0.0159,0.0091 0.009,0.02024 -0.007,0.01119 -0.0165,0.02037 -0.0215,0.02037 -0.005,0 -0.009,-0.0092 -0.009,-0.02037 0,-0.01119 0.01,-0.02024 0.0215,-0.02024 z m -0.0316,0.08122 c 0.006,0 0.0101,0.0045 0.0101,0.01011 0,0.0056 -0.005,0.01027 -0.0101,0.01027 -0.006,0 -0.0101,-0.0047 -0.0101,-0.01027 0,-0.0056 0.005,-0.01011 0.0101,-0.01011 z m -1.27962998,0.02024 c 0.006,0 0.0103,0.0045 0.0103,0.01011 0,0.0056 -0.005,0.01011 -0.0103,0.01011 -0.006,0 -0.0101,-0.0045 -0.0101,-0.01011 0,-0.0056 0.005,-0.01011 0.0101,-0.01011 z m 0.0591,0.0037 c 0.002,2.4e-4 0.003,0.0011 0.005,0.003 0.007,0.0075 0.007,0.01963 0,0.02707 -0.007,0.0074 -0.0136,0.0013 -0.0136,-0.01355 0,-0.01114 0.003,-0.01725 0.008,-0.01654 z m 0.77373998,0.05715 c 0.006,0 0.0101,0.0047 0.0101,0.01027 0,0.0056 -0.005,0.01011 -0.0101,0.01011 -0.006,0 -0.0103,-0.0045 -0.0103,-0.01011 0,-0.0056 0.005,-0.01027 0.0103,-0.01027 z m 0.30463,0.02037 c 0.006,0 0.0101,0.0045 0.0101,0.01011 0,0.0056 -0.005,0.01011 -0.0101,0.01011 -0.006,0 -0.0101,-0.0045 -0.0101,-0.01011 0,-0.0056 0.005,-0.01011 0.0101,-0.01011 z m -0.20112,0.09325 c 0.0125,0.0018 0.0284,0.0109 0.0472,0.02721 0.0271,0.02355 0.036,0.04345 0.023,0.05155 -0.0117,0.0072 -0.0213,0.0028 -0.0213,-0.01 0,-0.01288 -0.0115,-0.01942 -0.0254,-0.01476 -0.014,0.0047 -0.0254,0.03057 -0.0254,0.05756 0,0.02987 -0.0117,0.04909 -0.0301,0.04909 -0.0166,0 -0.0333,-0.01601 -0.0371,-0.03555 -0.004,-0.01953 0.003,-0.03555 0.0149,-0.03555 0.012,0 0.0219,-0.01767 0.0219,-0.03937 0,-0.03621 0.0115,-0.05323 0.0324,-0.05018 z m 0.22149,0.130299 c 0.006,0 0.0101,0.0045 0.0101,0.01011 0,0.0056 -0.005,0.01011 -0.0101,0.01011 -0.006,0 -0.0103,-0.0045 -0.0103,-0.01011 0,-0.0056 0.005,-0.01011 0.0103,-0.01011 z" />
  </g>
</svg>
