<?xml version="1.0" encoding="UTF-8" standalone="no"?>
<svg
   xmlns:dc="http://purl.org/dc/elements/1.1/"
   xmlns:cc="http://creativecommons.org/ns#"
   xmlns:rdf="http://www.w3.org/1999/02/22-rdf-syntax-ns#"
   xmlns:svg="http://www.w3.org/2000/svg"
   xmlns="http://www.w3.org/2000/svg"
   xmlns:sodipodi="http://sodipodi.sourceforge.net/DTD/sodipodi-0.dtd"
   xmlns:inkscape="http://www.inkscape.org/namespaces/inkscape"
   width="210mm"
   height="297mm"
   viewBox="0 0 210 297"
   version="1.1"
   id="svg3929"
   inkscape:version="1.0.1 (3bc2e813f5, 2020-09-07)"
   sodipodi:docname="constellation-3.svg">
  <defs
     id="defs3923" />
  <sodipodi:namedview
     id="base"
     pagecolor="#ffffff"
     bordercolor="#666666"
     borderopacity="1.0"
     inkscape:pageopacity="0.0"
     inkscape:pageshadow="2"
     inkscape:zoom="0.35"
     inkscape:cx="301.42857"
     inkscape:cy="560"
     inkscape:document-units="mm"
     inkscape:current-layer="layer1"
     inkscape:document-rotation="0"
     showgrid="false"
     inkscape:window-width="3747"
     inkscape:window-height="2126"
     inkscape:window-x="82"
     inkscape:window-y="-11"
     inkscape:window-maximized="1" />
  <metadata
     id="metadata3926">
    <rdf:RDF>
      <cc:Work
         rdf:about="">
        <dc:format>image/svg+xml</dc:format>
        <dc:type
           rdf:resource="http://purl.org/dc/dcmitype/StillImage" />
        <dc:title></dc:title>
      </cc:Work>
    </rdf:RDF>
  </metadata>
  <g
     inkscape:label="Layer 1"
     inkscape:groupmode="layer"
     id="layer1">
    <path
       id="constelation3"
       style="fill:#000000;stroke-width:0.0203101"
       d="m 8.4099558,0 c -0.0576,0.0173 0.0567,0.016 0,0 z m 0.11745,0.58711 c -0.60761,-0.0231 -1.37679,0.36417 -1.44953,1.018 -0.12314,0.66005 -1.07147,0.38681 -1.56032,0.6917 -0.50967,0.11831 -1.28278,-0.11321 -1.5163,0.51853 -0.38131,0.46658 -1.03455,0.60558 -1.37854,1.12148 -0.35341,0.4997 -0.93719,0.77667 -1.5484,0.70344 -0.60889998,-0.1078 -1.18208998,0.41586 -1.05699998,1.03968 0.1391,0.65898 0.50868,1.30928 1.05524998,1.71591 0.66096,0.48491 1.48521,0.15441 2.01081,-0.3583 0.57446,-0.35731 0.71473,-1.14659 0.33365,-1.69824 -0.4929,-0.39242 -0.42786,-0.93021 0.21255,-1.12585 0.64393,-0.32329 1.22483,-0.76333 1.94179,-0.91934 0.60094,-0.237 1.14198,-0.60799 1.74779,-0.83933 0.44954,0.19485 0.95416,0.41367 1.42209,0.26633 -0.28788,0.51887 0.41426,1.25833 0.37889,1.91231 0.0889,0.70121 -1.09261,0.4873 -1.28746,1.18035 -0.53479,0.42596 -0.31305,1.09143 -0.01,1.57835 0.34407,0.76506 1.33726,1.39427 2.13683,0.91105 C 10.616146,7.85803 11.234206,6.97774 10.794456,6.18573 10.396286,5.55016 9.5767658,5.23052 9.4167458,4.43889 c -0.11305,-0.77247 -0.74582,-1.72713 0.0453,-2.33263 0.39477,-0.52858 0.13741,-1.38565 -0.55664,-1.47754 -0.12429,-0.0264 -0.25129,-0.0383 -0.37815,-0.0416 z m 0.0331,0.56892 c 0.93328,0.11229 0.49114,1.03594 -0.23732,0.94961 -0.7624,-0.0789 -0.33959,-1.00947 0.23732,-0.94961 z m -0.29779,1.62678 c -0.18793,0.0151 0.13886,0.0394 0,0 z m -4.88978,0.77142 c 0.0562,0.0159 -0.0562,0.016 0,0 z m 0.96475,0.20317 c 0.0399,0.0247 -0.04,0.0241 0,0 z m -1.38628,0.1046 c 8e-4,0.14806 -0.20053,0.0444 0,0 z m -0.15737,0.11881 c 0.04,0.0241 -0.0399,0.0247 0,0 z m -0.67612,0.65083 c -0.007,0.1358 -0.1986,-0.007 0,0 z M 0.86057582,4.83591 c -0.33503,0.47729 -0.34583,1.31255 -0.3222,1.69274 -0.43376,-0.50189 -0.59207,-1.63614 0.3222,-1.69274 z M 1.6075158,4.97769 c 0.63042,0.152 1.49914,0.61975 1.32112,1.39433 -0.31977,0.96048 -1.81006,0.60941 -1.79226,-0.37018 -0.02,-0.36007 -0.01,-0.9774 0.47114,-1.02415 z m 1.22535,0.12374 c 0.042,0.038 -0.0417,0.0403 0,0 z m 6.3589,0.36192 c 0.0397,0.0245 -0.0396,0.0246 0,0 z m -0.11566,0.004 c -0.003,0.0792 -0.0756,0.003 0,0 z m -8.54545998,0.0368 c -0.0782,0.0376 0.047,0.0423 0,0 z M 8.8956258,5.73371 c 0.11086,0.4567 0.66155,-0.19806 0.87868,0.23915 0.3666502,0.43525 0.19087,1.4239 -0.46217,1.49706 -0.66509,0.11391 -1.02234,-0.62496 -0.91031,-1.18978 0.0273,-0.3017 0.13498,-0.58622 0.4938,-0.54643 z m 1.4367202,0.29848 c 0.35719,0.18755 0.22851,1.05908 0.15225,0.28681 -0.0275,-0.10713 -0.10103,-0.1915 -0.15225,-0.28681 z m -2.3612802,0.0938 c 0.15396,0.28591 -0.008,1.09427 -0.0756,0.372 -0.015,-0.12533 -0.0202,-0.27292 0.0756,-0.372 z M 0.79329582,6.51211 C 0.94925582,6.84859 2.2182058,7.42834 1.3221658,7.23417 1.0601558,7.14017 0.64976582,6.80695 0.79329582,6.51211 Z M 2.0831858,6.92585 c -0.0399,0.0247 0.04,0.0241 0,0 z m 5.93054,0.0406 c 0.04,0.0241 -0.0399,0.0247 0,0 z m 2.3340702,0.2561 c 0.0356,0.32577 -0.5007002,0.49567 -0.0628,0.10247 z m -8.4777702,0.0485 c 0.0847,0.0476 -0.0717,0.0254 0,0 z m 8.1544202,0.36561 c 0.0397,0.0245 -0.0397,0.0244 0,0 z m -0.0609,0.0202 c 0.0401,0.0249 -0.0402,0.0244 0,0 z m -1.52752,0.14644 c 0.10471,0.0177 -0.0144,0.0543 0,0 z m 0.0645,0.0163 c 0.16158,0.19043 1.1562,0.23802 0.40588,0.26155 -0.15854,-0.0375 -0.32269,-0.11171 -0.40588,-0.26155 z" />
  </g>
</svg>
