<?xml version="1.0" encoding="UTF-8" standalone="no"?>
<svg
   xmlns:dc="http://purl.org/dc/elements/1.1/"
   xmlns:cc="http://creativecommons.org/ns#"
   xmlns:rdf="http://www.w3.org/1999/02/22-rdf-syntax-ns#"
   xmlns:svg="http://www.w3.org/2000/svg"
   xmlns="http://www.w3.org/2000/svg"
   xmlns:sodipodi="http://sodipodi.sourceforge.net/DTD/sodipodi-0.dtd"
   xmlns:inkscape="http://www.inkscape.org/namespaces/inkscape"
   width="210mm"
   height="297mm"
   viewBox="0 0 210 297"
   version="1.1"
   id="svg2761"
   inkscape:version="1.0.1 (3bc2e813f5, 2020-09-07)"
   sodipodi:docname="constellation-1.svg">
  <defs
     id="defs2755" />
  <sodipodi:namedview
     id="base"
     pagecolor="#ffffff"
     bordercolor="#666666"
     borderopacity="1.0"
     inkscape:pageopacity="0.0"
     inkscape:pageshadow="2"
     inkscape:zoom="0.35"
     inkscape:cx="301.42857"
     inkscape:cy="560"
     inkscape:document-units="mm"
     inkscape:current-layer="layer1"
     inkscape:document-rotation="0"
     showgrid="false"
     inkscape:window-width="3747"
     inkscape:window-height="2126"
     inkscape:window-x="82"
     inkscape:window-y="-11"
     inkscape:window-maximized="1" />
  <metadata
     id="metadata2758">
    <rdf:RDF>
      <cc:Work
         rdf:about="">
        <dc:format>image/svg+xml</dc:format>
        <dc:type
           rdf:resource="http://purl.org/dc/dcmitype/StillImage" />
        <dc:title></dc:title>
      </cc:Work>
    </rdf:RDF>
  </metadata>
  <g
     inkscape:label="Layer 1"
     inkscape:groupmode="layer"
     id="layer1">
    <path
       id="constelation2"
       style="fill:#000000;stroke-width:0.0203101"
       d="m 1.5261729,0 c -0.0489,0.20618 0.19602,0.20189 0,0 z m -0.35207,1.5092 C 0.61328289,1.4491 -0.00609711,2.02228 0.32530289,2.58465 c 0.20998,0.59877 0.84166001,0.50772 1.29896001,0.31198 0.51269,-0.0437 0.91554,0.51879 0.63742,0.98052 -0.2659,0.55089 0.424,0.82834 0.49123,1.30249 -0.18504,0.54375 -0.31906,1.12289 -0.5792,1.64816 -0.42179,0.35766 -1.17344,0.27702 -1.55512001,0.77154 -0.70875,0.75353 -0.78725,1.96939 -0.34391,2.87473 0.35521,0.5606 1.20708001,0.69287 1.70760001,0.24976 0.52118,-0.19655 0.8867,-1.02975 1.46292,-0.87699 0.37892,0.41604 0.81243,0.7541 1.33858,0.96619 0.58495,0.35237 -0.35527,0.97094 0.0154,1.50256 0.2038,0.60274 0.94134,0.86731 1.49753,0.56755 0.88692,-0.22733 1.20151,-1.58009 0.42926,-2.12058 -0.4793,-0.49595 -1.00801,0.0747 -1.53422,0.0106 -0.41425,-0.22719 -0.83569,-0.46164 -1.25592,-0.69201 -0.35656,-0.22168 -0.64736,-0.59903 -0.32499,-0.99127 0.007,-0.52542 -0.18776,-1.12305 -0.57423,-1.48082 -0.35154,-0.30922 -0.92384,-0.61168 -0.53206,-1.13364 0.27541,-0.49945 0.18925,-1.40816 0.93626,-1.44905 0.658,-0.0628 1.03394,-0.7156 1.33644,-1.23016 0.40301,-0.70433 -0.3472,-1.31022 -1.0293,-1.18446 -0.56072,-0.12273 -1.20644,0.78755 -1.60509,0.0775 -0.0924,-0.55932 -0.20146,-1.28979 -0.9688,-1.18 z m 0.018,0.29957 c 0.37451,0.14475 0.69175,0.578 0.23046,0.79628 -0.39373,0.44681 -1.34611001,-0.27713 -0.63558001,-0.52531 0.0729,-0.16462 0.21281,-0.29557 0.40512001,-0.27097 z m 2.80168,1.13592 c 0.60801,0.0149 0.49248,0.81238 0.22763,1.14999 -0.26986,0.4379 -0.94157,0.90065 -1.41643,0.50056 -0.51413,-0.52501 -0.14774,-1.57559 0.61194,-1.60097 0.2018,0.003 0.38494,0.0208 0.57686,-0.0496 z M 0.92371289,7.68516 c -0.19884,0.48624 -0.56057,0.98387 -0.36496,1.52797 -0.24267,0.14506 -0.30213,-0.69238 -0.14659,-0.9111 0.10293,-0.25124 0.28739,-0.46547 0.51155,-0.61687 z m 1.14646001,0.0628 c 0.44786,0.0939 0.98724,0.53568 0.54407,0.98826 -0.21525,0.45441 -0.86916,0.66649 -1.26485,0.3255 -0.38111001,-0.33324 -0.26908,-1.15134 0.29896,-1.18792 0.14362,-0.0269 0.29943,-0.0371 0.42182,-0.12584 z m 1.33227,0.87109 c 0.35386,0.22815 -0.19438,1.14682 -0.2584,0.57166 0.0988,-0.18477 0.15352,-0.38984 0.2584,-0.57166 z M 0.69715289,9.02732 c 0.23389,0.14471 0.38173001,0.7442 0.0658,0.26307 -0.0399,-0.076 -0.11411,-0.17367 -0.0658,-0.26307 z m -0.44135,0.21425 c 0.49758,0.46589 1.18536001,0.80899 1.88001001,0.67225 -0.21052,0.32011 -1.00022,0.5499 -1.40367001,0.19955 -0.22966,-0.22013 -0.5393,-0.52317 -0.47634,-0.8718 z M 2.8082229,9.36299 c 0.0798,0.0493 -0.08,0.0488 0,0 z m -0.0267,0.0495 c -0.03,0.27037 -0.38829,0.18936 0,0 z m 0.27017,0.0432 c 0.11051,0.48827 -0.6474,0.61171 -0.88324,0.95992 -0.40962,0.36456 -1.09274,0.69591 -1.56181001,0.24147 -0.18939,-0.11712 -0.5891,-0.82811 -0.27303,-0.77632 0.28955,0.40147 0.79868001,0.69575 1.29788001,0.50139 0.57798,-0.14645 0.95401,-0.59781 1.4202,-0.92646 z m -1.76679,0.0291 c 0.0562,0.016 -0.0562,0.016 0,0 z m 0.88517,0.20468 c 0.0766,0.0173 -0.0974,0.0162 0,0 z m -0.1102,0.028 c 0.014,0.19025 -0.27149,-0.0261 0,0 z m 3.9774,1.18351 c 0.65682,-0.10766 1.13039,0.75821 0.70344,1.26515 -0.29193,0.49578 -1.12916,0.83114 -1.53662,0.2907 -0.44943,-0.62285 0.0636,-1.60086 0.83318,-1.55585 z m 0.29465,1.69118 c 0.0396,0.0245 -0.0397,0.0245 0,0 z" />
  </g>
</svg>
