<?xml version="1.0" encoding="UTF-8" standalone="no"?>
<svg
   xmlns:dc="http://purl.org/dc/elements/1.1/"
   xmlns:cc="http://creativecommons.org/ns#"
   xmlns:rdf="http://www.w3.org/1999/02/22-rdf-syntax-ns#"
   xmlns:svg="http://www.w3.org/2000/svg"
   xmlns="http://www.w3.org/2000/svg"
   xmlns:sodipodi="http://sodipodi.sourceforge.net/DTD/sodipodi-0.dtd"
   xmlns:inkscape="http://www.inkscape.org/namespaces/inkscape"
   width="210mm"
   height="297mm"
   viewBox="0 0 210 297"
   version="1.1"
   id="svg3345"
   inkscape:version="1.0.1 (3bc2e813f5, 2020-09-07)"
   sodipodi:docname="constellation-2.svg">
  <defs
     id="defs3339" />
  <sodipodi:namedview
     id="base"
     pagecolor="#ffffff"
     bordercolor="#666666"
     borderopacity="1.0"
     inkscape:pageopacity="0.0"
     inkscape:pageshadow="2"
     inkscape:zoom="0.35"
     inkscape:cx="301.42857"
     inkscape:cy="560"
     inkscape:document-units="mm"
     inkscape:current-layer="layer1"
     inkscape:document-rotation="0"
     showgrid="false"
     inkscape:window-width="3747"
     inkscape:window-height="2126"
     inkscape:window-x="82"
     inkscape:window-y="-11"
     inkscape:window-maximized="1" />
  <metadata
     id="metadata3342">
    <rdf:RDF>
      <cc:Work
         rdf:about="">
        <dc:format>image/svg+xml</dc:format>
        <dc:type
           rdf:resource="http://purl.org/dc/dcmitype/StillImage" />
        <dc:title></dc:title>
      </cc:Work>
    </rdf:RDF>
  </metadata>
  <g
     inkscape:label="Layer 1"
     inkscape:groupmode="layer"
     id="layer1">
    <path
       id="constelation5"
       style="fill:#000000;stroke-width:0.0203101"
       d="M 2.2956844,6.2011531e-4 C 1.0005444,-0.03387988 -0.58929565,1.3773201 0.21992435,2.6963801 c 0.68041,1.49151 2.25184005,0.31999 3.15454005,0.009 1.01051,0.807 2.80006,1.21452 3.31443,2.17503 -0.3965,1.09506 0.91182,1.44381 1.18921,2.14692 -0.4433,1.03034 -0.8773,2.06931 -1.48781,3.0141999 -0.40014,1.12061 -1.93267,0.61354 -2.48179,1.65419 -0.66997,0.7059 -0.81367,1.93551 0.10437,2.51125 0.84132,0.34623 2.0107,0.69956 2.75407,-0.0273 0.78723,0.53996 1.78026,1.47381 2.23029,2.16276 -1.09257,1.37458 1.0888796,2.34241 2.2269596,1.88024 1.20854,-0.13995 1.49065,-1.85224 0.26609,-2.20791 -0.97525,-0.32387 -2.1723896,0.37075 -2.8690896,-0.68579 -0.94414,-0.71523 -2.07984,-1.66192 -1.58627,-3.00103 0.0977,-1.05478 -1.41074,-1.52181 -0.24154,-2.4782999 0.62863,-0.95605 0.94187,-2.06843 1.48604,-3.06579 1.60353,0.41857 2.3472496,-1.7958 0.99541,-2.57206 -1.10041,-1.12046 -2.38414,0.72318 -3.48023,-0.45013 -1.14238,-0.63793 -2.7751,-1.03954 -2.49583,-2.68966 -0.17812,-0.44656998 -0.42341,-1.08393998 -1.00309,-1.07159998469 z M 2.1161544,0.26122012 c 0.49163,0.0852 0.24987,0.35116 0,0 z m 0.37737,0.22396 0.0772,0.0759 z m -0.63592,0.0727 c 1.158,0.1579 0.92155,2.05272998 -0.22849,1.97867998 -1.40634005,-0.153 -1.01099005,-2.01281998 0.22849,-1.97867998 z m 1.0878,0.65929998 0.003,0.03 z m -2.70378005,0.43698 c -0.23441,0.86453 1.06925005,1.35341 1.27515005,1.53183 -0.78681005,0.17746 -1.53854005,-0.80073 -1.27515005,-1.53183 z m 0.18896,0.13864 c 0.15115,0.224 -0.0641,0.32788 0,0 z m 2.77912005,0.2215 c 0.0675,0.0956 -0.15539,0.25088 0,0 z m -2.72662005,0.0522 c 0.16111,0.12302 -0.10618,0.18552 0,0 z m 2.53164005,0.42016 c -0.0755,0.17994 -0.23537,0.18641 0,0 z m -0.6057,0.25008 c 0.0798,0.0489 -0.0798,0.0489 0,0 z m -0.087,0.0425 c -0.0265,0.13715 -0.14423,-0.0126 0,0 z m -0.10282,0.0604 c -0.15867,0.23584 -0.28871,-0.0183 0,0 z m 6.2602,1.44493 c 0.89915,0.10838 1.7832396,1.47425 0.72203,2.01314 -0.90897,0.5374 -2.49454,-0.17115 -2.1651,-1.35261 0.16761,-0.67134 0.92606,-0.56658 1.44307,-0.66053 z m 1.04828,0.95026 v 0.0196 z m -0.0406,0.0812 v 0.0195 z m 0.12182,0.38598 v 0.0194 z m -0.0202,0.12183 -8e-5,0.0195 z m -3.45277,4.2650699 v 0.0196 z m -0.545,1.33992 c 1.23349,0.21412 0.95715,2.4726 -0.36713,2.43295 -1.0785,0.26522 -1.80978,-1.17681 -1.00396,-1.91408 0.35571,-0.36812 0.88075,-0.48013 1.37109,-0.51887 z m 0.7665,1.52752 0.003,0.03 z m -0.0387,0.0775 v 0.0195 z m 0.20701,0.86289 c -0.34815,0.53157 -0.41501,0.17185 0,0 z m -0.43042,0.33484 v 0.0195 z m 1.9701,1.1105 -8e-5,0.0196 z m 0.066,0.0288 c -0.0131,0.13755 0.10826,0.0279 0,0 z m 0.0964,0.0524 v 0.0195 z m 0.42658,0.44684 -2.5e-4,0.0195 z m 1.7872996,0.0204 -1.7e-4,0.0194 z m 0.38338,0.41605 c 0.62316,10e-4 0.95889,0.38998 0.11678,0.20761 -0.62302,0.3213 1.22809,-0.1757 0.77581,0.72036 -0.37883,1.09987 -3.1549196,0.494 -1.8756396,-0.72183 0.2708096,-0.23259 0.6514496,-0.2002 0.9830496,-0.20614 z m -0.31324,0.0131 c -0.14731,0.0306 0.0539,0.0436 0,0 z m 0.33594,0.0177 9e-5,0.0196 z m 0.0406,0.24365 9e-5,0.0194 z m -0.0406,0.0204 9e-5,0.0195 z m -0.20304,0.0204 v 0.0194 z m -0.0212,0.0599 c -0.35742,0.0256 0.0341,0.25788 0,0 z m 0.10241,0.0213 -1.8e-4,0.0194 z m -0.30696,0.0882 c -0.0986,0.0222 0.0609,0.0586 0,0 z m 0.0614,0.017 0.003,0.0301 z m 1.05786,1.31655 1.8e-4,0.0194 z m -0.64986,0.22341 9e-5,0.0194 z m 0.061,0 v 0.0194 z" />
  </g>
</svg>
