<?xml version="1.0" encoding="UTF-8" standalone="no"?>
<svg
   xmlns:dc="http://purl.org/dc/elements/1.1/"
   xmlns:cc="http://creativecommons.org/ns#"
   xmlns:rdf="http://www.w3.org/1999/02/22-rdf-syntax-ns#"
   xmlns:svg="http://www.w3.org/2000/svg"
   xmlns="http://www.w3.org/2000/svg"
   xmlns:sodipodi="http://sodipodi.sourceforge.net/DTD/sodipodi-0.dtd"
   xmlns:inkscape="http://www.inkscape.org/namespaces/inkscape"
   width="39.766296mm"
   height="45.7915mm"
   viewBox="0 0 39.766297 45.791501"
   version="1.1"
   id="svg1492"
   inkscape:version="1.0.1 (3bc2e813f5, 2020-09-07)"
   sodipodi:docname="diamond.svg">
  <defs
     id="defs1486">
    <inkscape:path-effect
       effect="spiro"
       id="path-effect863"
       is_visible="true"
       lpeversion="1" />
    <inkscape:path-effect
       effect="spiro"
       id="path-effect859"
       is_visible="true"
       lpeversion="1" />
    <inkscape:path-effect
       effect="spiro"
       id="path-effect855"
       is_visible="true"
       lpeversion="1" />
    <inkscape:path-effect
       effect="spiro"
       id="path-effect851"
       is_visible="true"
       lpeversion="1" />
  </defs>
  <sodipodi:namedview
     id="base"
     pagecolor="#ffffff"
     bordercolor="#666666"
     borderopacity="1.0"
     inkscape:pageopacity="0.0"
     inkscape:pageshadow="2"
     inkscape:zoom="40.327536"
     inkscape:cx="58.576874"
     inkscape:cy="89.468473"
     inkscape:document-units="mm"
     inkscape:current-layer="layer1"
     inkscape:document-rotation="0"
     showgrid="false"
     fit-margin-top="0"
     fit-margin-left="0"
     fit-margin-right="0"
     fit-margin-bottom="0"
     inkscape:window-width="3747"
     inkscape:window-height="2126"
     inkscape:window-x="82"
     inkscape:window-y="-11"
     inkscape:window-maximized="1" />
  <metadata
     id="metadata1489">
    <rdf:RDF>
      <cc:Work
         rdf:about="">
        <dc:format>image/svg+xml</dc:format>
        <dc:type
           rdf:resource="http://purl.org/dc/dcmitype/StillImage" />
        <dc:title />
      </cc:Work>
    </rdf:RDF>
  </metadata>
  <g
     inkscape:groupmode="layer"
     id="layer1"
     inkscape:label="Layer 1">
    <path
       id="diamond_corner_contact"
       style="fill:#000000;stroke-width:0.0203101"
       d="m 27.429522,21.218757 c -0.322685,0.0011 -0.688276,0.02432 -0.93128,0.263575 -0.161769,0.22348 -0.301427,0.464378 -0.403389,0.721003 -0.118795,0.15422 0.03582,0.306842 0.05171,0.467876 0.0775,0.293677 0.167246,0.637931 0.460777,0.787175 0.175337,0.09192 0.375618,0.101647 0.566769,0.124492 0.32081,0.003 0.678416,-0.134956 0.81412,-0.44603 0.07304,-0.138178 0.231566,-0.232637 0.23244,-0.404021 0.04389,-0.211122 0.166632,-0.411459 0.127981,-0.633524 0.0062,-0.203644 -0.101626,-0.387464 -0.25318,-0.517472 -0.130265,-0.106137 -0.238392,-0.178435 -0.362513,-0.291724 -0.08639,-0.06886 -0.199594,-0.06295 -0.303438,-0.07135 z m -0.221223,0.516694 c 0.171617,0.0026 0.351031,0.02647 0.508863,0.09342 0.148396,0.08515 0.132,0.270606 0.103735,0.413925 -0.03382,0.166145 -0.125601,0.309872 -0.210783,0.452903 -0.114501,0.14251 -0.273143,0.277754 -0.468614,0.259607 -0.150429,0.02902 -0.277366,-0.05245 -0.412152,-0.09699 -0.15816,-0.0591 -0.233858,-0.229367 -0.292672,-0.375274 -0.05137,-0.186695 0.03817,-0.396327 0.17017,-0.52133 0.06591,-0.156543 0.230923,-0.125039 0.354046,-0.164409 0.07651,-0.03798 0.159391,-0.07788 0.247407,-0.06186 z m -0.174739,1.274434 c 0.04441,0.02641 -0.0434,0.02421 0,0 z m 0.03637,0.0042 c 0.07686,0.01728 0.01749,0.06665 0,0 z" />
    <path
       id="diamond_corner_etsy"
       style="fill:#000000;stroke-width:0.0203101"
       d="m 19.097805,6.9206481 c -0.33777,-0.00974 -0.685795,0.1228487 -0.896527,0.3924009 -0.192368,0.2664751 -0.149633,0.6115923 -0.185682,0.9205384 -0.02278,0.2017236 0.02847,0.4049315 0.07566,0.5982917 0.109106,0.1547944 0.196686,0.3280198 0.350991,0.4432114 0.179458,0.1637771 0.403111,0.2637711 0.642413,0.2969551 0.200656,0.036521 0.404513,0.068429 0.608239,0.075898 0.268899,-0.043624 0.498753,-0.2109073 0.760828,-0.2781697 C 20.689129,9.2603608 20.914819,9.0920831 21.023044,8.8501005 21.098314,8.5858347 21.152089,8.284588 21.009284,8.032247 20.942183,7.8548813 20.81572,7.7053573 20.75577,7.5262318 20.679523,7.3482968 20.49782,7.286887 20.354054,7.1819559 20.148578,7.0474894 19.910247,6.948059 19.660745,6.9545254 c -0.188048,-0.0054 -0.375002,-0.028062 -0.562951,-0.033877 z m 0.264839,0.336349 c 0.228058,5.291e-4 0.454041,0.066167 0.659193,0.1656794 0.181296,0.025903 0.2989,0.1534081 0.405226,0.2899119 0.08722,0.1398508 0.211097,0.3294909 0.168425,0.5130615 0.0068,0.1933839 -0.09476,0.3710675 -0.259913,0.4705985 -0.217845,0.172921 -0.476083,0.3052868 -0.759814,0.3090439 -0.316196,0.041643 -0.65202,0.00945 -0.926001,-0.1663383 C 18.464276,8.74463 18.498418,8.5119105 18.478,8.3409606 18.39252,8.1093179 18.45416,7.8302909 18.61171,7.6457282 c 0.175871,-0.1823747 0.405307,-0.2986167 0.647736,-0.3582855 0.03345,-0.012965 0.06757,-0.025056 0.103198,-0.030446 z m -0.426042,1.985555 c 0.07341,0.018733 -0.0056,0.047265 0,0 z m 0.512452,0.034592 c 0.325028,0.028202 -0.329545,0.1828853 -0.229904,0.025903 0.07425,-0.023257 0.152842,-0.024633 0.229904,-0.025903 z" />
    <path
       id="diamond_edge_etsy_about"
       style="fill:#000000;stroke-width:0.0203101"
       d="m 18.446602,8.8465052 c -0.449064,0.2558627 -0.634622,0.8098552 -1.015638,1.1567588 -1.177702,1.249226 -2.048065,2.741674 -3.020414,4.14771 -0.81316,0.955506 -1.263729,2.171054 -2.167745,3.059192 -0.278608,0.442828 -0.472064,0.956294 -0.778457,1.393507 -0.615958,1.00492 -1.278694,1.986902 -2.0161828,2.904046 -0.4909899,0.543692 -0.9733253,1.159655 -1.1370495,1.880605 0.2003954,0.42436 0.2966535,-0.620816 0.5354558,-0.73053 0.8127365,-0.933196 1.4726545,-1.98155 2.2082545,-2.974264 0.532191,-0.793747 1.11238,-1.557072 1.691127,-2.313704 0.622165,-0.989923 1.126363,-2.049547 1.772444,-3.022923 0.724686,-0.892437 1.280033,-1.902103 2.008796,-2.790375 0.586891,-0.80246 1.214734,-1.5749735 1.915057,-2.2814375 0.02691,-0.1214146 0.251499,-0.3860985 0.0043,-0.4285853 z m -5.355471,7.6401808 c 0.03973,0.02442 -0.03974,0.02442 0,0 z m 0.04061,0.121825 c 0.03993,0.02463 -0.03993,0.02463 0,0 z m -0.534466,0.592984 c -0.01855,0.245767 -0.635222,0.826265 -0.265636,0.263761 0.06706,-0.106027 0.153233,-0.204362 0.265636,-0.263761 z m -0.586285,0.711118 c 0.104003,0.01757 -0.01373,0.05441 0,0 z" />
    <path
       id="diamond_corner_about"
       style="fill:#000000;stroke-width:0.0203101"
       d="m 7.96217,22.89967 c -0.2052902,-0.0074 -0.3830373,0.110784 -0.5742305,0.156433 -0.1566307,0.07965 -0.2706476,0.223689 -0.3863049,0.352372 -0.1456028,0.153889 -0.097978,0.382267 -0.060682,0.569124 0.038791,0.175035 0.109265,0.343043 0.1796203,0.506423 0.1323684,0.168566 0.3446542,0.249222 0.539877,0.320728 0.3069114,0.08755 0.6693721,0.0648 0.9303888,-0.131776 0.1029891,-0.103066 0.183298,-0.226256 0.2768044,-0.337868 0.1287648,-0.197731 0.100674,-0.448283 0.082153,-0.672009 C 8.9444515,23.478775 8.8610125,23.284473 8.6844507,23.204981 8.517078,23.130101 8.3543989,23.047115 8.2035494,22.944054 8.1278574,22.910966 8.0444369,22.89794 7.96217,22.89967 Z m 0.030628,0.300525 c 0.1176496,0.02994 0.249846,0.08531 0.3183175,0.188129 0.017542,0.133268 0.1199012,0.202361 0.2282957,0.26093 0.1099715,0.08545 0.065302,0.244313 0.045858,0.361195 -0.069493,0.196917 -0.3051334,0.226426 -0.4786603,0.279779 -0.1595596,0.0728 -0.3630586,0.09842 -0.5070951,-0.0223 -0.1176946,-0.05196 -0.1733709,-0.168013 -0.223311,-0.278233 -0.082865,-0.123179 -0.08872,-0.270661 -0.066937,-0.412895 0.039275,-0.116774 0.1607503,-0.189701 0.2638822,-0.24909 0.1362102,-0.08492 0.2400089,0.03202 0.3206909,0.11805 0.2170112,0.02019 0.01569,-0.195398 0.09896,-0.245558 z" />
    <path
       id="diamond_corner_instagram"
       style="fill:#000000;stroke-width:0.0305485"
       d="m 18.87533,36.665407 c -0.141475,0.01037 -0.12251,0.352303 -0.314841,0.198599 -0.431403,-0.165055 -0.915058,-0.0447 -1.29415,0.227703 -0.204467,0.138633 -0.353133,0.361227 -0.434727,0.617159 -0.06607,0.177924 -0.06431,0.380187 -0.108181,0.565536 -0.02811,0.189667 0.03431,0.364974 0.07237,0.541467 0.07875,0.251939 0.313774,0.364615 0.499668,0.489374 0.371026,0.210978 0.819341,0.239233 1.208929,0.08262 0.171028,-0.08606 0.316061,-0.226428 0.476275,-0.33568 0.205117,-0.212791 0.405366,-0.436033 0.581343,-0.682426 0.13593,-0.419566 0.0019,-0.885029 -0.213746,-1.234454 -0.179365,-0.10447 -0.319116,-0.285027 -0.431471,-0.461859 l -0.04148,-0.008 z m -0.809402,0.552899 c 0.288214,0.0021 0.542425,0.180587 0.801248,0.300805 0.209205,0.184179 0.331794,0.568712 0.157323,0.833422 -0.223694,0.358852 -0.56041,0.711517 -0.967091,0.684908 -0.213711,-0.01572 -0.392946,-0.163261 -0.560189,-0.302273 -0.154516,-0.06654 -0.244545,-0.222353 -0.310088,-0.387157 -0.07596,-0.211248 0.06874,-0.425124 0.17584,-0.58661 0.160104,-0.187383 0.299781,-0.434258 0.532871,-0.50083 0.05242,-0.0295 0.110548,-0.05868 0.170086,-0.04228 z" />
    <path
       id="diamond_edge_about_instagram"
       style="fill:#000000;stroke-width:0.0231614"
       d="m 8.6249425,24.672974 c -0.4979445,0.556128 0.499628,0.932656 0.6804432,1.429038 0.4923261,0.83348 1.2380123,1.57447 1.6344293,2.438983 0.837541,1.777775 2.045288,3.44048 3.187043,5.118073 0.558693,0.860745 1.129369,1.717831 1.6583,2.586704 0.391393,0.475732 0.754984,0.971487 1.172643,1.410624 0.736517,-0.0075 -0.04692,-0.669116 -0.208226,-0.924071 -0.429123,-0.409525 -0.620151,-0.906021 -1.006928,-1.330822 -0.659083,-0.871241 -1.224755,-1.779389 -1.873923,-2.655721 -0.574486,-0.906928 -1.149841,-1.815079 -1.76109,-2.709026 -0.371962,-0.789393 -0.82664,-1.554827 -1.25926,-2.327252 -0.820439,-0.980762 -1.3977868,-2.059492 -2.2234315,-3.03653 z m 2.0273025,3.04093 c 0.05325,0.0244 -0.05344,0.02381 0,0 z" />
    <path
       id="diamond_edge_contact_etsy"
       style="fill:#000000;stroke-width:0.0203101"
       d="m 20.335575,8.6962484 c -0.37475,0.5682085 0.376018,0.9529153 0.512098,1.4600816 0.370523,0.851587 0.931723,1.608674 1.230064,2.491967 0.63033,1.816396 1.539275,3.515222 2.398554,5.229259 0.42047,0.879443 0.849958,1.755148 1.248029,2.642896 0.294561,0.486067 0.568198,0.992588 0.882526,1.441265 0.554299,-0.0076 -0.03531,-0.683651 -0.156711,-0.944144 -0.322955,-0.41842 -0.466722,-0.925703 -0.757809,-1.359731 -0.496022,-0.890167 -0.921744,-1.818045 -1.410305,-2.713413 -0.432356,-0.926632 -0.865365,-1.85451 -1.325388,-2.767878 -0.279937,-0.806542 -0.622126,-1.588606 -0.947714,-2.377808 -0.617458,-1.002069 -1.051967,-2.1042323 -1.673344,-3.1024946 z m 1.525738,3.1069876 c 0.04008,0.02495 -0.04022,0.02431 0,0 z" />
    <path
       id="diamond_edge_instagram_contact"
       style="fill:#000000;stroke-width:0.0219386"
       d="m 18.867176,37.519111 c 0.701142,0.0076 0.614657,-0.943176 0.977578,-1.384212 0.53003,-0.875705 0.871744,-1.874811 1.469544,-2.701304 1.219909,-1.715603 2.18241,-3.624117 3.185816,-5.494713 0.526238,-0.940345 1.044199,-1.886976 1.590138,-2.811108 0.256117,-0.578884 0.541623,-1.150429 0.75434,-1.72516 -0.316296,-0.522777 -0.571963,0.453557 -0.729594,0.729097 -0.181708,0.564353 -0.540432,1.012777 -0.753451,1.556393 -0.493308,1.018828 -1.058529,1.993926 -1.560504,3.008849 -0.560438,0.980647 -1.12159,1.962679 -1.655086,2.961503 -0.541657,0.761833 -1.027345,1.567867 -1.52849,2.362488 -0.522311,1.203132 -1.233463,2.293649 -1.750291,3.498167 z m 1.836646,-3.360462 c -7.94e-4,-0.05346 0.04352,0.02334 0,0 z" />
    <path
       id="centre_dot1"
       style="fill:#000000;stroke-width:0.0203101"
       d="m 18.443215,24.999 c -0.03231,-0.0016 -0.06505,-0.0011 -0.09817,0.0019 -0.330769,-0.01823 -0.682649,0.149807 -0.767451,0.49331 -0.197059,0.532675 0.01233,1.257059 0.557165,1.488141 0.524412,0.114432 1.041702,-0.302837 1.235329,-0.766085 0.140081,-0.34648 0.0385,-0.789376 -0.313925,-0.960916 -0.181049,-0.132885 -0.386818,-0.245245 -0.612947,-0.256228 z m 0.07,0.319804 c 0.118372,-0.0055 0.364048,0.170537 0.105143,0.105418 0.181906,0.30049 0.71764,0.630912 0.270036,1.015609 -0.22901,0.298106 -0.743196,0.247036 -0.858919,-0.127157 -0.123113,-0.3675 -0.01918,-0.967356 0.461864,-0.990179 0.0066,-0.0021 0.014,-0.0033 0.02188,-0.0037 z m -0.353031,0.0804 c 0.04138,0.02976 -0.0385,0.04 0,0 z m 1.139349,0.280564 c 0.04007,0.02492 -0.04022,0.02434 0,0 z m -1.482669,0.101862 c 0.03954,0.02421 -0.03954,0.02421 0,0 z" />
    <path
       id="centre_dot2"
       style="fill:#000000;stroke-width:0.0203101"
       d="m 18.495793,22.026414 c -0.01188,-2.65e-4 -0.02397,7.94e-4 -0.03596,0.0035 -0.437091,-0.01865 -0.665485,0.55185 -0.480459,0.896247 0.187031,0.3014 0.655822,0.450173 0.876286,0.09694 0.270233,-0.264885 0.219128,-0.807418 -0.228335,-0.83062 0.02588,-0.08959 -0.04829,-0.163713 -0.131532,-0.166121 z m -0.187042,0.333613 c 0.165732,0.155811 0.698291,0.161015 0.389673,0.490987 -0.36218,0.297397 -0.685538,-0.203089 -0.389673,-0.490987 z m 0.571108,0.193469 c 0.03994,0.02461 -0.03993,0.02466 0,0 z m 0.08122,0.02037 c 0.03973,0.02442 -0.03973,0.02442 0,0 z m -0.487432,0.446688 c 0.03938,0.02442 -0.03938,0.02442 0,0 z" />
    <path
       id="centre_dot3"
       style="fill:#000000;stroke-width:0.0203101"
       d="m 18.390518,19.61099 c -0.451173,0.05961 -0.603679,0.618591 -0.490988,0.999612 0.01633,0.34235 0.405144,0.470908 0.678167,0.319532 0.293383,-0.158554 0.576929,-0.467061 0.471572,-0.826243 -0.01191,-0.381434 -0.347596,-0.457751 -0.658751,-0.492901 z m -0.125926,0.107331 c 0.03983,0.02429 -0.03983,0.02432 0,0 z m 0.198665,0.207825 c 0.415949,-0.01781 0.488005,0.582856 0.09065,0.716315 -0.375943,0.23858 -0.523814,-0.301297 -0.37094,-0.566598 0.03943,-0.09377 0.137152,-0.154276 0.238998,-0.146026 0.01413,-0.0019 0.02787,-0.0031 0.04129,-0.0037 z" />
    <path
       id="etsy"
       style="fill:#000000;stroke-width:0.0203101"
       d="m 18.06975,1.4652231 c -0.293003,0.2048272 -0.397188,0.5921984 -0.489408,0.9241922 -0.103336,0.4903973 -0.231479,0.9823953 -0.259858,1.4830293 0.03131,0.3278082 0.218197,0.7789095 0.56456,0.8513524 C 18.174892,4.716207 18.5866,4.682273 18.622271,4.3174658 18.383625,4.11602 18.139801,4.7979782 17.824354,4.4460639 17.542459,4.1861901 17.492207,3.8152284 17.579403,3.4567604 c 0.0255,-0.4187455 0.137501,-0.8206687 0.259715,-1.216959 0.04095,-0.286004 0.291859,-0.4994143 0.315235,-0.7403835 l -0.04782,-0.028998 z m -2.177381,0.6595745 c -0.378889,-0.01606 -0.576585,0.3914378 -0.607359,0.7171293 -0.153461,0.3675142 0.16401,0.7985813 -0.211296,1.0686415 -0.144701,0.3708638 -0.0846,0.8105669 0.09335,1.159891 0.243038,0.2963518 0.67169,0.1714897 0.98915,0.085902 0.185671,-0.028654 0.62792,-0.286647 0.388792,-0.4099428 -0.308777,0.095451 -0.638654,0.3411696 -0.966457,0.153707 -0.241263,-0.1865153 -0.446503,-0.5213085 -0.262771,-0.8178032 0.117435,-0.4744244 0.67777,-0.1705531 0.906238,-0.4276858 0.05028,-0.4396396 -0.68974,0.039989 -0.705924,-0.3609604 -0.0037,-0.3412755 0.200472,-0.6968358 0.509666,-0.8402161 0.275061,-0.014684 0.563407,-0.090784 0.794711,-0.061635 0.124476,-0.3875167 -0.529638,-0.1418934 -0.742564,-0.2373604 -0.06443,0.00587 -0.123124,-0.02196 -0.185539,-0.029668 z m 3.852151,0.336894 c -0.352354,-0.012197 -0.681125,0.3495807 -0.530146,0.692478 0.129286,0.3161189 0.52066,0.2864088 0.78649,0.414327 0.429662,-0.044294 0.577575,0.5808239 0.117165,0.6686417 -0.213968,0.1796494 -0.478046,0.1333421 -0.541885,-0.1341861 -0.405349,-0.011298 -0.09377,0.5223616 0.18084,0.4599411 0.3106,-0.012779 0.633651,-0.1975114 0.831006,-0.4246509 C 20.809121,3.7900798 20.453122,3.3581846 20.079093,3.3703818 19.782239,3.3653018 19.153531,3.1464703 19.565474,2.8015224 19.716672,2.6970226 19.929397,2.6949244 20.044774,2.696115 20.145054,2.4913514 19.878227,2.4589796 19.74452,2.4616916 Z m 2.348566,0.065767 c -0.308385,0.172175 0.182832,0.477774 0.201808,0.7312158 0.08594,0.2991088 0.07888,0.6781403 -0.158266,0.91118 -0.176509,0.3361425 -0.780923,0.409948 -0.898226,-0.00521 -0.168981,-0.2775929 0.0043,-0.6779048 -0.139864,-0.9677003 -0.345538,-0.013414 -0.08752,0.557739 -0.131275,0.7823306 0.01659,0.3350339 0.301839,0.6545077 0.635584,0.6790213 0.293608,2.646e-4 0.638749,-0.1854941 0.946502,-0.053253 0.357206,0.04808 0.563761,0.4023546 0.460394,0.7359465 0.123002,0.3122057 0.217445,0.6883003 -0.03714,0.9660334 -0.17168,0.2552568 -0.744929,0.3963326 -0.840862,0.015187 0.0741,-0.2735157 -0.308366,-0.5001895 -0.329763,-0.1265237 -0.01474,0.2610088 0.0574,0.5109897 0.310306,0.6055968 0.297905,0.1766385 0.751916,0.2371646 1.025059,-0.0063 0.375502,-0.1738219 0.401955,-0.645394 0.43203,-1.006844 -0.02,-0.3629713 -0.171923,-0.7017755 -0.376769,-0.9927616 -0.17857,-0.2807785 -0.553717,-0.3231409 -0.77616,-0.4986708 0.163351,-0.2333837 0.268401,-0.5509128 0.212854,-0.8538369 -0.07072,-0.3214158 -0.241871,-0.6127141 -0.426267,-0.8792924 -0.04489,0.015796 -0.07149,-0.021722 -0.109945,-0.036121 z m -3.693552,0.9004856 c -0.106182,0.3533881 -0.729998,-0.133948 -0.707088,0.210775 0.266443,0.037693 0.616013,0.1595385 0.825249,-0.07185 0.02968,-0.076631 -0.05407,-0.1290029 -0.118161,-0.138925 z m -0.11608,0.2876735 c -0.03665,0.025479 0.03641,0.026194 0,0 z m -2.529864,1.441924 c 0.105442,0.049279 -0.07141,0.046318 0,0 z m 6.226148,1.5030423 c 0.0363,0.02585 -0.0363,0.02585 0,0 z" />
    <path
       id="contact"
       style="fill:#000000;stroke-width:0.0203101"
       d="m 37.154008,19.48103 c -0.350372,0.210368 0.240834,0.368991 0.03022,0.671195 -0.07301,0.336455 -0.09242,0.678326 -0.11403,1.020667 -0.05173,0.456372 -0.035,0.929172 0.103635,1.370828 0.134324,0.250139 0.389686,0.670671 0.717545,0.534466 0.260969,-0.0071 0.302019,-0.748522 0.03631,-0.34304 -0.151196,0.334441 -0.461338,-0.158726 -0.519372,-0.339365 -0.116612,-0.303705 -0.111564,-0.634871 -0.107315,-0.957821 0.01701,-0.33264 0.03433,-0.650814 0.06783,-0.979869 0.06367,-0.306723 0.194059,-0.685046 -0.09355,-0.90733 -0.03458,-0.03135 -0.07179,-0.06527 -0.121282,-0.06973 z m -3.534807,0.124286 c -0.23572,0.194058 0.206407,0.485605 0.157559,0.759168 0.09797,0.664676 -0.04049,1.341396 0.04286,2.006079 0.06529,0.383937 0.723829,0.282676 0.610905,-0.123174 -0.148815,-0.15567 -0.285364,0.270126 -0.357161,-0.05084 -0.09909,-0.276537 -0.01955,-0.524806 0.308636,-0.516726 0.24906,-0.03974 0.162954,-0.345294 -0.06571,-0.220287 -0.448877,0.08965 -0.201965,-0.515778 -0.268545,-0.780886 -0.0019,-0.30413 -0.05096,-0.610452 -0.180813,-0.874778 -0.06443,-0.08055 -0.134782,-0.189079 -0.247732,-0.198551 z m 1.633342,1.631018 c -0.231217,-0.0903 -0.799667,0.395774 -0.332656,0.382426 0.193347,-0.258376 0.642194,0.0081 0.503108,0.284396 -0.277855,0.0021 -0.891064,0.07687 -0.727205,0.483465 0.115256,0.267972 0.416539,0.399634 0.704168,0.363746 0.468259,-0.03185 0.290398,-0.492855 0.339121,-0.803566 0.05225,-0.223962 -0.07945,-0.493678 -0.253214,-0.594667 -0.07719,-0.03964 -0.138411,-0.119758 -0.233322,-0.1158 z m -4.617824,0.123328 c -0.416385,0.02466 -0.872646,0.04652 -1.210619,0.324773 -0.111027,0.06329 -0.212611,0.132612 -0.199512,0.275029 -0.02355,0.21962 -0.121192,0.441696 -0.03297,0.657609 0.05014,0.173392 0.04905,0.372472 0.199392,0.495636 0.112189,0.125195 0.192554,0.309245 0.39705,0.24366 0.27124,-0.08778 0.732282,0.20153 0.866151,-0.08283 -0.0088,-0.348038 -0.589743,-0.102039 -0.770671,-0.347527 -0.214886,-0.128392 -0.449294,-0.420394 -0.384437,-0.687427 0.101571,-0.300342 0.444942,-0.582634 0.765927,-0.448871 0.146693,-0.05298 0.655449,-0.227171 0.369691,-0.430051 z m 1.910215,0.08313 c -0.180218,0.161247 0.02537,0.499673 -0.118194,0.72957 -0.09761,0.255286 0.321074,0.855779 0.379478,0.349088 -0.199392,-0.260998 0.153956,-1.015023 0.373698,-0.529359 0.04646,0.301222 -0.168892,0.557895 0.124812,0.802933 0.328284,-0.108452 0.112217,-0.498337 0.160231,-0.76514 0.07751,-0.418084 -0.325694,-0.594842 -0.672025,-0.51416 -0.0692,-0.08706 -0.157181,-0.04468 -0.248,-0.07293 z m 3.882917,0.109926 c -0.338974,0.07062 -0.490779,0.483262 -0.527524,0.788152 -0.0036,0.296508 0.330449,0.461729 0.59949,0.391533 0.179343,0.0648 0.627007,-0.188042 0.325771,-0.289042 -0.311338,0.12187 -0.804701,0.03545 -0.566544,-0.394472 0.0097,-0.246489 0.721807,-0.276514 0.317127,-0.4776 -0.04807,-0.01363 -0.09825,-0.02159 -0.14832,-0.01857 z m 1.029695,0.201811 c -0.260088,0.192601 0.268459,0.463884 0.451897,0.493012 0.189363,0.06181 0.443291,-0.306129 0.113612,-0.221295 -0.201668,-0.07723 -0.339635,-0.268444 -0.565509,-0.271717 z m -6.125927,0.340178 c -0.421019,0.01667 -0.640041,0.607967 -0.306864,0.87612 0.278519,0.285295 0.819219,0.03276 0.914201,-0.312531 0.130279,-0.341239 -0.250629,-0.393655 -0.456737,-0.523817 -0.04342,-0.0309 -0.09805,-0.04239 -0.1506,-0.03977 z m 3.91491,0.0834 c 0.333774,-0.04758 0.157146,0.552704 -0.118428,0.290769 -0.237993,-0.134823 -0.133776,-0.332345 0.118428,-0.290769 z m -3.906711,0.184306 c 0.08884,0.141859 0.503814,0.210603 0.215172,0.400135 -0.331589,0.265176 -0.647647,-0.297836 -0.215172,-0.400135 z m -1.71155,1.034616 0.0075,0.0041 z" />
    <path
       id="about"
       style="fill:#000000;stroke-width:0.0203101"
       d="m 5.344785,19.617105 c -0.1973421,0.01175 -0.2253297,0.113393 -0.1172474,0.287994 0.1600702,0.322498 0.090699,0.702493 0.1603242,1.048538 0.02368,0.316794 0.045583,0.634117 0.069101,0.946918 0.03425,0.27273 0.2087245,0.610502 0.5263382,0.591648 0.1960563,-0.02201 0.4850818,-0.08861 0.5553234,-0.256188 0.051181,-0.125254 -0.045897,-0.349409 -0.1776783,-0.264856 0.0087,0.279701 -0.5003694,0.416967 -0.5950426,0.134517 C 5.5740756,21.878422 5.6649441,21.555665 5.6213831,21.28162 5.6308287,20.989147 5.5550653,20.697092 5.5460456,20.402055 5.5476331,20.13966 5.5253817,19.83812 5.3393161,19.629819 Z m -2.2218173,0.911424 c -0.2210514,0.192093 -0.317799,0.479187 -0.4166579,0.754705 -0.1934236,0.503799 -0.1627055,1.052515 -0.1253225,1.580849 -0.026061,0.321228 0.3212015,0.484695 0.5976249,0.4402 0.2638399,-0.07706 0.3632174,-0.405154 0.4275481,-0.602477 0.1075267,0.02426 0.092998,0.284707 0.1819858,0.142197 0.1522782,0.21744 0.508209,0.150495 0.618826,-0.08299 C 4.6930554,22.54461 4.5566442,22.128185 4.2256267,22.051805 4.0476573,22.035035 3.9596675,21.697219 3.7791211,21.94735 c -0.2048642,0.0933 -0.2316956,0.504682 -0.277831,0.537475 -0.1605597,-0.271756 -0.5498703,-0.14527 -0.7217489,-0.240319 -0.032615,-0.252587 0.02413,-0.467143 0.076663,-0.720926 0.081008,-0.289919 0.1743022,-0.571724 0.3153807,-0.839663 0.012382,-0.04883 0.023892,-0.150381 -0.048617,-0.155384 z M 1.549099,21.017738 c -0.2879804,0.02003 -0.487635,0.273915 -0.55538418,0.536379 -0.0870373,0.264861 -0.0944324,0.544259 -0.15934531,0.815039 -0.0477547,0.42641 0.0522102,0.849643 0.0497178,1.276061 0.0368379,0.350533 0.25908009,0.02955 0.19387879,-0.1579 -0.071358,-0.381876 -0.075912,-0.777407 -0.054499,-1.166847 0.063309,-0.292973 0.080084,-0.618998 0.2323836,-0.876914 0.1812051,-0.317995 0.5580379,-0.07117 0.6244907,0.207161 -0.03407,0.199091 0.2827628,0.643763 -0.071821,0.580956 -0.2701502,0.04687 -0.5978128,0.148304 -0.636741,0.450593 0.1637825,0.243703 0.4889394,-0.05232 0.7100702,-0.09145 0.2771644,-0.230024 0.1126835,0.276407 0.056102,0.386217 -0.088556,0.08076 0.1115562,0.339778 0.1932754,0.334854 C 2.301968,23.05785 2.129377,22.789026 2.226728,22.500879 2.283712,22.229191 2.1195381,22.031193 2.1192523,21.772473 2.1365561,21.46659 1.8988438,21.258107 1.7067907,21.057809 1.6624386,21.023948 1.6032037,21.016135 1.549099,21.017738 Z m 4.5572548,0.25322 c -0.1839913,-0.02853 -0.6322325,0.270771 -0.2619693,0.29656 0.1277911,-0.01347 0.5397923,-0.162639 0.2619693,-0.29656 z m -0.9878537,0.131939 c -0.3389418,0.167841 -0.00828,0.483458 0.074695,0.700694 0.1106275,0.240768 -0.2037795,0.405998 -0.2874116,0.124158 -0.2100977,-0.174636 -0.020214,-0.654063 -0.2873878,-0.694536 -0.2547488,0.112656 -0.0341,0.429913 -0.01815,0.612722 0.064095,0.260686 0.2875015,0.57014 0.5927698,0.491193 0.3369337,-0.158689 0.2793656,-0.644961 0.077375,-0.892376 -0.1097598,-0.09389 0.036663,-0.313679 -0.1518946,-0.341855 z m 0.6979947,0.100494 c 0.036645,0.02551 -0.036417,0.02619 0,0 z m -0.6882871,0.169408 c 0.088503,0.04516 -0.056393,0.04036 0,0 z m -1.3325422,0.155593 c -0.056004,0.02164 0.054303,0.01852 0,0 z m -1.7263189,0.04061 c 0.082182,0.0547 -0.079364,0.04777 0,0 z m 4.5039306,0.126473 c -0.00632,0.03268 0.00458,0.0083 0,0 z m -3.8939893,0.19839 c 0.096851,0.03246 -0.039264,0.137737 0,0 z m 1.2647268,0.0186 c 0.2813632,-0.04612 0.6088063,0.340384 0.2483406,0.493887 -0.2893377,0.206124 -0.5569982,-0.257386 -0.35442,-0.467569 l 0.046953,-0.01916 z m -1.762961,0.0019 c 0.036454,0.02609 -0.036454,0.02609 0,0 z m 0.5529236,0.167219 c 0.1298786,0.273693 0.6027975,0.01201 0.619625,0.384472 0.038719,0.34762 -0.5412528,0.435755 -0.5619379,0.08903 -0.039624,-0.153657 -0.036999,-0.329851 -0.057687,-0.473499 z m 2.3514367,0.05619 c 0.036573,0.02643 -0.036804,0.02572 0,0 z m 0.1605174,0.06454 c 0.036618,0.03107 -0.032089,0.04403 0,0 z M 4.3693721,23.984662 C 3.935265,23.97982 3.6020355,24.43866 3.707038,24.851529 c 0.0439,0.289399 0.2646363,0.546537 0.5703967,0.558303 0.2920153,0.06162 0.5723678,-0.130043 0.7519591,-0.327149 0.1597818,-0.106757 0.01053,-0.559316 -0.1151626,-0.294749 -0.058169,0.225825 -0.39429,0.405051 -0.6387914,0.373811 -0.2810801,-0.03444 -0.3719301,-0.430871 -0.01614,-0.428913 0.2188845,-0.06905 0.5028909,-0.263594 0.4496964,-0.507804 0.077729,-0.155983 -0.2198688,-0.263525 -0.3396298,-0.240366 z m -1.3586592,0.222729 c -0.2941822,0.0024 -0.4558189,0.284996 -0.6462633,0.444994 -0.2025041,-0.193423 -0.5561197,-0.135749 -0.7598992,0.03189 -0.058703,0.120804 -0.082656,0.488953 -0.1954398,0.172366 0.028662,-0.133353 0.068323,-0.276863 -0.1516062,-0.290664 -0.32951737,0.139735 0.010742,0.507024 0.1240446,0.673055 0.1122574,0.212725 0.3169497,0.410901 0.467786,0.560682 0.2458032,0.08208 0.2453243,-0.19984 0.1131041,-0.343189 -0.1269736,-0.182282 -0.3208973,-0.505439 -0.052517,-0.655468 0.2692162,-0.17612 0.4749456,0.573717 0.6264857,0.19087 0.1273387,-0.187158 0.2558415,-0.480874 0.5114184,-0.505859 0.1794907,0.241025 0.2099575,0.578353 0.2039382,0.871469 -0.054729,0.180139 0.1718284,0.416041 0.2190353,0.136863 C 3.6360821,25.23681 3.467942,25.032332 3.4338928,24.764714 3.357071,24.553185 3.3170925,24.188666 3.0107129,24.207391 Z m 1.3685044,0.03896 c 0.2677848,0.107558 -0.3295994,0.350525 -0.4066276,0.303673 0.033422,-0.163952 0.2367518,-0.283739 0.4066276,-0.303673 z m -1.5076911,0.120867 c 0.036645,0.02551 -0.036415,0.02619 0,0 z m 0.304763,0.04061 c 0.1114451,0.07628 -0.099462,0.03824 0,0 z m 1.1576711,0.162433 c 0.036573,0.02643 -0.036801,0.02572 0,0 z m -2.9855768,0.223412 c 0.036573,0.02643 -0.036798,0.02572 0,0 z m 0.4060798,0.325 c 0.036647,0.02551 -0.036415,0.02619 0,0 z M 4.287473,25.22546 c 0.16383,0.06779 -0.023998,0.121573 0,0 z" />
    <path
       id="instagram"
       style="fill:#000000;stroke-width:0.0203101"
       d="m 14.029149,40.605244 c -0.396624,0.103063 -0.819426,0.186288 -1.237565,0.199335 -0.328446,0.238588 0.101872,0.33837 0.311301,0.274481 0.08267,0.58561 -0.07824,1.173647 -1.59e-4,1.761807 -0.110871,0.374108 -1.050086,-0.299487 -0.954222,0.259054 0.419999,0.153868 0.921506,0.169979 1.346324,0.136475 0.44321,0.112162 0.09657,-0.52917 -0.129672,-0.45052 -0.173781,-0.585737 0.01209,-1.181192 0.0386,-1.769022 0.188606,-0.113583 1.043507,0.02125 0.625396,-0.41161 z m 2.627488,0.619374 c -0.346419,0.153485 0.317124,0.685382 -0.04952,0.967698 0.125116,0.303847 0.01024,0.661923 0.0681,1.042728 0.527127,0.179512 -0.08074,-0.810588 0.361788,-0.854806 0.382458,0.06218 0.227627,-0.47957 -0.102041,-0.267414 -0.141169,-0.245581 0.01426,-0.718259 -0.278331,-0.888206 z m 3.750016,0.300527 c -0.43239,0.161478 -0.85475,0.633825 -0.425987,1.093917 0.185825,0.183692 0.33202,0.932439 0.605647,0.68299 -0.01342,-0.494826 -0.550466,-1.091607 -0.06635,-1.537301 0.0059,-0.08176 0.01241,-0.253476 -0.113313,-0.239606 z m 2.153454,0.184856 c -0.375494,0.242835 0.01905,0.926008 0.01701,1.320485 0.05039,0.603245 0.732171,-0.09115 0.301707,-0.266591 -0.454115,-0.502695 0.549254,-1.037421 0.697476,-0.399113 -0.05193,0.294301 0.171183,0.611539 0.341778,0.193868 0.213421,-0.373153 0.861261,-0.759489 1.01782,-0.122217 0.05402,0.310941 0.182941,0.717672 0.06522,0.989354 0.18411,0.374613 0.506378,0.181028 0.397192,-0.188957 -0.02801,-0.522809 -0.140417,-1.162111 -0.628597,-1.449361 -0.408371,-0.22795 -0.766739,0.517435 -1.009941,0.37783 -0.156766,-0.563875 -0.750213,-0.238107 -1.084739,-0.293373 -0.01148,-0.07091 -0.01955,-0.16316 -0.114919,-0.161925 z m -1.421416,0.04116 c -0.520419,0.206124 0.618848,0.351629 0.248706,0.516705 -0.46582,0.193569 -0.652624,0.939972 -0.0942,1.150287 0.353092,0.174159 0.928558,0.180101 1.125953,-0.217345 0.06432,-0.523507 -0.482349,0.353401 -0.399383,-0.188735 -0.031,-0.392843 -0.141843,-0.864346 -0.459275,-1.1029 -0.141713,-0.04983 -0.278354,-0.114107 -0.421796,-0.158012 z m -5.274937,0.03445 c -0.398163,-0.04197 -0.491347,0.853226 -0.699889,0.270717 -0.625316,-0.440508 -0.908753,0.60594 -0.412721,0.913111 0.449064,0.02622 -0.341632,-0.734097 0.187103,-0.744897 0.440439,0.16239 0.110273,1.13412 0.545269,1.065342 0.111697,-0.261641 -0.253851,-0.791787 0.247751,-0.532553 0.50963,-0.09098 0.34784,0.719764 0.02326,0.274611 -0.29114,-0.229569 -0.161436,0.476504 0.16215,0.346331 0.603964,0.184415 0.435708,-0.725675 0.03363,-0.813043 -0.348393,0.01818 -0.526357,-0.301977 -0.168154,-0.485997 0.254786,0.02843 0.341805,-0.219845 0.0816,-0.293622 z m 2.167673,0.11157 c -0.540006,-0.0078 -0.334885,0.464219 0.09145,0.281167 0.219884,0.181618 0.206049,0.520531 -0.146609,0.378106 -0.457361,0.110548 -0.828299,0.794022 -0.350096,1.12283 0.299622,0.276202 0.663601,-0.262397 0.817949,-0.30141 0.274306,0.0097 0.500742,0.508198 0.829373,0.166534 0.156366,-0.22452 0.284332,-0.489879 0.464532,-0.117025 0.359928,0.324307 0.493246,0.92276 -0.09501,1.063894 -0.307817,-0.02878 -0.584761,-0.217477 -0.75791,-0.4407 -0.284945,0.412832 0.344083,0.541176 0.596241,0.679265 0.308274,0.07079 0.549638,-0.114703 0.71931,-0.365469 0.37665,-0.375926 -0.121417,-0.799312 -0.319635,-1.119069 -0.330221,-0.288996 -0.171207,-1.121994 -0.818801,-0.892 -0.392311,-0.04 -0.553373,0.987909 -0.560446,0.272769 0.0213,-0.316256 -0.09612,-0.716981 -0.470342,-0.728892 z m 5.2264,0.184991 c -0.01492,0.0016 0.0035,0.0013 0,0 z m -1.72837,0.414967 c 0.213066,0.07532 0.265978,0.702159 0.08721,0.789215 -0.534212,-0.03405 -0.610682,-0.6902 -0.08721,-0.789215 z m -3.346534,0.109109 c 0.03657,0.02643 -0.0368,0.02572 0,0 z m 0.898569,0.01286 c 0.586344,0.117562 -0.0096,1.197935 -0.258823,0.626896 -0.06942,-0.219038 0.02283,-0.551241 0.258823,-0.626896 z m -0.929333,0.175011 c 0.170067,0.179684 -0.02743,0.423328 -0.02312,0.06959 0.04519,-0.03301 -0.05977,-0.05916 0.0231,-0.06959 z m -0.177064,0.03309 c 0.374211,0.19145 -0.07783,0.965126 -0.312243,0.459174 -0.02365,-0.200202 0.172532,-0.349377 0.312243,-0.459174 z" />
    <rect
       style="fill:none;stroke:#000000;stroke-width:0.0434173;stroke-linecap:butt;stroke-linejoin:miter;stroke-miterlimit:4;stroke-dasharray:none;stroke-opacity:1"
       id="etsy-box"
       width="10.49656"
       height="6.8186269"
       x="13.937383"
       y="0.45210424" />
    <rect
       style="fill:none;stroke:#000000;stroke-width:0.0379988;stroke-linecap:butt;stroke-linejoin:miter;stroke-miterlimit:4;stroke-dasharray:none;stroke-opacity:1"
       id="about-me-box"
       width="7.4070477"
       height="7.4013696"
       x="0.28547961"
       y="19.158266" />
    <rect
       style="fill:none;stroke:#000000;stroke-width:0.0403739;stroke-linecap:butt;stroke-linejoin:miter;stroke-miterlimit:4;stroke-dasharray:none;stroke-opacity:1"
       id="contact-box"
       width="10.315608"
       height="5.999589"
       x="28.683115"
       y="18.536158" />
    <rect
       style="fill:none;stroke:#000000;stroke-width:0.0460093;stroke-linecap:butt;stroke-linejoin:miter;stroke-miterlimit:4;stroke-dasharray:none;stroke-opacity:1"
       id="instagram-box"
       width="14.351462"
       height="5.6003017"
       x="11.535842"
       y="39.648617" />
    <path
       style="fill:none;stroke:#000000;stroke-width:0.0318361;stroke-linecap:butt;stroke-linejoin:miter;stroke-miterlimit:4;stroke-dasharray:none;stroke-opacity:1"
       d="m 18.475106,25.996242 c -0.02689,0.08408 -0.08141,0.160401 -0.156578,0.206672 -0.07517,0.04627 -0.171184,0.06025 -0.254194,0.03023 -0.07775,-0.02812 -0.140061,-0.09343 -0.169074,-0.170849 -0.02901,-0.07742 -0.02557,-0.165548 0.0048,-0.242437 0.03039,-0.07689 0.08671,-0.142464 0.155423,-0.188444 0.06871,-0.04598 0.149381,-0.07281 0.231509,-0.08233 0.08863,-0.01027 0.179701,-6.07e-4 0.263609,0.02972 0.08391,0.03032 0.160451,0.08141 0.219328,0.148439 0.05888,0.06703 0.0998,0.149985 0.115444,0.237821 0.01564,0.08784 0.0057,0.180313 -0.02979,0.262158 -0.03557,0.08198 -0.09755,0.153307 -0.176778,0.194653 -0.07922,0.04135 -0.175606,0.0511 -0.259684,0.02082 -0.04204,-0.01514 -0.08066,-0.03994 -0.111342,-0.07242 -0.03068,-0.03248 -0.05332,-0.07263 -0.06447,-0.115904 -0.01115,-0.04327 -0.0107,-0.08957 0.002,-0.132398 0.01274,-0.04283 0.03783,-0.08201 0.0719,-0.110924 0.03251,-0.02758 0.07237,-0.04544 0.113463,-0.05681 0.04109,-0.01136 0.08361,-0.01652 0.126004,-0.02103 0.04239,-0.0045 0.08496,-0.0084 0.126638,-0.01741 0.04168,-0.009 0.08271,-0.02323 0.118172,-0.04689 0.03495,-0.02332 0.06398,-0.05579 0.08193,-0.09379 0.01794,-0.038 0.02456,-0.08149 0.01727,-0.122875 -0.0073,-0.04138 -0.0287,-0.08038 -0.06067,-0.107661 -0.03197,-0.02728 -0.07441,-0.04235 -0.116361,-0.03992 -0.0496,0.0029 -0.09592,0.02971 -0.128927,0.06684 -0.03301,0.03713 -0.05371,0.08384 -0.06669,0.131791 -0.02595,0.09591 -0.02275,0.19831 -0.05301,0.292948 z"
       id="path-dot-3"
       inkscape:path-effect="#path-effect855"
       inkscape:original-d="m 18.475106,25.996242 c -0.08322,0.163373 -0.273499,0.158408 -0.410772,0.236902 -0.137272,0.0785 0.148803,-0.455559 0.222682,-0.684055 0.07388,-0.228499 0.379411,0.452565 0.568594,0.678133 0.189181,0.225567 -0.358536,-0.14364 -0.538327,-0.216174 -0.179791,-0.07254 0.3232,-0.09427 0.484277,-0.142141 0.161077,-0.04786 -0.05154,-0.242348 -0.07783,-0.36424 -0.0263,-0.121883 -0.165401,0.328195 -0.248624,0.491575 z" />
    <path
       style="fill:none;stroke:#000000;stroke-width:0.0399397;stroke-linecap:butt;stroke-linejoin:miter;stroke-miterlimit:4;stroke-dasharray:none;stroke-opacity:1"
       d="m 18.590775,22.74977 c -0.08194,-0.01755 -0.157731,-0.06263 -0.212266,-0.126259 -0.05454,-0.06362 -0.0875,-0.145418 -0.09231,-0.229078 -0.0048,-0.08366 0.01854,-0.168696 0.06542,-0.238157 0.04687,-0.06946 0.116993,-0.122941 0.196378,-0.149779 0.0933,-0.03154 0.197915,-0.02579 0.2889,0.01192 0.09099,0.03771 0.168092,0.106413 0.219722,0.190285 0.05163,0.08387 0.07813,0.182347 0.07995,0.28082 0.0018,0.09847 -0.02063,0.196826 -0.06098,0.286671 -0.07026,0.15646 -0.197139,0.288096 -0.353931,0.357616 -0.156793,0.06952 -0.342437,0.07456 -0.500148,0.0071 -0.132981,-0.05684 -0.24481,-0.165786 -0.296189,-0.300971 -0.02569,-0.06759 -0.03631,-0.141014 -0.02955,-0.213007 0.0068,-0.07199 0.03101,-0.142433 0.07106,-0.202636 0.04005,-0.0602 0.09594,-0.109962 0.16094,-0.141648 0.065,-0.03169 0.138984,-0.04507 0.210831,-0.0369 0.07185,0.0082 0.141266,0.03802 0.195792,0.08552 0.05452,0.04749 0.09377,0.112543 0.109135,0.183201 0.01433,0.06591 0.0081,0.134852 -0.0071,0.200569 -0.01519,0.06572 -0.0391,0.129029 -0.0605,0.192996 -0.02139,0.06397 -0.04043,0.129377 -0.04533,0.196649 -0.0049,0.06727 0.0052,0.137097 0.03886,0.195529 0.03458,0.05998 0.09304,0.10493 0.158712,0.126839 0.06567,0.02191 0.138002,0.02135 0.204588,0.0024 0.10924,-0.03111 0.20293,-0.112835 0.248581,-0.21684 0.04565,-0.104005 0.04239,-0.228288 -0.0087,-0.329753 -0.05105,-0.101464 -0.148901,-0.178158 -0.259624,-0.203487 -0.110723,-0.02533 -0.232187,0.0012 -0.322273,0.07037 z"
       id="path-dot-2"
       inkscape:path-effect="#path-effect859"
       inkscape:original-d="m 18.590775,22.74977 c -0.113407,-0.226742 -0.0291,-0.495329 -0.04278,-0.743273 -0.01369,-0.247945 0.351149,0.513314 0.527593,0.769696 0.176446,0.256386 -0.569965,0.243358 -0.854079,0.364762 -0.284113,0.121409 0.280767,-0.417449 0.422018,-0.62645 0.141256,-0.208996 -0.04997,0.524003 -0.07407,0.785743 -0.02411,0.261734 0.24162,0.08633 0.3633,0.129231 0.121675,0.04287 -0.228567,-0.452956 -0.34198,-0.679708 z" />
    <path
       style="fill:none;stroke:#000000;stroke-width:0.0399397;stroke-linecap:butt;stroke-linejoin:miter;stroke-miterlimit:4;stroke-dasharray:none;stroke-opacity:1"
       d="m 18.182967,20.075863 c -0.08194,-0.01755 -0.157731,-0.06263 -0.212266,-0.126259 -0.05454,-0.06362 -0.0875,-0.145418 -0.09231,-0.229078 -0.0048,-0.08366 0.01854,-0.168696 0.06542,-0.238157 0.04687,-0.06946 0.116993,-0.122941 0.196378,-0.149779 0.0933,-0.03154 0.197915,-0.02579 0.2889,0.01192 0.09099,0.03771 0.168092,0.106413 0.219722,0.190285 0.05163,0.08387 0.07813,0.182347 0.07995,0.28082 0.0018,0.09847 -0.02063,0.196826 -0.06098,0.286671 -0.07026,0.15646 -0.197139,0.288096 -0.353931,0.357616 -0.156793,0.06952 -0.342437,0.07456 -0.500148,0.0071 -0.132981,-0.05684 -0.24481,-0.165786 -0.296189,-0.300971 -0.02569,-0.06759 -0.03631,-0.141014 -0.02955,-0.213007 0.0068,-0.07199 0.03101,-0.142433 0.07106,-0.202636 0.04005,-0.0602 0.09594,-0.109962 0.16094,-0.141648 0.065,-0.03169 0.138984,-0.04507 0.210831,-0.0369 0.07185,0.0082 0.141266,0.03802 0.195792,0.08552 0.05452,0.04749 0.09377,0.112543 0.109135,0.183201 0.01433,0.06591 0.0081,0.134852 -0.0071,0.200569 -0.01519,0.06572 -0.0391,0.129029 -0.0605,0.192996 -0.02139,0.06397 -0.04043,0.129377 -0.04533,0.196649 -0.0049,0.06727 0.0052,0.137097 0.03886,0.195529 0.03458,0.05998 0.09304,0.10493 0.158712,0.126839 0.06568,0.02191 0.138002,0.02135 0.204588,0.0024 0.10924,-0.03111 0.20293,-0.112835 0.248581,-0.21684 0.04565,-0.104005 0.04239,-0.228288 -0.0087,-0.329753 -0.05105,-0.101464 -0.148901,-0.178158 -0.259624,-0.203487 -0.110723,-0.02533 -0.232187,0.0012 -0.322273,0.07037 z"
       id="path-dot-1"
       inkscape:path-effect="#path-effect863"
       inkscape:original-d="m 18.182967,20.075863 c -0.113407,-0.226742 -0.0291,-0.495329 -0.04278,-0.743273 -0.01369,-0.247945 0.351149,0.513314 0.527593,0.769696 0.176446,0.256386 -0.569965,0.243358 -0.854079,0.364762 -0.284113,0.121409 0.280767,-0.417449 0.422018,-0.62645 0.141256,-0.208996 -0.04997,0.524003 -0.07407,0.785743 -0.02411,0.261734 0.24162,0.08633 0.3633,0.129231 0.121675,0.04287 -0.228567,-0.452956 -0.34198,-0.679708 z" />
  </g>
</svg>
