<?xml version="1.0" encoding="UTF-8" standalone="no"?>
<svg
   xmlns:dc="http://purl.org/dc/elements/1.1/"
   xmlns:cc="http://creativecommons.org/ns#"
   xmlns:rdf="http://www.w3.org/1999/02/22-rdf-syntax-ns#"
   xmlns:svg="http://www.w3.org/2000/svg"
   xmlns="http://www.w3.org/2000/svg"
   xmlns:sodipodi="http://sodipodi.sourceforge.net/DTD/sodipodi-0.dtd"
   xmlns:inkscape="http://www.inkscape.org/namespaces/inkscape"
   width="39.766296mm"
   height="45.7915mm"
   viewBox="0 0 39.766297 45.791501"
   version="1.1"
   id="svg1492"
   inkscape:version="1.0.1 (3bc2e813f5, 2020-09-07)"
   sodipodi:docname="diamond.svg">
  <defs
     id="defs1486" />
  <sodipodi:namedview
     id="base"
     pagecolor="#ffffff"
     bordercolor="#666666"
     borderopacity="1.0"
     inkscape:pageopacity="0.0"
     inkscape:pageshadow="2"
     inkscape:zoom="10.081884"
     inkscape:cx="48.126136"
     inkscape:cy="93.202246"
     inkscape:document-units="mm"
     inkscape:current-layer="layer1"
     inkscape:document-rotation="0"
     showgrid="false"
     fit-margin-top="0"
     fit-margin-left="0"
     fit-margin-right="0"
     fit-margin-bottom="0"
     inkscape:window-width="3747"
     inkscape:window-height="2126"
     inkscape:window-x="82"
     inkscape:window-y="-11"
     inkscape:window-maximized="1" />
  <metadata
     id="metadata1489">
    <rdf:RDF>
      <cc:Work
         rdf:about="">
        <dc:format>image/svg+xml</dc:format>
        <dc:type
           rdf:resource="http://purl.org/dc/dcmitype/StillImage" />
        <dc:title></dc:title>
      </cc:Work>
    </rdf:RDF>
  </metadata>
  <g
     inkscape:label="Layer 1"
     inkscape:groupmode="layer"
     id="layer1"
     transform="translate(-88.203987,-124.96283)">
    <g
       id="diamond"
       transform="matrix(0.26458333,0,0,0.26458333,80.938202,109.05565)">
      <path
         id="diamond_corner_contact"
         style="fill:#000000;stroke-width:0.0767625"
         d="m 131.13187,140.31848 c -1.2196,0.004 -2.60136,0.0919 -3.5198,0.99619 -0.61141,0.84465 -1.13925,1.75513 -1.52462,2.72505 -0.44899,0.58288 0.1354,1.15972 0.19545,1.76835 0.29293,1.10996 0.63211,2.41108 1.74152,2.97515 0.66269,0.34743 1.41966,0.38418 2.14212,0.47052 1.21251,0.0112 2.56409,-0.51007 3.07699,-1.68578 0.27606,-0.52225 0.87521,-0.87926 0.87851,-1.52701 0.16588,-0.79794 0.62979,-1.55512 0.48371,-2.39442 0.0236,-0.76968 -0.3841,-1.46443 -0.9569,-1.9558 -0.49234,-0.40115 -0.90101,-0.6744 -1.37013,-1.10258 -0.32653,-0.26025 -0.75437,-0.23791 -1.14685,-0.26967 z m -0.83612,1.95286 c 0.64863,0.01 1.32673,0.10006 1.92326,0.3531 0.56087,0.32183 0.4989,1.02276 0.39207,1.56444 -0.12781,0.62795 -0.47471,1.17117 -0.79666,1.71176 -0.43276,0.53862 -1.03235,1.04978 -1.77114,0.98119 -0.56855,0.1097 -1.04831,-0.19822 -1.55774,-0.36657 -0.59777,-0.22337 -0.88387,-0.8669 -1.10616,-1.41836 -0.19414,-0.70562 0.14425,-1.49793 0.64316,-1.97038 0.24911,-0.59166 0.87278,-0.47259 1.33813,-0.62139 0.28917,-0.14354 0.60242,-0.29435 0.93508,-0.23379 z m -0.66043,4.81676 c 0.16784,0.0998 -0.16404,0.0915 0,0 z m 0.13746,0.016 c 0.29048,0.0653 0.0661,0.25192 0,0 z" />
      <path
         id="diamond_corner_etsy"
         style="fill:#000000;stroke-width:0.0767625"
         d="m 99.641914,86.278384 c -1.27661,-0.0368 -2.59198,0.46431 -3.38845,1.48309 -0.72706,1.00715 -0.56554,2.31153 -0.70179,3.4792 -0.0861,0.76242 0.10759,1.53045 0.28597,2.26126 0.41237,0.58505 0.74338,1.23976 1.32658,1.67513 0.67827,0.619 1.52357,0.99693 2.42802,1.12235 0.758386,0.13803 1.528866,0.25863 2.298856,0.28686 1.01631,-0.16488 1.88505,-0.79713 2.87557,-1.05135 0.88971,-0.41353 1.74271,-1.04954 2.15175,-1.96412 0.28449,-0.9988 0.48773,-2.13737 -0.052,-3.0911 -0.25363,-0.67036 -0.7316,-1.23549 -0.95818,-1.9125 -0.28818,-0.67251 -0.97493,-0.90461 -1.5183,-1.3012 -0.7766,-0.50822 -1.67738,-0.88402 -2.62038,-0.85958 -0.71073,-0.0204 -1.41733,-0.10606 -2.127686,-0.12804 z m 1.000966,1.27124 c 0.86195,0.002 1.71606,0.25008 2.49144,0.62619 0.68521,0.0979 1.1297,0.57981 1.53156,1.09573 0.32965,0.52857 0.79785,1.24532 0.63657,1.93913 0.0256,0.7309 -0.35814,1.40246 -0.98235,1.77864 -0.82335,0.65356 -1.79937,1.15384 -2.87174,1.16804 -1.19507,0.15739 -2.464326,0.0357 -3.499846,-0.62868 -0.70104,-0.3565 -0.572,-1.23607 -0.64917,-1.88218 -0.32309,-0.8755 -0.0901,-1.93009 0.50536,-2.62765 0.66471,-0.68929 1.53187,-1.12863 2.448136,-1.35415 0.12642,-0.049 0.25538,-0.0947 0.39004,-0.11507 z m -1.610236,7.50446 c 0.27747,0.0708 -0.0211,0.17864 0,0 z m 1.936826,0.13074 c 1.22845,0.10659 -1.245526,0.69122 -0.86893,0.0979 0.28061,-0.0879 0.57767,-0.0931 0.86893,-0.0979 z" />
      <path
         id="diamond_edge_etsy_about"
         style="fill:#000000;stroke-width:0.0767625"
         d="m 97.180674,93.557214 c -1.69725,0.96704 -2.39857,3.06087 -3.83863,4.372 -4.45116,4.721486 -7.74072,10.362236 -11.41574,15.676386 -3.07336,3.61136 -4.7763,8.20556 -8.19305,11.5623 -1.05301,1.67368 -1.78418,3.61434 -2.9422,5.2668 -2.32803,3.79812 -4.83286,7.50955 -7.62022,10.97592 -1.85571,2.0549 -3.67871,4.38295 -4.29751,7.1078 0.7574,1.60388 1.12121,-2.34639 2.02377,-2.76106 3.07176,-3.52704 5.56594,-7.48932 8.34616,-11.24131 2.01143,-2.99999 4.20427,-5.885 6.39166,-8.74471 2.35149,-3.74144 4.25712,-7.74632 6.699,-11.42522 2.73897,-3.37299 4.83792,-7.18905 7.5923,-10.5463 2.21817,-3.03292 4.59112,-5.952656 7.23801,-8.622756 0.1017,-0.45889 0.95055,-1.45927 0.0164,-1.61985 z m -20.24115,28.876276 c 0.15018,0.0923 -0.15018,0.0923 0,0 z m 0.15348,0.46044 c 0.15092,0.0931 -0.1509,0.0931 0,0 z m -2.02003,2.2412 c -0.0701,0.92888 -2.40084,3.12289 -1.00398,0.99689 0.25347,-0.40073 0.57915,-0.77239 1.00398,-0.99689 z m -2.21588,2.68769 c 0.39308,0.0664 -0.0519,0.20564 0,0 z" />
      <path
         id="diamond_corner_about"
         style="fill:#000000;stroke-width:0.0767625"
         d="m 57.554474,146.67154 c -0.7759,-0.0278 -1.4477,0.41871 -2.17032,0.59124 -0.59199,0.30105 -1.02292,0.84544 -1.46005,1.3318 -0.55031,0.58163 -0.37031,1.44479 -0.22935,2.15102 0.14661,0.66155 0.41297,1.29654 0.67888,1.91404 0.50029,0.6371 1.30263,0.94194 2.04048,1.2122 1.15998,0.33091 2.52991,0.24493 3.51643,-0.49805 0.38925,-0.38954 0.69278,-0.85514 1.04619,-1.27698 0.48667,-0.74733 0.3805,-1.6943 0.3105,-2.53988 -0.0202,-0.69665 -0.33556,-1.43102 -1.00288,-1.73146 -0.63259,-0.28301 -1.24744,-0.59666 -1.81758,-0.98618 -0.28608,-0.12506 -0.60137,-0.17429 -0.9123,-0.16775 z m 0.11576,1.13584 c 0.44466,0.11317 0.9443,0.32243 1.20309,0.71104 0.0663,0.50369 0.45317,0.76483 0.86285,0.98619 0.41564,0.32297 0.24681,0.92339 0.17332,1.36515 -0.26265,0.74425 -1.15326,0.85578 -1.80911,1.05743 -0.60306,0.27516 -1.37219,0.37198 -1.91658,-0.0843 -0.44483,-0.19639 -0.65526,-0.63501 -0.84401,-1.05159 -0.31319,-0.46556 -0.33532,-1.02297 -0.25299,-1.56055 0.14844,-0.44135 0.60756,-0.71698 0.99735,-0.94144 0.51481,-0.32097 0.90712,0.12101 1.21206,0.44617 0.8202,0.0763 0.0593,-0.73851 0.37402,-0.92809 z" />
      <path
         id="diamond_corner_instagram"
         style="fill:#000000;stroke-width:0.115459"
         d="m 98.801065,198.69952 c -0.53471,0.0392 -0.463033,1.33154 -1.189953,0.75061 -1.630499,-0.62383 -3.458485,-0.16893 -4.891275,0.86061 -0.772788,0.52397 -1.334676,1.36527 -1.643063,2.33257 -0.249704,0.67247 -0.243046,1.43693 -0.408874,2.13746 -0.106224,0.71685 0.129675,1.37943 0.273532,2.04649 0.297625,0.95221 1.18592,1.37807 1.88851,1.8496 1.402305,0.7974 3.096721,0.90419 4.569181,0.31225 0.646407,-0.32528 1.19456,-0.85579 1.800096,-1.26871 0.775245,-0.80425 1.532091,-1.648 2.197201,-2.57925 0.51375,-1.58576 0.007,-3.34499 -0.80786,-4.66565 -0.677915,-0.39485 -1.206106,-1.07727 -1.630754,-1.74561 l -0.156796,-0.0303 z m -3.059158,2.0897 c 1.089312,0.008 2.050108,0.68253 3.028338,1.1369 0.790697,0.69611 1.254025,2.14946 0.594607,3.14994 -0.845456,1.35629 -2.118086,2.6892 -3.655147,2.58863 -0.807726,-0.0594 -1.485149,-0.61705 -2.117249,-1.14245 -0.583998,-0.2515 -0.924266,-0.84039 -1.171989,-1.46327 -0.287085,-0.79842 0.259811,-1.60677 0.664595,-2.21711 0.605118,-0.70822 1.133031,-1.64129 2.013998,-1.8929 0.198141,-0.11151 0.417821,-0.22177 0.642847,-0.15981 z" />
      <path
         id="diamond_edge_about_instagram"
         style="fill:#000000;stroke-width:0.087539"
         d="m 60.059441,153.37379 c -1.881995,2.1019 1.888358,3.525 2.571754,5.40109 1.86076,3.15016 4.679101,5.95075 6.177369,9.2182 3.165512,6.71915 7.730223,13.00339 12.045517,19.3439 2.111599,3.25321 4.268482,6.49259 6.267591,9.77652 1.479281,1.79804 2.853485,3.67176 4.432036,5.33149 2.783688,-0.0283 -0.177346,-2.52894 -0.786996,-3.49255 -1.621882,-1.54781 -2.343876,-3.42433 -3.805712,-5.02988 -2.491019,-3.29288 -4.628995,-6.72525 -7.082543,-10.03737 -2.171286,-3.42776 -4.345855,-6.86014 -6.656086,-10.23884 -1.405842,-2.98353 -3.124309,-5.87651 -4.75941,-8.79591 -3.100871,-3.70682 -5.282973,-7.78391 -8.40352,-11.47665 z m 7.662244,11.49328 c 0.201264,0.0922 -0.201994,0.09 0,0 z" />
      <path
         id="diamond_edge_contact_etsy"
         style="fill:#000000;stroke-width:0.0767625"
         d="m 104.3201,92.989314 c -1.41638,2.14756 1.42117,3.60157 1.93549,5.51842 1.4004,3.218596 3.52147,6.080026 4.64906,9.418456 2.38235,6.86512 5.81773,13.28588 9.0654,19.76413 1.58918,3.32388 3.21244,6.63363 4.71696,9.9889 1.1133,1.8371 2.14752,3.75151 3.33553,5.4473 2.09499,-0.0289 -0.13347,-2.58388 -0.59229,-3.56842 -1.22062,-1.58143 -1.76399,-3.49872 -2.86416,-5.13914 -1.87473,-3.36441 -3.48376,-6.87135 -5.33029,-10.25542 -1.6341,-3.50223 -3.27067,-7.00917 -5.00934,-10.46127 -1.05803,-3.04835 -2.35134,-6.00418 -3.58191,-8.98699 -2.3337,-3.78735 -3.97594,-7.953006 -6.32445,-11.725966 z m 5.76657,11.742946 c 0.15147,0.0943 -0.15202,0.0919 0,0 z" />
      <path
         id="diamond_edge_instagram_contact"
         style="fill:#000000;stroke-width:0.0829175"
         d="m 98.770245,201.92612 c 2.649985,0.0287 2.323115,-3.56476 3.694785,-5.23167 2.00326,-3.30975 3.29478,-7.0859 5.55418,-10.20965 4.61068,-6.48417 8.24848,-13.69745 12.04088,-20.76742 1.98893,-3.55406 3.94658,-7.13188 6.00997,-10.62466 0.968,-2.18791 2.04708,-4.34808 2.85105,-6.52029 -1.19545,-1.97585 -2.16175,1.71423 -2.75752,2.75564 -0.68677,2.13299 -2.04258,3.82782 -2.84769,5.88243 -1.86447,3.85069 -4.00074,7.5361 -5.89797,11.37203 -2.11819,3.70638 -4.23908,7.418 -6.25544,11.19308 -2.04721,2.87937 -3.88288,5.9258 -5.77697,8.92909 -1.97409,4.54727 -4.66191,8.66891 -6.615275,13.22142 z m 6.941655,-12.70096 c -0.003,-0.20207 0.16448,0.0882 0,0 z" />
    </g>
    <g
       id="three_centre_dots"
       transform="matrix(0.26458333,0,0,0.26458333,75.988148,105.04611)">
      <path
         id="centre_dot1"
         style="fill:#000000;stroke-width:0.0767625"
         d="m 115.87674,169.76018 c -0.1221,-0.006 -0.24585,-0.004 -0.37104,0.007 -1.25015,-0.0689 -2.58009,0.5662 -2.9006,1.86448 -0.74479,2.01326 0.0466,4.75109 2.10582,5.62447 1.98203,0.4325 3.93714,-1.14458 4.66896,-2.89544 0.52944,-1.30953 0.14551,-2.98347 -1.18649,-3.63181 -0.68428,-0.50224 -1.46199,-0.92691 -2.31665,-0.96842 z m 0.26458,1.20871 c 0.44739,-0.0208 1.37593,0.64455 0.39739,0.39843 0.68752,1.13571 2.71234,2.38455 1.02061,3.83852 -0.86555,1.1267 -2.80893,0.93368 -3.24631,-0.48059 -0.46531,-1.38898 -0.0725,-3.65615 1.74563,-3.74241 0.0248,-0.008 0.0529,-0.0126 0.0827,-0.014 z m -1.33429,0.30386 c 0.15638,0.11248 -0.14552,0.15117 0,0 z m 4.3062,1.0604 c 0.15146,0.0942 -0.15203,0.092 0,0 z m -5.60379,0.38499 c 0.14944,0.0915 -0.14945,0.0915 0,0 z" />
      <path
         id="centre_dot2"
         style="fill:#000000;stroke-width:0.0767625"
         d="m 116.07546,158.52521 c -0.0449,-10e-4 -0.0906,0.003 -0.13591,0.0134 -1.652,-0.0705 -2.51522,2.08573 -1.81591,3.38739 0.70689,1.13915 2.4787,1.70144 3.31195,0.36639 1.02135,-1.00114 0.8282,-3.05166 -0.863,-3.13935 0.0978,-0.33861 -0.18251,-0.61876 -0.49713,-0.62786 z m -0.70693,1.2609 c 0.62639,0.58889 2.63921,0.60856 1.47278,1.8557 -1.36887,1.12402 -2.59101,-0.76758 -1.47278,-1.8557 z m 2.15852,0.73122 c 0.15094,0.093 -0.15092,0.0932 0,0 z m 0.30696,0.077 c 0.15015,0.0923 -0.15015,0.0923 0,0 z m -1.84226,1.68827 c 0.14885,0.0923 -0.14884,0.0923 0,0 z" />
      <path
         id="centre_dot3"
         style="fill:#000000;stroke-width:0.0767625"
         d="m 115.67757,149.39605 c -1.70522,0.22531 -2.28162,2.33798 -1.8557,3.77806 0.0617,1.29392 1.53125,1.77981 2.56315,1.20768 1.10885,-0.59926 2.18052,-1.76527 1.78232,-3.12281 -0.045,-1.44164 -1.31375,-1.73008 -2.48977,-1.86293 z m -0.47594,0.40566 c 0.15054,0.0918 -0.15053,0.0919 0,0 z m 0.75086,0.78548 c 1.57209,-0.0673 1.84443,2.20292 0.34262,2.70733 -1.42089,0.90172 -1.97977,-1.13876 -1.40198,-2.14147 0.14903,-0.35442 0.51837,-0.58309 0.9033,-0.55191 0.0534,-0.007 0.10535,-0.0118 0.15606,-0.0139 z" />
    </g>
    <g
       id="button_etsy"
       transform="matrix(0.26458333,0,0,0.26458333,75.646208,104.54058)">
      <path
         id="etsy"
         style="fill:#000000;stroke-width:0.0767625"
         d="m 115.75759,82.72429 c -1.10741,0.77415 -1.50118,2.23823 -1.84973,3.49301 -0.39056,1.85347 -0.87488,3.71299 -0.98214,5.60515 0.11834,1.23896 0.82468,2.94391 2.13377,3.21771 1.09549,-0.0287 2.65155,-0.15694 2.78637,-1.53574 -0.90197,-0.76137 -1.82351,1.81611 -3.01575,0.48604 -1.06543,-0.9822 -1.25536,-2.38426 -0.9258,-3.7391 0.0964,-1.58266 0.51969,-3.10174 0.9816,-4.59953 0.15479,-1.08096 1.10309,-1.88755 1.19144,-2.7983 l -0.18075,-0.1096 z m -8.22947,2.49288 c -1.43202,-0.0607 -2.17922,1.47945 -2.29553,2.71041 -0.58001,1.38903 0.61988,3.01826 -0.7986,4.03896 -0.5469,1.40169 -0.31974,3.06356 0.35283,4.38384 0.91857,1.12007 2.53867,0.64815 3.73852,0.32467 0.70175,-0.1083 2.37324,-1.08339 1.46945,-1.54939 -1.16703,0.36076 -2.41381,1.28946 -3.65275,0.58094 -0.91186,-0.70494 -1.68757,-1.9703 -0.99315,-3.09091 0.44385,-1.7931 2.56165,-0.64461 3.42515,-1.61645 0.19003,-1.66163 -2.60689,0.15114 -2.66806,-1.36426 -0.0138,-1.28986 0.75769,-2.63371 1.9263,-3.17562 1.0396,-0.0555 2.12941,-0.34312 3.00363,-0.23295 0.47046,-1.46463 -2.00178,-0.53629 -2.80654,-0.89711 -0.24352,0.0222 -0.46535,-0.083 -0.70125,-0.11213 z m 14.55931,1.2733 c -1.33173,-0.0461 -2.57433,1.32125 -2.0037,2.61724 0.48864,1.19478 1.96785,1.08249 2.97256,1.56596 1.62392,-0.16741 2.18296,2.19524 0.44283,2.52715 -0.8087,0.67899 -1.80679,0.50397 -2.04807,-0.50716 -1.53203,-0.0427 -0.3544,1.97428 0.68349,1.73836 1.17392,-0.0483 2.3949,-0.7465 3.14081,-1.60498 0.83577,-1.31589 -0.50974,-2.94825 -1.92339,-2.90215 -1.12197,-0.0192 -3.49819,-0.84628 -1.94124,-2.15002 0.57146,-0.39496 1.37546,-0.40289 1.81153,-0.39839 0.37901,-0.77391 -0.62947,-0.89626 -1.13482,-0.88601 z m 8.87647,0.24857 c -1.16555,0.65074 0.69102,1.80576 0.76274,2.76365 0.32481,1.13049 0.29811,2.56305 -0.59817,3.44383 -0.66712,1.27046 -2.95152,1.54941 -3.39487,-0.0197 -0.63867,-1.04917 0.0161,-2.56216 -0.52862,-3.65745 -1.30597,-0.0507 -0.33078,2.10799 -0.49616,2.95684 0.0627,1.26627 1.14081,2.47373 2.40221,2.56638 1.1097,10e-4 2.41417,-0.70108 3.57733,-0.20127 1.35007,0.18172 2.13075,1.52071 1.74007,2.78153 0.46489,1.17999 0.82184,2.60145 -0.14039,3.65115 -0.64887,0.96475 -2.81548,1.49795 -3.17806,0.0574 0.28007,-1.03376 -1.16548,-1.89048 -1.24635,-0.4782 -0.0557,0.98649 0.21696,1.9313 1.17281,2.28887 1.12594,0.66761 2.84189,0.89637 3.87424,-0.0238 1.41924,-0.65697 1.51922,-2.43929 1.63289,-3.8054 -0.0756,-1.37186 -0.64979,-2.65238 -1.42401,-3.75217 -0.67491,-1.06121 -2.09279,-1.22132 -2.93352,-1.88474 0.61739,-0.88208 1.01443,-2.08219 0.80449,-3.2271 -0.26731,-1.2148 -0.91416,-2.31577 -1.61109,-3.32331 -0.16966,0.0597 -0.2702,-0.0821 -0.41554,-0.13652 z m -13.95988,3.40341 c -0.40132,1.33564 -2.75905,-0.50626 -2.67246,0.79663 1.00703,0.14246 2.32824,0.60298 3.11905,-0.27156 0.11217,-0.28963 -0.20437,-0.48757 -0.44659,-0.52507 z m -0.43873,1.08727 c -0.13851,0.0963 0.13763,0.099 0,0 z m -9.56169,5.44979 c 0.39852,0.18625 -0.26991,0.17506 0,0 z m 23.5319,5.68079 c 0.13718,0.0977 -0.13719,0.0977 0,0 z" />
      <rect
         style="fill:none;stroke-width:2.869;stroke-linecap:round;stroke-linejoin:round"
         id="rect864"
         width="42.668282"
         height="26.847458"
         x="97.801453"
         y="77.18644" />
    </g>
    <g
       id="button_contact"
       transform="matrix(0.26458333,0,0,0.26458333,75.646208,104.54058)">
      <path
         id="contact"
         style="fill:#000000;stroke-width:0.0767625"
         d="m 187.88707,150.81553 c -1.32424,0.79509 0.91024,1.39461 0.11422,2.5368 -0.27596,1.27164 -0.34931,2.56375 -0.43098,3.85764 -0.19553,1.72487 -0.13227,3.51183 0.39169,5.18108 0.50768,0.94541 1.47283,2.53482 2.71198,2.02003 0.98634,-0.0268 1.14149,-2.82906 0.13724,-1.29653 -0.57145,1.26403 -1.74364,-0.59991 -1.96298,-1.28264 -0.44074,-1.14786 -0.42166,-2.39951 -0.4056,-3.62011 0.0643,-1.25722 0.12975,-2.45977 0.25638,-3.70344 0.24064,-1.15927 0.73345,-2.58915 -0.35356,-3.42928 -0.13068,-0.11848 -0.27133,-0.24667 -0.45839,-0.26355 z m -13.3599,0.46974 c -0.89091,0.73345 0.78012,1.83536 0.5955,2.8693 0.37028,2.51216 -0.15304,5.06984 0.16198,7.58203 0.24675,1.4511 2.73573,1.06838 2.30893,-0.46554 -0.56245,-0.58836 -1.07854,1.02095 -1.3499,-0.19217 -0.37452,-1.04518 -0.0739,-1.98352 1.1665,-1.95298 0.94133,-0.15018 0.61589,-1.30505 -0.24834,-0.83258 -1.69654,0.33884 -0.76333,-1.9494 -1.01497,-2.95138 -0.007,-1.14947 -0.19259,-2.30722 -0.68339,-3.30625 -0.2435,-0.30445 -0.50941,-0.71463 -0.93631,-0.75043 z m 6.17326,6.16448 c -0.87389,-0.34129 -3.02236,1.49584 -1.25728,1.44539 0.73076,-0.97654 2.42719,0.0306 1.90151,1.07488 -1.05016,0.008 -3.3678,0.29054 -2.74849,1.82727 0.43561,1.01281 1.57432,1.51043 2.66142,1.37479 1.7698,-0.12038 1.09757,-1.86276 1.28172,-3.0371 0.19746,-0.84647 -0.3003,-1.86587 -0.95703,-2.24756 -0.29173,-0.14981 -0.52313,-0.45263 -0.88185,-0.43767 z m -17.45319,0.46612 c -1.57374,0.0932 -3.29819,0.17583 -4.57557,1.22749 -0.41963,0.23922 -0.80357,0.50121 -0.75406,1.03948 -0.089,0.83006 -0.45805,1.6694 -0.12462,2.48545 0.18952,0.65534 0.18537,1.40777 0.75361,1.87327 0.42402,0.47318 0.72776,1.1688 1.50066,0.92092 1.02516,-0.33177 2.76768,0.76169 3.27364,-0.31306 -0.0331,-1.31542 -2.22895,-0.38566 -2.91277,-1.31349 -0.81217,-0.48526 -1.69812,-1.58889 -1.45299,-2.59815 0.38389,-1.13515 1.68167,-2.20208 2.89484,-1.69652 0.55443,-0.20023 2.47729,-0.8586 1.39726,-1.62539 z m 7.21971,0.3142 c -0.68114,0.60944 0.0959,1.88853 -0.44672,2.75743 -0.36891,0.96486 1.21351,3.23444 1.43425,1.31939 -0.75361,-0.98645 0.58188,-3.83631 1.4124,-2.00073 0.17558,1.13848 -0.63833,2.10858 0.47173,3.03471 1.24076,-0.4099 0.42413,-1.88348 0.6056,-2.89187 0.29295,-1.58016 -1.23097,-2.24822 -2.53994,-1.94328 -0.26154,-0.32904 -0.59407,-0.16887 -0.93732,-0.27565 z m 14.67559,0.41547 c -1.28116,0.26689 -1.85491,1.8265 -1.99379,2.97884 -0.0136,1.12066 1.24894,1.74512 2.26579,1.47981 0.67783,0.24492 2.36979,-0.71071 1.23126,-1.09244 -1.17671,0.46061 -3.04139,0.13398 -2.14127,-1.49092 0.0368,-0.93161 2.72809,-1.04509 1.19859,-1.8051 -0.18167,-0.0515 -0.37132,-0.0816 -0.56058,-0.0702 z m 3.89176,0.76275 c -0.98301,0.72794 1.01465,1.75326 1.70796,1.86335 0.7157,0.2336 1.67543,-1.15702 0.4294,-0.83639 -0.76221,-0.29191 -1.28366,-1.01459 -2.13736,-1.02696 z m -23.15311,1.28571 c -1.59125,0.063 -2.41905,2.29783 -1.1598,3.31132 1.05267,1.07828 3.09626,0.12383 3.45525,-1.18122 0.49239,-1.28972 -0.94726,-1.48783 -1.72625,-1.97978 -0.16412,-0.11678 -0.3706,-0.16021 -0.5692,-0.15032 z m 14.79651,0.31523 c 1.26151,-0.17984 0.59394,2.08896 -0.4476,1.09897 -0.8995,-0.50957 -0.50561,-1.25611 0.4476,-1.09897 z m -14.76552,0.69659 c 0.33578,0.53616 1.90418,0.79598 0.81325,1.51232 -1.25325,1.00224 -2.4478,-1.12568 -0.81325,-1.51232 z m -6.46885,3.91036 0.0284,0.0155 z" />
      <rect
         style="fill:none;stroke-width:2.869;stroke-linecap:round;stroke-linejoin:round"
         id="rect870"
         width="42.188862"
         height="22.053268"
         x="155.57143"
         y="147.90073" />
    </g>
    <g
       id="button_about"
       transform="matrix(0.26458333,0,0,0.26458333,75.646208,104.54058)">
      <path
         id="about"
         style="fill:#000000;stroke-width:0.0767625"
         d="m 67.663235,151.32983 c -0.74586,0.0444 -0.85164,0.42857 -0.44314,1.08848 0.60499,1.21889 0.3428,2.65509 0.60595,3.96298 0.0895,1.19733 0.17228,2.39666 0.26117,3.5789 0.12945,1.03079 0.78888,2.30741 1.98931,2.23615 0.741,-0.0832 1.83338,-0.33491 2.09886,-0.96827 0.19344,-0.4734 -0.17347,-1.3206 -0.67154,-1.00103 0.0329,1.05714 -1.89116,1.57594 -2.24898,0.50841 -0.72502,-0.85891 -0.38158,-2.07878 -0.54622,-3.11454 0.0357,-1.10541 -0.25065,-2.20924 -0.28474,-3.32434 0.006,-0.99173 -0.0781,-2.13141 -0.78134,-2.91869 z m -8.39742,3.44475 c -0.83547,0.72602 -1.20113,1.8111 -1.57477,2.85243 -0.73105,1.90412 -0.61495,3.97801 -0.47366,5.97486 -0.0985,1.21409 1.21399,1.83192 2.25874,1.66375 0.99719,-0.29125 1.37279,-1.53129 1.61593,-2.27708 0.4064,0.0917 0.35149,1.07606 0.68782,0.53744 0.57554,0.82182 1.92079,0.5688 2.33887,-0.31368 1.08126,-0.8179 0.56569,-2.39179 -0.6854,-2.68047 -0.67264,-0.0634 -1.0052,-1.34017 -1.68758,-0.39479 -0.77429,0.35263 -0.8757,1.90746 -1.05007,2.0314 -0.60684,-1.02711 -2.07825,-0.54905 -2.72787,-0.90829 -0.12327,-0.95466 0.0912,-1.76558 0.28975,-2.72476 0.30617,-1.09576 0.65878,-2.16085 1.19199,-3.17353 0.0468,-0.18455 0.0903,-0.56837 -0.18375,-0.58728 z m -5.94848,1.84898 c -1.08843,0.0757 -1.84303,1.03527 -2.09909,2.02726 -0.32896,1.00105 -0.35691,2.05704 -0.60225,3.08046 -0.18049,1.61163 0.19733,3.21125 0.18791,4.82291 0.13923,1.32485 0.9792,0.11169 0.73277,-0.59679 -0.2697,-1.44331 -0.28691,-2.93823 -0.20598,-4.41013 0.23928,-1.1073 0.30268,-2.33952 0.8783,-3.31432 0.68487,-1.20187 2.10912,-0.26898 2.36028,0.78297 -0.12877,0.75247 1.06871,2.43312 -0.27145,2.19574 -1.02104,0.17714 -2.25945,0.56052 -2.40658,1.70303 0.61902,0.92108 1.84796,-0.19774 2.68373,-0.34562 1.04755,-0.86938 0.42589,1.04469 0.21204,1.45972 -0.3347,0.30525 0.42163,1.2842 0.73049,1.26559 0.64532,-0.96014 -0.007,-1.97617 0.36095,-3.06523 0.21537,-1.02687 -0.40513,-1.77521 -0.40621,-2.75305 0.0654,-1.15609 -0.83304,-1.94406 -1.55891,-2.70109 -0.16763,-0.12798 -0.39151,-0.15751 -0.596,-0.15145 z m 17.22427,0.95705 c -0.6954,-0.10783 -2.38954,1.02339 -0.99012,1.12086 0.48299,-0.0509 2.04016,-0.6147 0.99012,-1.12086 z m -3.73362,0.49867 c -1.28104,0.63436 -0.0313,1.82724 0.28231,2.64829 0.41812,0.90999 -0.77019,1.53448 -1.08628,0.46926 -0.79407,-0.66004 -0.0764,-2.47205 -1.08619,-2.62502 -0.96283,0.42579 -0.12888,1.62487 -0.0686,2.3158 0.24225,0.98527 1.08662,2.15486 2.24039,1.85648 1.27345,-0.59977 1.05587,-2.43765 0.29244,-3.37276 -0.41484,-0.35488 0.13857,-1.18556 -0.57409,-1.29205 z m 2.63809,0.37982 c 0.1385,0.0964 -0.13764,0.099 0,0 z m -2.6014,0.64028 c 0.3345,0.17069 -0.21314,0.15255 0,0 z m -5.03638,0.58807 c -0.21167,0.0818 0.20524,0.07 0,0 z m -6.52467,0.15348 c 0.31061,0.20676 -0.29996,0.18054 0,0 z m 17.02273,0.47801 c -0.0239,0.12352 0.0173,0.0314 0,0 z m -14.71744,0.74982 c 0.36605,0.12269 -0.1484,0.52058 0,0 z m 4.78007,0.0703 c 1.06342,-0.17432 2.301,1.28649 0.93861,1.86666 -1.09356,0.77905 -2.10519,-0.9728 -1.33954,-1.76719 l 0.17746,-0.0724 z m -6.66316,0.007 c 0.13778,0.0986 -0.13778,0.0986 0,0 z m 2.08979,0.63201 c 0.49088,1.03443 2.27829,0.0454 2.34189,1.45312 0.14634,1.31384 -2.04568,1.64695 -2.12386,0.33648 -0.14976,-0.58075 -0.13984,-1.24668 -0.21803,-1.7896 z m 8.88732,0.21238 c 0.13823,0.0999 -0.1391,0.0972 0,0 z m 0.60668,0.24392 c 0.1384,0.11743 -0.12128,0.16641 0,0 z m -3.31298,5.60276 c -1.64072,-0.0183 -2.90017,1.7159 -2.50331,3.27635 0.16592,1.09379 1.0002,2.06565 2.15583,2.11012 1.10368,0.2329 2.16328,-0.4915 2.84205,-1.23647 0.6039,-0.40349 0.0398,-2.11395 -0.43526,-1.11401 -0.21985,0.85351 -1.49023,1.5309 -2.41433,1.41283 -1.06235,-0.13016 -1.40572,-1.62849 -0.061,-1.62109 0.82728,-0.26098 1.90069,-0.99626 1.69964,-1.91926 0.29378,-0.58954 -0.831,-0.996 -1.28364,-0.90847 z m -5.13509,0.84181 c -1.11187,0.009 -1.72278,1.07715 -2.44257,1.68187 -0.76537,-0.73105 -2.10187,-0.51307 -2.87206,0.12054 -0.22187,0.45658 -0.3124,1.84801 -0.73867,0.65146 0.10833,-0.50401 0.25823,-1.04641 -0.573,-1.09857 -1.24542,0.52813 0.0406,1.91631 0.46883,2.54383 0.42428,0.804 1.19792,1.55301 1.76801,2.11911 0.92902,0.31022 0.92721,-0.7553 0.42748,-1.29709 -0.4799,-0.68894 -1.21284,-1.91032 -0.19849,-2.47736 1.01751,-0.66565 1.79507,2.16838 2.36782,0.7214 0.48128,-0.70737 0.96696,-1.81748 1.93292,-1.91191 0.67839,0.91096 0.79354,2.1859 0.77079,3.29374 -0.20685,0.68084 0.64943,1.57244 0.82785,0.51728 0.62469,-0.97358 -0.0108,-1.74641 -0.13949,-2.75788 -0.29035,-0.79948 -0.44145,-2.17719 -1.59942,-2.10642 z m 5.1723,0.14727 c 1.0121,0.40652 -1.24573,1.32482 -1.53686,1.14774 0.12632,-0.61966 0.89481,-1.0724 1.53686,-1.14774 z m -5.69836,0.45682 c 0.1385,0.0964 -0.13763,0.099 0,0 z m 1.15186,0.15348 c 0.42121,0.28831 -0.37592,0.14452 0,0 z m 4.37545,0.61392 c 0.13823,0.0999 -0.13909,0.0972 0,0 z m -11.28407,0.84439 c 0.13823,0.0999 -0.13908,0.0972 0,0 z m 1.53479,1.22835 c 0.13851,0.0964 -0.13763,0.099 0,0 z m 9.57358,0.40359 c 0.6192,0.2562 -0.0907,0.45949 0,0 z" />
      <rect
         style="fill:none;stroke-width:2.869;stroke-linecap:round;stroke-linejoin:round"
         id="rect876"
         width="27.087168"
         height="28.765133"
         x="47.462471"
         y="147.90073" />
    </g>
    <g
       id="button_instagram"
       transform="matrix(0.26458333,0,0,0.26458333,75.646208,104.54058)">
      <path
         id="instagram"
         style="fill:#000000;stroke-width:0.0767625"
         d="m 100.48603,230.65508 c -1.499053,0.38953 -3.097043,0.70408 -4.677413,0.75339 -1.24137,0.90175 0.38503,1.27888 1.17657,1.03741 0.31247,2.21333 -0.29571,4.43583 -6e-4,6.6588 -0.41904,1.41395 -3.96883,-1.13192 -3.60651,0.9791 1.5874,0.58155 3.48286,0.64244 5.08847,0.51581 1.675123,0.42392 0.36501,-2.00001 -0.4901,-1.70275 -0.65681,-2.21381 0.0457,-4.46435 0.14588,-6.68607 0.71284,-0.42929 3.943963,0.0803 2.363703,-1.55569 z m 9.93066,2.34094 c -1.3093,0.5801 1.19858,2.59042 -0.18715,3.65744 0.47288,1.1484 0.0387,2.50176 0.25739,3.94102 1.99229,0.67847 -0.30515,-3.06364 1.36739,-3.23076 1.44551,0.23503 0.86032,-1.81255 -0.38567,-1.0107 -0.53355,-0.92818 0.0539,-2.71468 -1.05196,-3.357 z m 14.17329,1.13585 c -1.63423,0.61031 -3.23055,2.39556 -1.61003,4.13449 0.70233,0.69427 1.25488,3.52418 2.28906,2.58138 -0.0507,-1.87021 -2.0805,-4.12576 -0.25076,-5.81027 0.0222,-0.30901 0.0469,-0.95802 -0.42827,-0.9056 z m 8.13904,0.69867 c -1.41919,0.9178 0.072,3.49987 0.0643,4.99081 0.19047,2.27998 2.76726,-0.34452 1.14031,-1.00759 -1.71634,-1.89995 2.07592,-3.92096 2.63613,-1.50846 -0.19627,1.11232 0.64699,2.31133 1.29176,0.73273 0.80663,-1.41034 3.25516,-2.87051 3.84688,-0.46192 0.20418,1.17521 0.69143,2.71246 0.24649,3.73929 0.69585,1.41586 1.91387,0.6842 1.5012,-0.71417 -0.10585,-1.97597 -0.53071,-4.39223 -2.3758,-5.4779 -1.54345,-0.86154 -2.89791,1.95566 -3.8171,1.42802 -0.5925,-2.13118 -2.83545,-0.89993 -4.0998,-1.10881 -0.0434,-0.268 -0.0739,-0.61667 -0.43434,-0.612 z m -5.37228,0.15555 c -1.96694,0.77905 2.33895,1.32899 0.93999,1.9529 -1.76058,0.7316 -2.46661,3.55265 -0.35605,4.34754 1.33452,0.65824 3.50951,0.6807 4.25557,-0.82146 0.24308,-1.97861 -1.82305,1.33569 -1.50948,-0.71333 -0.11715,-1.48476 -0.5361,-3.26682 -1.73584,-4.16844 -0.53561,-0.18833 -1.05205,-0.43127 -1.59419,-0.59721 z m -19.93677,0.13022 c -1.50487,-0.15863 -1.85706,3.22479 -2.64525,1.02318 -2.3634,-1.66491 -3.43466,2.29017 -1.55989,3.45113 1.69725,0.0991 -1.29121,-2.77454 0.70716,-2.81536 1.66465,0.61376 0.41678,4.28644 2.06086,4.02649 0.42216,-0.98888 -0.95944,-2.99258 0.93638,-2.0128 1.92616,-0.34386 1.31467,2.72037 0.0879,1.0379 -1.10037,-0.86766 -0.61015,1.80096 0.61285,1.30897 2.2827,0.697 1.64677,-2.74271 0.12709,-3.07292 -1.31676,0.0687 -1.98938,-1.14133 -0.63554,-1.83684 0.96297,0.10745 1.29186,-0.83091 0.30842,-1.10975 z m 8.19278,0.42168 c -2.04097,-0.0295 -1.26571,1.75453 0.34562,1.06268 0.83106,0.68643 0.77877,1.96736 -0.55411,1.42906 -1.72861,0.41782 -3.13058,3.00103 -1.3232,4.24377 1.13243,1.04391 2.5081,-0.99174 3.09146,-1.13919 1.03675,0.0368 1.89257,1.92075 3.13464,0.62942 0.59099,-0.84858 1.07464,-1.85151 1.75571,-0.4423 1.36036,1.22573 1.86424,3.4876 -0.3591,4.02102 -1.1634,-0.10876 -2.21012,-0.82196 -2.86454,-1.66564 -1.07696,1.56031 1.30047,2.04539 2.25351,2.5673 1.16513,0.26755 2.07737,-0.43352 2.71865,-1.3813 1.42356,-1.42082 -0.4589,-3.02102 -1.20807,-4.22955 -1.24808,-1.09227 -0.64708,-4.24061 -3.09468,-3.37134 -1.48275,-0.15116 -2.09149,3.73383 -2.11822,1.03094 0.0805,-1.1953 -0.36329,-2.70985 -1.77767,-2.75487 z m 19.75332,0.69918 c -0.0564,0.006 0.0133,0.005 0,0 z m -6.53242,1.56838 c 0.80529,0.28469 1.00527,2.65383 0.3296,2.98286 -2.01907,-0.12871 -2.30809,-2.60863 -0.3296,-2.98286 z m -12.64832,0.41238 c 0.13823,0.0999 -0.1391,0.0972 0,0 z m 3.39617,0.0486 c 2.2161,0.44433 -0.0361,4.52763 -0.97823,2.36937 -0.26237,-0.82786 0.0863,-2.08343 0.97823,-2.36937 z m -3.51244,0.66146 c 0.64277,0.67912 -0.10368,1.59998 -0.0874,0.26303 0.1708,-0.12474 -0.22591,-0.22361 0.0873,-0.26303 z m -0.66922,0.12506 c 1.41434,0.72359 -0.29414,3.64772 -1.18013,1.73546 -0.0894,-0.75667 0.65209,-1.32048 1.18013,-1.73546 z" />
      <rect
         style="fill:none;stroke-width:2.869;stroke-linecap:round;stroke-linejoin:round"
         id="rect882"
         width="56.092018"
         height="25.169498"
         x="89.411621"
         y="225.08717" />
    </g>
  </g>
</svg>
