<?xml version="1.0" encoding="UTF-8" standalone="no"?>
<svg
   xmlns:dc="http://purl.org/dc/elements/1.1/"
   xmlns:cc="http://creativecommons.org/ns#"
   xmlns:rdf="http://www.w3.org/1999/02/22-rdf-syntax-ns#"
   xmlns:svg="http://www.w3.org/2000/svg"
   xmlns="http://www.w3.org/2000/svg"
   xmlns:sodipodi="http://sodipodi.sourceforge.net/DTD/sodipodi-0.dtd"
   xmlns:inkscape="http://www.inkscape.org/namespaces/inkscape"
   width="75.936653"
   height="78.847748"
   viewBox="0 0 20.091572 20.861799"
   version="1.1"
   id="svg883"
   inkscape:version="1.0.1 (3bc2e813f5, 2020-09-07)"
   sodipodi:docname="moon.svg">
  <defs
     id="defs877" />
  <sodipodi:namedview
     id="base"
     pagecolor="#ffffff"
     bordercolor="#666666"
     borderopacity="1.0"
     inkscape:pageopacity="0.0"
     inkscape:pageshadow="2"
     inkscape:zoom="22.258087"
     inkscape:cx="27.837157"
     inkscape:cy="39.423873"
     inkscape:document-units="px"
     inkscape:current-layer="layer1"
     inkscape:document-rotation="0"
     showgrid="false"
     fit-margin-top="0"
     fit-margin-left="0"
     fit-margin-right="0"
     fit-margin-bottom="0"
     inkscape:window-width="3747"
     inkscape:window-height="2126"
     inkscape:window-x="82"
     inkscape:window-y="-11"
     inkscape:window-maximized="1"
     units="px"
     inkscape:pagecheckerboard="false" />
  <metadata
     id="metadata880">
    <rdf:RDF>
      <cc:Work
         rdf:about="">
        <dc:format>image/svg+xml</dc:format>
        <dc:type
           rdf:resource="http://purl.org/dc/dcmitype/StillImage" />
        <dc:title></dc:title>
      </cc:Work>
    </rdf:RDF>
  </metadata>
  <g
     inkscape:label="Layer 1"
     inkscape:groupmode="layer"
     id="layer1"
     transform="translate(-253.78159,150.28209)">
    <path
       id="moon"
       style="fill:#000000;stroke-width:0.0203101"
       d="m 267.11343,-150.28209 c -1.45458,0.17739 -2.91775,0.37731 -4.34127,0.71792 -1.57492,0.54532 -3.04639,1.39167 -4.26173,2.53549 -0.9224,0.71421 -1.64658,1.62758 -2.32506,2.56367 -1.36632,1.50269 -2.29702,3.45736 -2.32185,5.51213 -0.2288,1.85752 0.0162,3.77944 0.80361,5.48388 0.72424,1.12866 1.7748,2.07165 2.96391,2.70425 1.02216,0.58126 2.15906,0.96767 3.29443,1.25182 1.35226,0.22529 2.74189,0.0363 3.9881,-0.53019 1.03511,-0.28411 2.09811,-0.69713 2.79179,-1.56295 0.84541,-0.80455 1.68381,-1.65441 2.10539,-2.76076 0.62194,-1.0921 1.46186,-2.03566 2.01316,-3.17118 0.52106,-0.92866 0.43337,-2.16 1.20385,-3.01465 0.17229,-0.68587 1.12086,-1.82984 0.76699,-2.22537 -0.79219,0.57114 -1.36542,1.40683 -2.14223,2.01142 -0.99069,1.02812 -2.25316,1.73448 -3.477,2.44398 -1.06132,0.26385 -2.24917,0.71598 -3.32924,0.3647 -0.72349,-0.62491 -1.07415,-1.58599 -1.4089,-2.45804 -0.49199,-1.37895 -0.47225,-2.96135 0.29574,-4.2375 0.46724,-0.92123 0.96988,-1.8718 1.90105,-2.40673 0.73407,-0.57975 1.54638,-1.04286 2.47282,-1.22747 0.71757,-0.1752 1.47536,-0.23398 2.20203,-0.0776 0.96228,-0.89944 -0.79216,-1.88746 -1.66553,-1.74818 -0.51092,-0.0476 -1.02145,-0.10039 -1.53006,-0.16864 z m -0.92455,0.6068 0.003,0.03 z m 3.57418,0.0245 c 0.0653,0.0807 -0.0937,0.0215 0,0 z m -2.71786,0.14835 c 0.99823,0.2907 -1.36948,0.55482 -1.6649,0.94936 -1.17265,0.88251 -2.18449,2.03532 -2.74036,3.40832 -0.52113,1.06773 -1.10162,2.12614 -1.20727,3.33514 -0.0689,0.79066 -0.21154,0.51561 -0.16778,-0.11676 0.21726,-1.75377 0.92331,-3.43921 1.93214,-4.88519 0.88054,-1.17155 2.11351,-2.06742 3.45521,-2.63242 l 0.19317,-0.0414 z m 1.35524,0.0347 c 0.13203,0.027 0.0338,0.15261 0,0 z m -3.06939,0.007 c -0.50618,0.72474 -1.64954,1.20959 -2.13936,2.11986 -0.80751,1.1285 -1.40959,2.38604 -2.06744,3.60381 -0.54212,0.72454 -0.3608,2.34621 -0.80563,2.6899 -0.46406,-1.66847 0.31675,-3.31117 1.17469,-4.70185 0.53295,-0.95729 0.98324,-2.00905 1.94649,-2.62325 0.53762,-0.50386 1.12477,-1.00385 1.89125,-1.08847 z m 0.94096,0.006 v 0.0195 z m -0.3168,0.009 c 0.48873,0.32696 -1.03657,0.49189 -1.20144,0.93202 -1.45157,0.99577 0.95023,-1.26999 1.20144,-0.93202 z m -1.64647,0.11485 c -0.88844,0.79132 -2.05521,1.36957 -2.51288,2.54176 -0.72291,1.4977 -1.88049,2.91798 -1.82178,4.66775 0.0484,1.8434 0.74654,3.60315 1.42189,5.29474 0.63487,1.36948 2.18192,2.31621 3.69992,2.08468 0.87469,0.22213 1.8135,0.15873 2.55444,-0.39797 0.49489,-0.30687 1.07926,-0.26377 0.26241,0.12603 -0.85692,0.43854 -1.78546,1.02428 -2.78052,0.76418 -0.99927,0.0983 -1.97211,-0.19555 -2.79255,-0.76046 -1.0659,-0.77812 -1.82309,-1.89739 -2.5677,-2.96561 -0.91637,-1.66146 -1.11157,-3.68381 -0.51371,-5.48773 0.517,-1.87861 1.56514,-3.61459 3.08452,-4.84824 0.65262,-0.34077 1.18127,-0.99118 1.96596,-1.01913 z m 1.9634,0.0386 -9e-5,0.0194 z m 1.95261,0.11335 c 0.53154,-0.10883 1.71557,0.29189 0.50361,0.28178 -0.92509,0.0224 -2.43508,0.61023 -2.89223,0.6983 0.56833,-0.63377 1.4744,-0.85295 2.28166,-0.97945 l 0.0581,-3.4e-4 0.0489,-2.9e-4 z m -5.85398,0.0324 0.003,0.03 z m 0.65027,0.11048 c 0.16535,0.19005 -0.32449,0.017 0,0 z m -0.42002,0.21972 c -0.71924,0.6833 -1.5004,1.30201 -2.10527,2.09494 0.40495,-0.67944 0.9779,-1.31908 1.59145,-1.83981 0.16467,-0.0955 0.31251,-0.24375 0.51382,-0.25513 z m -0.97063,0.22478 c 0.18581,0.0848 -0.18869,0.009 0,0 z m 0.76253,0.0507 v 0.0194 z m 3.25479,0.14261 c -0.56725,0.91906 -1.54205,1.50175 -2.08674,2.44669 -0.44609,0.54168 -1.09829,1.83404 -1.27632,1.9959 0.34101,-0.90981 0.8255,-1.77084 1.33325,-2.59583 0.58392,-0.67833 1.19389,-1.4873 2.02981,-1.84676 z m -4.40822,0.0517 c -0.24673,0.41928 -0.72295,0.28174 -0.0851,0.0552 l 0.0459,-0.0263 z m 4.45197,0.27865 -0.0243,0.0429 z m 0.50945,0.11609 c 0.0213,0.1915 -0.27241,0.0384 0,0 z m -5.19673,0.072 c 0.14452,0.17388 -0.3215,0.13533 0,0 z m -0.086,0.11841 c -0.50642,0.82244 -1.23925,1.49418 -1.59469,2.41363 -0.88335,1.60292 -1.66772,3.43196 -1.25135,5.29713 0.3625,1.81203 1.36872,3.47414 2.68877,4.75314 0.78523,0.69376 1.73034,1.19595 2.77809,1.3396 0.43797,0.2157 2.19962,0.2674 0.76172,0.34791 -2.01559,0.0379 -3.9958,-0.87053 -5.25071,-2.45412 -0.95624,-1.07661 -1.45982,-2.51748 -1.68212,-3.92357 -0.0983,-2.05767 0.74014,-4.01995 1.6,-5.83852 0.55129,-0.72407 1.22179,-1.40136 1.95029,-1.9352 z m -0.45571,0.0602 c -0.75692,0.84251 -1.76494,1.50731 -2.11236,2.64874 -0.81258,2.00902 -1.66796,4.24856 -0.9517,6.41901 0.68336,2.33445 2.53547,4.47331 4.98425,4.98165 1.29569,0.39756 2.67055,0.20983 3.98168,-0.009 0.9011,-0.10445 1.70386,-0.66882 2.51849,-1.02545 0.57786,-0.52652 1.06702,-1.11611 1.53133,-1.74276 -0.36543,0.90307 -0.97448,1.77428 -1.74785,2.37122 -1.22473,0.88284 -2.78477,0.90798 -4.22203,1.11511 -2.34009,0.17192 -4.50704,-1.19504 -6.07404,-2.82288 -1.10302,-0.99694 -1.7922,-2.37241 -1.97847,-3.84305 -0.26653,-1.6374 0.0327,-3.33874 0.63028,-4.87178 0.67499,-1.42907 1.92846,-2.48143 3.33456,-3.15136 0.0293,-0.0321 0.0691,-0.0485 0.10586,-0.0695 z m -0.44696,0.52981 0.004,0.0917 z m 0.32882,0.58397 c -0.54749,1.21977 -1.26043,2.38344 -1.48373,3.72493 -0.48432,2.02804 -0.0758,4.27559 1.27828,5.89136 0.73053,0.98233 1.5358,1.99331 2.69375,2.48475 -0.49571,0.21046 -1.50429,-0.65358 -2.02353,-1.1236 -1.66399,-1.69583 -2.81844,-4.07601 -2.5307,-6.49441 0.32492,-1.61887 1.18163,-3.12233 2.06593,-4.48303 z m -2.70405,0.48374 v 0.0196 z m 4.60032,0.69061 c 0.0784,0.0457 -0.077,0.0263 0,0 z m -1.14755,0.30462 -8e-5,0.0194 z m 2.55721,0.23354 c 5.3e-4,0.18473 -0.26404,0.46873 -0.0855,0.13034 z m -0.43014,0.26374 c 0.14841,0.0387 -0.0573,0.0688 0,0 z m -0.0859,0.15259 c 0.0798,0.049 -0.0798,0.049 0,0 z m -6.48921,0.28439 9e-5,0.0194 z m 5.91838,0.0204 c 0.15231,0.0984 -0.0724,0.092 0,0 z m -5.95311,0.0187 c 0.0578,0.27372 -0.28668,0.08 0,0 z m 5.93342,0.0938 c -0.22172,1.09675 -0.42175,2.22833 -0.35647,3.34691 0.12039,0.42769 0.39688,2.08141 0.006,0.91318 -0.31572,-1.33192 -0.27528,-2.78949 0.21783,-4.06988 z m -6.36616,0.0386 c 0.14557,0.1278 -0.20126,0.22065 0,0 z m 5.12085,0.0183 c 0.0986,0.022 -0.061,0.0588 0,0 z m -4.90742,0.13522 c -0.78557,2.0478 -1.36529,4.48959 -0.29671,6.54554 0.19932,0.40949 0.84911,1.20354 0.82715,1.31625 -0.95646,-0.59741 -1.42402,-1.65515 -1.57952,-2.72401 -0.59108,-1.44527 0.0547,-3.00505 0.5634,-4.37322 0.14114,-0.26176 0.25445,-0.5689 0.48568,-0.76456 z m -0.58054,0.0443 0.003,0.0299 z m 5.55673,0.0775 c -0.33709,1.38834 -0.48512,2.83995 -0.142,4.2435 0.17309,0.91967 0.56086,1.78155 0.89159,2.64468 -0.5957,-0.62256 -0.97863,-1.4795 -1.28455,-2.29434 -0.34832,-0.93797 -0.20435,-1.94161 0.0299,-2.8823 0.0938,-0.58809 0.21896,-1.18319 0.5051,-1.71154 z m 0.71919,0.2271 0.003,0.0299 z m -0.008,0.0572 c 0.0799,0.0489 -0.0797,0.0495 0,0 z m -0.03,0.061 c -0.24508,1.62217 -0.49682,3.46877 0.54806,4.8829 0.50524,0.66883 0.92893,1.44513 1.60884,1.94949 1.35633,0.65948 2.93842,0.14445 4.2358,-0.42616 0.48861,-0.16033 1.66421,-0.67429 0.64958,0.0443 -1.37497,1.04778 -3.23011,1.45777 -4.92316,1.14612 -1.10487,-0.40182 -1.92138,-1.37303 -2.29176,-2.47771 -0.61616,-1.61187 -0.45589,-3.44771 0.0985,-5.0568 l 0.0445,-0.0373 0.0297,-0.0248 z m -6.42277,0.47144 c 0.11348,0.0138 -0.0174,0.0561 0,0 z m 0.46843,0.55935 c 0.0542,1.15644 -0.17405,2.32997 0.16515,3.46545 0.34821,1.9574 1.83595,3.39401 3.32176,4.57946 0.86301,0.67937 1.90001,1.06245 2.92396,1.42291 -1.82519,-0.35099 -3.52579,-1.31908 -4.77628,-2.69665 -1.04624,-1.09084 -2.01878,-2.43484 -1.95984,-4.02046 -0.0528,-0.92889 0.16216,-1.84298 0.32525,-2.75071 z m 4.53442,0.76349 c 0.0986,0.0222 -0.0609,0.0586 0,0 z m 1.79988,0.0224 c 0.15052,0.76189 -0.0411,0.62508 -0.004,7.9e-4 z m -7.31505,0.1128 c -0.24301,1.04374 -0.47557,2.11875 -0.21815,3.1863 0.19021,1.40621 0.8575,2.75044 1.988,3.63186 1.38093,1.40163 3.26651,2.09971 5.03164,2.8769 0.42512,0.22464 1.67155,0.27638 1.66787,0.51055 -1.94322,0.18587 -3.65715,-0.90632 -5.36833,-1.63844 -1.36541,-0.87358 -2.41498,-2.17956 -3.29135,-3.53028 -0.54448,-1.25527 -0.51287,-2.71759 -0.21222,-4.03284 0.0977,-0.34776 0.23009,-0.68641 0.40254,-1.00405 z m -0.57316,0.0852 -0.029,0.0354 z m -0.0391,0.0559 c 0.0654,0.23055 -0.23495,0.28077 0,0 z m 6.77511,0.14315 -9e-5,0.0195 z m 0.0141,0.0427 c 0.12047,0.16109 -0.0461,0.41598 0,0 z m 11.27261,0.0257 c -0.0675,0.53486 -1.60739,1.89635 -0.77026,0.79962 0.23484,-0.28695 0.50812,-0.53847 0.77026,-0.79962 z m -18.25363,0.60201 c 0.10896,0.0302 -0.0778,0.0662 0,0 z m 8.24643,0.0812 9e-5,0.0194 z m 0.0406,0 9e-5,0.0194 z m 9.67769,0.0202 c 0.0905,0.0966 -0.0934,0.12629 0,0 z m -9.68781,0.0406 c 0.0798,0.049 -0.0798,0.0489 0,0 z m 0.0178,0.061 c 0.13965,0.15331 -0.0802,0.18167 0,0 z m 9.59005,0.0208 c -0.38422,0.94598 -1.35655,1.44664 -1.96547,2.22474 -1.05537,0.68327 -0.2358,-0.42525 0.26628,-0.61384 0.56018,-0.57445 1.08514,-1.09015 1.69919,-1.6109 z m -0.78318,0.48688 v 0.0195 z m -0.20727,0.12921 c 0.11934,0.007 -0.0485,0.092 0,0 z m 0.0245,0.0942 v 0.0195 z m -0.96475,0.0408 c 0.0848,0.0698 -0.0831,0.0524 0,0 z m -7.36221,0.10596 c 0.28516,0.0997 -0.0426,0.36214 0,0 z m -0.22793,0.003 0.008,0.0476 z m 7.51904,0.0532 v 0.0194 z m 0.69047,0.007 -0.0635,-0.0266 z m 1.06757,0.0424 c 0.0758,0.52787 -0.88016,1.26037 -0.23733,0.3632 0.065,-0.129 0.1309,-0.26206 0.23733,-0.3632 z m -0.0113,0.0319 v 0.0196 z m -14.48297,0.0443 0.003,0.03 z m 6.2055,0.0573 c 0.10924,0.0298 -0.0778,0.0664 0,0 z m -2.925,0.002 c 0.21294,0.0738 -0.0494,0.20076 0,0 z m 10.9271,0.0585 c 0.10892,0.0304 -0.0778,0.0662 0,0 z m -1.0245,0.0814 v 0.0194 z m -0.003,0.0407 c -0.24397,0.34612 -0.34956,0.16094 0,0 z m 0.14371,0.0238 0.003,0.03 z m 0.71275,0.0167 v 0.0194 z m -1.36713,0.0444 c -0.13506,0.3208 -0.44748,0.0577 0,0 z m 1.28359,0.044 c -0.3753,0.86535 -1.267,1.37375 -1.91779,2.02264 -0.7578,0.7195 -1.74811,1.03438 -2.72146,1.33257 -1.00781,0.31824 -2.15422,0.43969 -3.12182,-0.0731 -0.98221,-0.71131 0.93196,0.27701 1.36542,0.15548 0.83598,-0.14104 1.74207,-0.10058 2.52916,-0.48064 1.45765,-0.48558 2.53764,-1.62731 3.57476,-2.69822 l 0.14952,-0.13012 z m -8.02958,0.0131 c 0.22657,0.15363 -0.1042,0.092 0,0 z m -8.22906,0.0477 c 0.056,0.27853 -0.0751,0.0776 0,0 z m 0.0349,0.12251 c 0.3386,0.45319 0.13233,1.474 0.002,0.39498 -0.0224,-0.12775 -0.0789,-0.27171 -0.002,-0.39498 z m 8.3193,0.0141 0.0523,0.0705 z m -9.68097,0.0797 -9e-5,0.0194 z m 9.74824,0.0202 -8e-5,0.0196 z m 6.23709,0.0614 c -0.30587,0.96382 -1.43464,1.27897 -2.29229,1.57404 -0.40507,0.15667 -1.44674,0.21352 -0.483,-0.0815 0.94349,-0.37982 1.87241,-0.85338 2.72437,-1.3888 z m -6.07261,0.002 c 0.13844,0.0351 -0.0699,0.14211 0,0 z m 5.25361,0.0454 0.007,0.0476 z m -10.35353,0.0939 -9e-5,0.0194 z m 12.70989,0.0448 c 0.11491,0.014 -0.0186,0.056 0,0 z m -0.0216,0.0369 c -0.63084,0.94646 -1.5477,1.67001 -2.43429,2.36224 -1.11227,0.45957 -2.22716,1.52477 -3.49173,1.03873 -0.89363,5.3e-4 -1.84209,-0.0731 -2.57952,-0.64583 -0.45035,-0.22455 -1.32097,-1.37368 -1.07543,-1.34533 0.66073,0.78647 1.50993,1.44633 2.49558,1.76005 0.93286,0.0296 1.66061,0.0217 2.52292,-0.20181 1.10425,-0.38783 2.23432,-0.76659 3.09045,-1.6204 0.53871,-0.39623 0.92038,-0.96587 1.47202,-1.34765 z m -8.017,0.0401 8e-5,0.0194 z m 8.40831,0.1828 v 0.0194 z m -0.0178,0.10938 c 0.0742,0.0432 -0.0875,0.09 0,0 z m -0.42768,0.0979 c -0.0528,0.3958 -0.54186,0.43885 0,0 z m -0.97623,0.0161 v 0.0194 z m 0.73108,0.12183 8e-5,0.0196 z m -6.72247,0.14219 9e-5,0.0194 z m 1.40638,0.0321 c 0.61741,0.0523 -0.38622,0.23376 0,0 z m -1.73548,0.0157 c 0.11957,0.008 -0.0485,0.092 0,0 z m -9.72144,0.0818 c 0.0982,0.0387 -0.0733,0.0899 0,0 z m 9.65444,0.15464 c 0.0551,0.0211 -0.0548,0.0215 0,0 z m 7.70759,0 9e-5,0.0195 z m -9.95374,0.004 0.003,0.03 z m 2.30426,0.0259 c 0.53698,0.47 2.11498,0.25217 2.14202,0.70979 -0.71374,0.12511 -1.98289,0.0583 -2.14202,-0.70979 z m -3.68343,0.0112 -9e-5,0.0194 z m 8.71294,0.0202 v 0.0196 z m -2.35034,0.003 c 0.14356,0.0828 -0.19753,0.0574 0,0 z m 4.23855,0.003 c -0.0536,0.57465 -0.76796,0.49992 -0.067,0.11455 0.0289,-0.0358 0.007,-0.10297 0.067,-0.11455 z m -15.33711,0.13413 c 0.82782,0.8743 1.72832,1.69568 2.42062,2.68263 0.3001,0.36794 1.59726,0.97214 1.303,1.10268 -1.39786,-0.66165 -2.64256,-1.72392 -3.4403,-3.05277 -0.12198,-0.2322 -0.22228,-0.47709 -0.28333,-0.73264 z m 8.41023,0.026 0.003,0.03 z m -1.97106,0.2442 c 0.14759,-0.004 -0.0419,0.0996 0,0 z m -0.38311,0.0771 9e-5,0.0196 z m 9.28173,0.10159 -9e-5,0.0194 z m -0.009,0.0406 c 0.0453,0.0604 -0.0774,0.0376 0,0 z m 0.31365,0.10159 v 0.0194 z m -4.16362,0.0202 v 0.0195 z m 3.10276,0.0223 c -0.75583,0.85787 -1.69115,1.56574 -2.66563,2.15542 -0.93628,0.43317 -2.06653,0.71584 -3.0519,0.27778 1.06192,0.006 2.07167,0.0844 3.03142,-0.54444 1.00282,-0.46891 1.84721,-1.18175 2.68611,-1.88876 z m -5.23515,0.16052 -9e-5,0.0195 z m 3.45263,0 -8e-5,0.0195 z m -11.3139,0.001 c 0.0703,0.047 -0.0423,0.0544 0,0 z m 9.38441,0.54718 -9e-5,0.0194 z m 4.22446,0 v 0.0194 z m -13.4407,0.0624 c 0.89605,0.73531 1.6453,1.66113 2.74496,2.11238 1.21805,0.58291 2.53797,1.14833 3.92059,0.9689 1.09288,0.0393 2.1716,-0.11633 3.25408,-0.2751 1.27357,-0.29715 -0.39925,0.51655 -0.85238,0.45396 -1.2861,0.26469 -2.6311,0.47099 -3.93823,0.2764 -1.2821,-0.29109 -2.3728,-0.93281 -3.35354,-1.77601 -0.72703,-0.44534 -1.21947,-1.13451 -1.77551,-1.76061 z m 12.37983,0.0219 c -0.20326,0.48142 -1.89785,1.60345 -0.81828,0.68589 0.26763,-0.23452 0.52876,-0.47793 0.81828,-0.68589 z m -0.84948,0.0185 c 0.07,0.047 -0.0418,0.0546 0,0 z m -1.37986,0.0598 v 0.0196 z m -0.28439,0.0812 9e-5,0.0195 z m -11.88747,1.4e-4 c 1.06619,1.34454 2.23001,2.78596 3.95292,3.27472 1.15675,0.45918 2.26103,1.26314 3.55935,1.18067 0.54304,0.13775 1.96976,-0.15585 1.9346,0.17119 -1.71332,0.72556 -3.58033,-0.0709 -5.14461,-0.80834 -1.17106,-0.6254 -2.33543,-1.34779 -3.19918,-2.37613 -0.4223,-0.43214 -0.88858,-0.8614 -1.10311,-1.44219 z m 11.64382,0.10145 -8e-5,0.0196 z m -2.6402,0.10159 v 0.0194 z m -9.32165,0.0204 -9e-5,0.0194 z m 0.12989,0.025 c 0.17,-0.0118 -0.0523,0.11637 0,0 z m 7.8919,0.0358 v 0.0195 z m 4.81334,0 v 0.0195 z m 1.58016,0.0305 c 0.1258,0.11386 -0.0725,0.0687 0,0 z m -4.26097,0.0305 9e-5,0.0194 z m -9.9603,0.0213 c 0.55662,0.87181 1.02742,1.80732 1.71555,2.57625 -0.77629,-0.36032 -1.25715,-1.30444 -1.58061,-2.10908 -0.0622,-0.17376 -0.19501,-0.28869 -0.13497,-0.46725 z m -0.30682,0.0803 c 0.31447,0.39751 -0.0319,0.68219 0,0 z m 12.28778,0.14198 c 0.0546,0.0211 -0.0547,0.0211 0,0 z m -9.28159,0.0406 c 0.0789,0.0456 -0.0771,0.0268 0,0 z m 8.92624,0.12182 v 0.0195 z m -4.02128,0.36561 v 0.0195 z m 5.64601,0 8e-5,0.0195 z m -13.68872,0.0204 c 0.17829,0.0895 -0.0657,0.14449 0,0 z m 8.49691,0.0126 c 0.20702,0.0874 -0.179,0.069 0,0 z m -1.96736,0.0697 c 0.21601,0.0206 0.0246,0.15846 0,0 z m 2.85363,0.14111 v 0.0194 z m -8.97642,0.0812 v 0.0195 z m 1.01835,0.0684 c 1.18927,1.48875 2.92281,2.45417 4.67875,3.1155 0.45316,0.18842 1.6027,0.3775 1.6941,0.54519 -1.1564,-0.13599 -2.22714,-0.64552 -3.32376,-1.01056 -1.28309,-0.50728 -2.31278,-1.46071 -3.08286,-2.58984 l 0.0284,-0.0507 0.005,-0.01 z m 12.74926,0.15874 0.003,0.03 z m -0.16489,0.0366 c -0.0466,0.53964 -1.6017,0.66675 -0.54613,0.26391 0.16563,-0.1175 0.3499,-0.2101 0.54613,-0.26391 z m -13.4824,0.0357 c 0.38652,0.49552 0.39464,0.97495 0.0362,0.17821 z m 13.08042,0.0256 9e-5,0.0194 z m 0.95791,0.0377 c -0.19418,0.69028 -0.50928,0.43322 0,0 z m -1.71155,0.4769 c 0.0581,0.0593 -0.0982,0.0232 0,0 z m -0.12975,0.0336 c 0.0548,0.0213 -0.0548,0.0213 0,0 z m -0.18663,0.0267 c -0.33905,0.34418 -1.87177,0.2054 -0.5743,0.12336 0.19341,-0.0305 0.38709,-0.0645 0.5743,-0.12336 z m -11.58723,0.20687 c 0.1544,0.0554 0.0635,0.26461 0,0 z m 10.22009,0.0305 v 0.0195 z m -1.58398,0.0408 -9e-5,0.0194 z m 1.86823,0.0812 9e-5,0.0194 z m -10.37116,0.0107 -0.004,0.0504 z m 10.24934,0.0299 9e-5,0.0194 z m -3.06665,0.1422 v 0.0194 z m 4.4785,0.14452 c -0.67441,0.77721 -1.84054,0.75683 -2.78308,0.91205 -0.55562,0.0645 -1.86646,-0.13168 -1.90611,-0.30306 1.34203,-0.12072 2.72541,-0.0366 4.0087,-0.50986 0.23722,0.073 0.4454,-0.11373 0.68049,-0.0991 z m 1.11802,0.0179 c 0.0448,0.0607 -0.0768,0.037 0,0 z m -0.39569,0.0487 c 0.0768,0.16136 -0.24343,0.13431 0,0 z m -11.5313,0.034 c 0.80695,0.63025 1.87674,0.82596 2.6385,1.507 0.37945,0.18873 1.79591,0.72384 0.68615,0.41314 -1.27719,-0.28333 -2.53056,-0.83253 -3.32465,-1.92014 z m -0.5141,0.0595 v 0.0196 z m 3.1904,0.0422 c 0.0494,0.0373 -0.0932,-0.002 0,0 z m -3.15403,0.003 c 0.11348,0.0138 -0.0174,0.0561 0,0 z m 9.93583,0.0567 v 0.0194 z m -2.29496,0.14206 8e-5,0.0195 z m 4.05327,0.003 c 0.0722,0.0733 -0.12495,0.04 0,0 z m -5.78096,0.0108 c 0.37951,0.007 -0.14417,0.13451 0,0 z m 0.30668,0.10815 c 0.34228,0.0693 -0.15654,0.12478 0,0 z m 0.172,0.0608 c 0.0546,0.0211 -0.0546,0.0211 0,0 z m 5.14846,0.061 v 0.0195 z m -2.1019,0.24365 c 0.0548,0.0213 -0.0548,0.0213 0,0 z m 0.47061,0.0423 c -0.21414,0.57658 -1.9597,0.27521 -0.74348,0.10769 0.24793,-0.0352 0.49674,-0.0646 0.74348,-0.10769 z m -4.92874,0.0999 -9e-5,0.0195 z m 0.79206,0.10159 v 0.0196 z m -5.02678,0.0202 c 0.08,0.0492 -0.08,0.0492 0,0 z m 7.007,0.0204 c 0.0547,0.0211 -0.0546,0.0211 0,0 z m -1.04596,0.10159 9e-5,0.0194 z m -0.93617,0.0239 0.003,0.03 z m 0.95654,0.0167 v 0.0194 z m 0.45694,0.0812 c 0.0546,0.0211 -0.0546,0.0211 0,0 z m 3.8702,0 c 0.0745,0.0643 -0.10388,0.007 0,0 z m -1.42469,0.14588 0.003,0.03 z m 0.1843,0.12989 c 0.0103,0.0868 -0.11915,0.0121 0,0 z m -1.01506,0.0898 -8e-5,0.0194 z m 0,0.12183 -8e-5,0.0195 z m -4.24661,0.0204 c 0.1194,0.0617 -0.0981,0.0729 0,0 z m 5.23912,0.0608 c 0.13806,0.008 -0.0727,0.0841 0,0 z m 0.18294,0.007 c 0.0608,0.0584 -0.0984,0.0225 0,0 z m -6.42509,0.0134 c 0.1825,0.0978 -0.12519,0.11146 0,0 z m 1.30903,0 c 0.54433,0.0831 0.48849,0.48411 0.0371,0.11221 z m 1.45259,0 c 0.0546,0.0211 -0.0546,0.0211 0,0 z m 1.87685,0.0239 0.003,0.03 z m -3.21746,0.15888 c -0.0546,0.0211 0.0546,0.0211 0,0 z m 1.73657,0.10145 9e-5,0.0195 z m 1.23902,0 -9e-5,0.0195 z m -1.05622,0.0204 9e-5,0.0196 z m 0.33143,0.24378 c 0.13183,0.0392 -0.019,0.0888 0,0 z m -2.67726,0.0812 c 0.0546,0.0211 -0.0546,0.0211 0,0 z m -0.40033,0.004 c 0.11347,0.0138 -0.0174,0.0561 0,0 z m 1.80179,0.0364 c 0.0784,0.0458 -0.077,0.0266 0,0 z m -1.31012,0.0608 8e-5,0.0195 z" />
  </g>
</svg>
