<?xml version="1.0" encoding="UTF-8" standalone="no"?>
<svg
   xmlns:dc="http://purl.org/dc/elements/1.1/"
   xmlns:cc="http://creativecommons.org/ns#"
   xmlns:rdf="http://www.w3.org/1999/02/22-rdf-syntax-ns#"
   xmlns:svg="http://www.w3.org/2000/svg"
   xmlns="http://www.w3.org/2000/svg"
   xmlns:sodipodi="http://sodipodi.sourceforge.net/DTD/sodipodi-0.dtd"
   xmlns:inkscape="http://www.inkscape.org/namespaces/inkscape"
   width="210mm"
   height="297mm"
   viewBox="0 0 210 297"
   version="1.1"
   id="svg6265"
   inkscape:version="1.0.1 (3bc2e813f5, 2020-09-07)"
   sodipodi:docname="star-2.svg">
  <defs
     id="defs6259" />
  <sodipodi:namedview
     id="base"
     pagecolor="#ffffff"
     bordercolor="#666666"
     borderopacity="1.0"
     inkscape:pageopacity="0.0"
     inkscape:pageshadow="2"
     inkscape:zoom="0.35"
     inkscape:cx="301.42857"
     inkscape:cy="560"
     inkscape:document-units="mm"
     inkscape:current-layer="layer1"
     inkscape:document-rotation="0"
     showgrid="false"
     inkscape:window-width="3747"
     inkscape:window-height="2126"
     inkscape:window-x="82"
     inkscape:window-y="-11"
     inkscape:window-maximized="1" />
  <metadata
     id="metadata6262">
    <rdf:RDF>
      <cc:Work
         rdf:about="">
        <dc:format>image/svg+xml</dc:format>
        <dc:type
           rdf:resource="http://purl.org/dc/dcmitype/StillImage" />
        <dc:title></dc:title>
      </cc:Work>
    </rdf:RDF>
  </metadata>
  <g
     inkscape:label="Layer 1"
     inkscape:groupmode="layer"
     id="layer1">
    <path
       id="star7"
       style="fill:#000000;stroke-width:0.200843;stroke-linecap:round;stroke-linejoin:round"
       d="M 1.8471612,5.4596518e-4 C 1.6150512,0.04684597 1.3883812,0.11290597 1.1769012,0.21975597 c -0.22087004,0.0637 -0.42351004,0.1682 -0.61382004,0.29467 -0.19968,0.0905 -0.29935,0.29777 -0.39769,0.48093 -0.23896,0.45111003 -0.18258,0.98663003 -0.0585,1.46296003 0.0659,0.21603 0.16294,0.42363 0.26835,0.62351 0.0962,0.16187 0.20458,0.33205 0.3926,0.39657 0.20483,0.10379 0.39640004,0.248 0.63032004,0.27884 0.21732,0.0569 0.44591,0.0277 0.66703,0.0542 0.21163,-0.0361 0.42765,-0.0659 0.62983,-0.14096 0.24262,-0.0837 0.48038,-0.19496 0.67027,-0.37149 0.25205,-0.30872 0.32486,-0.72803 0.32215,-1.11747 0.002,-0.23561 -0.0622,-0.46363 -0.12217,-0.68937 -0.136,-0.29553 -0.30177,-0.58237003 -0.51053,-0.83292003 -0.13523,-0.15355 -0.30329,-0.27199 -0.43716,-0.42715 -0.21959,-0.16403 -0.49722,-0.23931 -0.77039,-0.23153000482 z M 2.0071312,0.14150597 c 0.14816,-0.0476 0.17843,0.11878 0.0168,0.0664 -0.0439,-0.005 -0.10169,-0.0605 -0.0168,-0.0664 z m -0.077,0.0334 c 0.0444,0.026 -0.043,0.0249 0,0 z m 0.44683,0.0407 c 0.0445,0.0259 -0.043,0.0247 0,0 z m 0.0407,0 c 0.0444,0.0264 -0.0434,0.0242 0,0 z m -0.033,0.0406 c 0.17909,0.0954 -0.0761,0.11059 0,0 z m -0.66805,0.0172 c 0.19007,-0.01 0.37004,0.0747 0.55558,0.0944 0.112,0.0378 0.11578,0.20586 -0.0299,0.13131 -0.31835,-0.0213 -0.64338,-0.0174 -0.95659,0.0413 -0.15095,0.10807 -0.34015004,-0.0196 -0.13399,-0.14085 0.16132,-0.12025 0.37258,-0.12289 0.56493,-0.12612 z m -0.86151004,0.18582 c 0.13691,0.12038 -0.1376,0.29112 -0.24713,0.34237 -0.15863,0.14238 -0.26673,0.33846003 -0.336,0.53837003 -0.0478,0.19171 -0.10236,0.37537 -0.11228,0.57158 0.032,0.0935 -0.12534,0.24785 -0.0432,0.0822 -0.0423,-0.16888 -0.0326,-0.37702 -0.002,-0.56049 0.0296,-0.17317 0.0982,-0.33798 0.1426,-0.50138003 0.0177,0.0422 0.0967,-0.1766 0.17954,-0.2099 0.12057,-0.11178 0.26079,-0.21538 0.41893,-0.26276 z m 1.63197004,0.28111 c 0.25324,0.0952 0.51581,0.23137 0.67078,0.46126003 0.12232,0.19896 0.1842,0.42966 0.24512,0.65189 -0.11063,0.17605 -0.39968,0.006 -0.37103,-0.18794 -0.0969,-0.25038 -0.23995,-0.48237 -0.39386,-0.70121003 -0.0278,-0.0583 -0.22826,-0.16285 -0.15101,-0.224 z m -1.88219004,0.19921 c 0.12292,0.16727003 -0.11262,0.34148003 -0.11298,0.52144003 -0.0848,0.23397 -0.14795,0.49224 -0.0716,0.73759 -0.0113,0.14801 0.097,0.38009 0.0186,0.47706 -0.10857,-0.16301 -0.20086,-0.36045 -0.1948,-0.56181 0.016,-0.34982 0.036,-0.72027 0.23217,-1.02289 0.0372,-0.0549 0.0807,-0.10558003 0.12864,-0.15139003 z M 1.7007512,1.070526 c 0.2865,-0.005 0.47033,0.25414 0.61855,0.46385 0.13337,0.18168 0.3208,0.38202 0.27939,0.62514 -0.0881,0.24256 -0.40094,0.29607 -0.62395,0.24052 -0.22981,-0.0552 -0.46086,-0.10398 -0.69313,-0.14547 -0.21015,-0.0651 -0.29209004,-0.32183 -0.28347004,-0.52189 0.0599,-0.22104 0.14366004,-0.48269 0.35224004,-0.60612 0.11139,-0.0396 0.23261,-0.0527 0.35037,-0.056 z m -1.07043004,0.0793 c 0.0444,0.0264 -0.0434,0.0242 0,0 z m 1.98021004,0.14219 c 0.12952,0.12328 -0.10582,0.13422 -0.0189,-5.8e-4 z m -2.38643004,0.38585 c 0.0442,0.0261 -0.043,0.0244 0,0 z m 3.08511004,0.3399 c 0.17411,0.13238 -0.005,0.37563 -0.0122,0.54828 -0.12203,0.19422 -0.33489,0.30922 -0.50197,0.46023 -0.0983,0.0324 -0.36931,0.27746 -0.32644,0.0544 0.11149,-0.12586 0.28403,-0.18051 0.37741,-0.3277 0.1162,-0.12587 0.2389,-0.27105 0.24391,-0.45126 0.021,-0.11109 -0.002,-0.26585 0.16741,-0.24855 0.0755,0.0194 0.0591,0.031 0.0519,-0.0354 z m -2.69216004,0.25924 c 0.0711,0.20994 0.25482,0.34735 0.36597,0.52812 0.12737004,0.16745 0.29902004,0.2939 0.41620004,0.4702 0.13599,0.10389 0.0294,0.21636 -0.10831,0.16808 -0.32720004,-0.0303 -0.50013004,-0.35762 -0.59283004,-0.6363 -0.0368,-0.17295 -0.10492,-0.35106 -0.081,-0.5301 z m 2.97847004,0.33511 c 0.0445,0.0259 -0.043,0.0247 0,0 z m -2.52029,0.0907 c 0.24504,0.10286 0.42302,0.34753 0.70566,0.3604 0.14306,0.0736 0.41047,-0.0828 0.47703,0.0706 -0.0389,0.0882 -0.031,0.16441 0.009,0.22901 -0.18906,-0.12285 -0.41684,0.0127 -0.62315,-0.0879 -0.18417,-0.0881 -0.33751,-0.2324 -0.47689,-0.37917 -0.12549,-0.0478 -0.1502,-0.0759 -0.0912,-0.19295 z m 0.012,0.11239 c -0.0564,0.0247 0.0535,0.0119 0,0 z m 0.0488,0.10528 c 0.0433,0.0383 -0.0398,0.0448 0,0 z m -0.65752004,0.0184 c 0.0511,0.0606 0.17233,0.34221 0.0155,0.18007 -0.0305,-0.0495 -0.075,-0.13389 -0.0155,-0.18007 z m 2.70898004,0.22519 c 0.0419,0.0376 -0.0365,0.0363 0,0 z m -0.35098,0.0477 c 0.0561,0.19183 -0.27419,0.23025 -0.40211,0.28683 -0.15703,-0.0606 0.13745,-0.2153 0.23417,-0.20853 0.0602,-0.0146 0.12241,-0.0341 0.16794,-0.0783 z m -1.35332,0.25336 c 0.0445,0.0259 -0.043,0.0247 0,0 z" />
  </g>
</svg>
