<?xml version="1.0" encoding="UTF-8" standalone="no"?>
<svg
   xmlns:dc="http://purl.org/dc/elements/1.1/"
   xmlns:cc="http://creativecommons.org/ns#"
   xmlns:rdf="http://www.w3.org/1999/02/22-rdf-syntax-ns#"
   xmlns:svg="http://www.w3.org/2000/svg"
   xmlns="http://www.w3.org/2000/svg"
   xmlns:sodipodi="http://sodipodi.sourceforge.net/DTD/sodipodi-0.dtd"
   xmlns:inkscape="http://www.inkscape.org/namespaces/inkscape"
   width="210mm"
   height="297mm"
   viewBox="0 0 210 297"
   version="1.1"
   id="svg5681"
   inkscape:version="1.0.1 (3bc2e813f5, 2020-09-07)"
   sodipodi:docname="star-1.svg">
  <defs
     id="defs5675" />
  <sodipodi:namedview
     id="base"
     pagecolor="#ffffff"
     bordercolor="#666666"
     borderopacity="1.0"
     inkscape:pageopacity="0.0"
     inkscape:pageshadow="2"
     inkscape:zoom="0.35"
     inkscape:cx="301.42857"
     inkscape:cy="560"
     inkscape:document-units="mm"
     inkscape:current-layer="layer1"
     inkscape:document-rotation="0"
     showgrid="false"
     inkscape:window-width="3747"
     inkscape:window-height="2126"
     inkscape:window-x="82"
     inkscape:window-y="-11"
     inkscape:window-maximized="1" />
  <metadata
     id="metadata5678">
    <rdf:RDF>
      <cc:Work
         rdf:about="">
        <dc:format>image/svg+xml</dc:format>
        <dc:type
           rdf:resource="http://purl.org/dc/dcmitype/StillImage" />
        <dc:title></dc:title>
      </cc:Work>
    </rdf:RDF>
  </metadata>
  <g
     inkscape:label="Layer 1"
     inkscape:groupmode="layer"
     id="layer1">
    <path
       id="star1"
       style="fill:#000000;stroke-width:0.0203101"
       d="m 2.1273734,0.00607619 c -0.45609,0.0337 -0.80797,0.36 -1.22077001,0.51888 -0.34778,0.17473 -0.65881,0.46473 -0.75984,0.85104001 -0.13984,0.36338 -0.22025,0.78124 -0.0525,1.15047 0.0518,0.2758 0.25958,0.47487 0.4719,0.63911 0.23748,0.25324 0.54104001,0.45316 0.89169001,0.49685 0.2139,0.008 0.44042,0.0656 0.65029,10e-4 0.2171,-0.058 0.41154,-0.16295 0.58904,-0.29903 0.33839,-0.186 0.4507,-0.57673 0.60237,-0.90238 0.20502,-0.31072 0.2118,-0.68259 0.20587,-1.04072 0.0168,-0.26388 -0.0464,-0.52219001 -0.19891,-0.73823001 -0.0248,-0.20999 -0.0865,-0.44354 -0.32654,-0.50293 -0.25447,-0.0989 -0.51452,-0.20359 -0.79406,-0.1755 l -0.0586,0.001 z m 0.207,0.12525 c -0.039,0.13012 -0.56771,0.0325 -0.2446,0.0143 0.0812,-0.0104 0.1632,-0.007 0.2446,-0.0143 z m -0.10132,0.20837 c 0.27416,0.0123 0.54993,0.10679 0.73975,0.30991 -0.051,0.14761 -0.26881,-0.20392 -0.41597,-0.19451 -0.20005,-0.0752 -0.59741,0.0888 -0.6782,-0.0767 0.11534,-0.0279 0.23698,-0.0219 0.35442,-0.0387 z m -0.84894,0.23845 c 0.14657,0.0443 -0.15254,0.0591 0,0 z m -0.15422,0.0414 c 0.0788,0.10742 -0.28019001,0.0895 -0.0401,0.008 z m -0.16504,0.0474 c 0.0439,0.0355 -0.0356,0.0865 0,0 z m 1.28101,0.0388 c 0.30522,0.007 0.50242,0.30659001 0.59677,0.56612001 0.0747,0.24411 -0.17669,0.40861 -0.28203,0.60093 -0.18412,0.23044 -0.2966,0.60625 -0.64503,0.62246 -0.12186,0.0304 -0.40195,-0.009 -0.13112,-0.0787 0.22533,-0.12977 0.49172,-0.24992 0.59088,-0.51002 0.0943,-0.2761 0.16767,-0.63501 -0.0247,-0.88636 -0.0501,-0.16135001 -0.50369,-0.15964001 -0.37682,-0.28943001 0.0891,-0.0199 0.18087,-0.0268 0.27205,-0.025 z m -1.023,0.34975001 c 0.24445,0.0593 0.51465,-0.0434 0.74171,0.10127 0.24019,0.1052 0.13905,0.40433 0.11505,0.60304 -0.0794,0.20867 -0.32336,0.31679 -0.52583,0.3714 -0.23388,-0.0406 -0.5159,-0.0696 -0.67652001,-0.26734 -0.16014,-0.17902 -0.006,-0.4565 0.15550001,-0.56505 0.12374,-0.0453 0.0563,-0.25338 0.19009,-0.24332 z m 1.95971,0.0583 c 0.0695,0.13386 0.0199,0.36987 -0.0171,0.0941 l 2.6e-4,-0.0517 z m -2.84064001,0.0391 c -0.0439,0.14247 -0.10026,0.40367 -0.22212,0.45329 0.0422,-0.16017 0.12639,-0.31729 0.22212,-0.45329 z m 0.62744001,0.0551 c 0.0447,0.0251 -0.0426,0.0235 0,0 z m -0.57850001,0.62389 c 0.0837,0.21867 0.20566,0.41671 0.34664,0.59999 0.22070001,0.27423 0.61293001,0.21602 0.92448001,0.24612 0.31388,0.0147 0.66376,-0.0194 0.90021,-0.25021 -0.31254,0.41533 -0.84885,0.55058 -1.33936,0.61031 -0.25276,0.0343 -0.49466001,-0.0865 -0.63176001,-0.29129 -0.19102,-0.19081 -0.20572,-0.48342 -0.2549,-0.73557 -10e-5,-0.0596 -0.0293,-0.16351 0.0547,-0.17935 z m 2.44701001,0.006 c 0.0591,0.17178 -0.35755,0.45679 -0.12091,0.15422 0.076,-0.0675 0.0335,-0.13146 0.12091,-0.15422 z m -2.75423001,0.013 c 0.0708,0.12359 -0.13917,0.10676 0,0 z m 2.53082001,0.5156 c 0.0447,0.0251 -0.0426,0.0235 0,0 z m -0.14507,0.79903 c -0.074,0.18095 -0.50336,0.36966 -0.56108,0.18015 0.19599,-0.0289 0.37915,-0.10186 0.56108,-0.18015 z m -1.59396001,0.0952 c 0.22077001,0.14345 0.48471001,0.15872 0.73151001,0.0847 0.17039,-0.053 0.2825,0.0368 0.17903,0.15934 -0.31176,-0.0145 -0.65434,-0.0184 -0.91552001,-0.2107 l -0.006,-0.0166 0.011,-0.0168 z" />
  </g>
</svg>
